# Alias OBJ Model File
# Exported from SketchUp, (c) 2000-2012 Trimble Navigation Limited
# File units = inches

mtllib desk3.mtl

g Mesh1 Group1 Model

usemtl Wood_Veneer_01
v -0.973035 10.25 -2.97303
vt 0.00807413 0.142361
vn -0.707107 0 -0.707107
v -1.19172 9.875 -2.68804
vt 0.0130634 0.137153
vn -0.866025 0 -0.5
v -1.19172 10.25 -2.68804
vt 0.0130634 0.142361
f 1/1/1 2/2/2 3/3/2

v -0.973035 9.875 -2.97303
vt 0.00807413 0.137153
f 2/2/2 1/1/1 4/4/1

vt 0.0162681 0.142361
v -0.688039 9.875 -3.19172
vt 0.0112789 0.137153
vn -0.5 0 -0.866025
vt 0.0162681 0.137153
f 1/5/1 5/6/3 4/7/1

v -0.688039 10.25 -3.19172
vt 0.0112789 0.142361
f 5/6/3 1/5/1 6/8/3

vt -0.0308755 0.0135144
vn 0 1 -0
v -0.883883 10.25 -2.88388
vt -0.0296373 0.0122762
vt -0.0269172 0.0165517
f 1/9/4 7/10/4 6/11/4

v -1.08253 10.25 -2.625
vt -0.0323963 0.00868056
f 1/9/4 8/12/4 7/10/4

vt -0.0339128 0.0095561
f 3/13/4 8/12/4 1/9/4

v -1.20741 10.25 -2.32352
vt -0.0341307 0.00449339
f 3/13/4 9/14/4 8/12/4

v -1.25 10.25 -2
vt -0.0347222 0
f 3/13/4 10/15/4 9/14/4

v -1.32919 10.25 -2.35616
vt -0.0358221 0.0049466
f 11/16/4 10/15/4 3/13/4

v -1.25 10.25 -1.1
vt -0.0347222 -0.0125
f 11/16/4 12/17/4 10/15/4

v -1.375 10.25 -2.00819
vt -0.0364583 0.000113791
f 13/18/4 12/17/4 11/16/4

v -1.375 10.25 -1.1
vt -0.0364583 -0.0125
f 12/17/4 13/18/4 14/19/4

v -1.375 9.875 -1.50108
vt -5.00108 9.875
vn -1 0 -0
vt -4.6 10.25
vt -5.50819 10.25
vn -0.997859 0 -0.0654031
f 15/20/5 14/21/5 13/22/6

v -1.375 0.375 -1.1
vt -4.6 0.375
f 14/21/5 15/20/5 16/23/5

v -1.375 0 -1.5
vt -5 0
f 16/23/5 15/20/5 17/24/5

v -1.375 0 -1.50108
vt -5.00108 0
f 15/20/5 18/25/5 17/24/5

v -1.375 0.375 -1.50108
vt -5.00108 0.375
f 18/25/5 15/20/5 19/26/5

vt 0.0364583 0.137153
vn 0 0 -1
v -1.25 0.375 -1.50108
vt 0.0347222 0.00520833
vt 0.0364583 0.00520833
f 15/27/7 20/28/7 19/29/7

v -1.25 9.875 -1.50108
vt 0.0347222 0.137153
f 20/28/7 15/27/7 21/30/7

vt 0.0364583 -0.00692946
vn 0 -1 -0
v -1.32919 9.875 -2.35616
vt 0.0358221 0.0049466
vt 0.0347222 -0.00692946
f 15/31/8 22/32/8 21/33/8

v -1.375 9.875 -2.00819
vt 0.0364583 0.000113791
f 22/32/8 15/31/8 23/34/8

vt -5.50819 9.875
f 15/20/5 13/22/6 23/35/6

vt -0.000228563 0.142361
vn -0.965926 0 -0.258819
vt 0.00464595 0.137153
vt 0.00464595 0.142361
f 11/36/9 23/37/6 13/38/6

vt -0.000228563 0.137153
f 23/37/6 11/36/9 22/39/9

vt 0.00414917 0.142361
vt 0.00913845 0.137153
vt 0.00913845 0.142361
f 3/40/2 22/41/9 11/42/9

vt 0.00414917 0.137153
f 22/41/9 3/40/2 2/43/2

vt 0.0339128 0.0095561
v -1.25 9.875 -2
vt 0.0347222 0
f 2/44/8 24/45/8 22/32/8

v -1.20741 9.875 -2.32352
vt 0.0341307 0.00449339
f 24/45/8 2/44/8 25/46/8

v -1.08253 9.875 -2.625
vt 0.0323963 0.00868056
f 25/46/8 2/44/8 26/47/8

vt 0.0308755 0.0135144
f 26/47/8 2/44/8 4/48/8

v -0.883883 9.875 -2.88388
vt 0.0296373 0.0122762
f 26/47/8 4/48/8 27/49/8

vt 0.0269172 0.0165517
f 27/49/8 4/48/8 5/50/8

v -0.625 9.875 -3.08253
vt 0.0260417 0.0150352
f 27/49/8 5/50/8 28/51/8

v -0.356155 9.875 -3.32919
vt 0.0223077 0.018461
f 28/51/8 5/50/8 29/52/8

vt 0.0185342 0.142361
vt 0.0135449 0.137153
vn -0.258819 0 -0.965926
vt 0.0185342 0.137153
f 6/53/3 29/54/10 5/55/3

v -0.356155 10.25 -3.32919
vt 0.0135449 0.142361
f 29/54/10 6/53/3 30/56/10

v -0.625 10.25 -3.08253
vt -0.0260417 0.0150352
vt -0.0223077 0.018461
f 6/11/4 31/57/4 30/58/4

f 6/11/4 7/10/4 31/57/4

vt -0.0160396 0.137153
vn 0.707107 0 0.707107
vt -0.0115074 0.142361
vn 0.5 0 0.866025
vt -0.0160396 0.142361
f 27/59/11 31/60/12 7/61/11

vt -0.0115074 0.137153
f 31/60/12 27/59/11 28/62/12

vt -0.0183057 0.137153
v -0.323524 10.25 -3.20741
vt -0.0137735 0.142361
vn 0.258819 0 0.965926
vt -0.0183057 0.142361
f 28/63/12 32/64/13 31/65/12

v -0.323524 9.875 -3.20741
vt -0.0137735 0.137153
f 32/64/13 28/63/12 33/66/13

vt 0.0218545 0.0167695
f 28/51/8 29/52/8 33/67/8

v 4.44089e-16 9.875 -3.37608
vt 0.0173611 0.0191122
f 33/67/8 29/52/8 34/68/8

vt 0.0197072 0.142361
vt 0.0147179 0.137153
vn 6.71882e-16 0 -1
vt 0.0197072 0.137153
f 30/69/10 34/70/14 29/71/10

v 4.44089e-16 10.25 -3.37608
vt 0.0147179 0.142361
f 34/70/14 30/69/10 35/72/14

vt -0.0218545 0.0167695
vt -0.0173611 0.0191122
f 30/58/4 32/73/4 35/74/4

f 30/58/4 31/57/4 32/73/4

v 4.44089e-16 10.25 -3.25
vt -0.0173611 0.0173611
f 35/74/4 32/73/4 36/75/4

vt -0.0194787 0.137153
vt -0.0149465 0.142361
vn -7.27872e-16 0 1
vt -0.0194787 0.142361
f 33/76/13 36/77/15 32/78/13

v 4.44089e-16 9.875 -3.25
vt -0.0149465 0.137153
f 36/77/15 33/76/13 37/79/15

vt 0.0173611 0.0173611
f 33/67/8 34/68/8 37/80/8

v 0.356155 9.875 -3.32919
vt 0.0124145 0.018461
f 37/80/8 34/68/8 38/81/8

vn 0.258819 0 -0.965926
f 35/69/14 38/70/16 34/71/14

v 0.356155 10.25 -3.32919
f 38/70/16 35/69/14 39/72/16

v 0.323524 10.25 -3.20741
vt -0.0128677 0.0167695
vt -0.0124145 0.018461
f 35/74/4 40/82/4 39/83/4

f 35/74/4 36/75/4 40/82/4

vn -0.258819 0 0.965926
f 37/76/15 40/77/17 36/78/15

v 0.323524 9.875 -3.20741
f 40/77/17 37/76/15 41/79/17

vt 0.0128677 0.0167695
f 37/80/8 38/81/8 41/84/8

v 0.625 9.875 -3.08253
vt 0.00868056 0.0150352
f 41/84/8 38/81/8 42/85/8

v 0.688039 9.875 -3.19172
vt 0.00780501 0.0165517
f 42/85/8 38/81/8 43/86/8

vn 0.5 0 -0.866025
f 39/53/16 43/54/18 38/55/16

v 0.688039 10.25 -3.19172
f 43/54/18 39/53/16 44/56/18

v 0.625 10.25 -3.08253
vt -0.00868056 0.0150352
vt -0.00780501 0.0165517
f 39/83/4 45/87/4 44/88/4

f 39/83/4 40/82/4 45/87/4

vn -0.5 0 0.866025
f 41/63/17 45/64/19 40/65/17

f 45/64/19 41/63/17 42/66/19

v 0.883883 10.25 -2.88388
vn -0.707107 0 0.707107
f 42/59/19 46/60/20 45/61/19

v 0.883883 9.875 -2.88388
f 46/60/20 42/59/19 47/62/20

vt 0.00508495 0.0122762
f 42/85/8 43/86/8 47/89/8

v 0.973035 9.875 -2.97303
vt 0.00384674 0.0135144
f 47/89/8 43/86/8 48/90/8

vn 0.707107 0 -0.707107
f 44/5/18 48/6/21 43/7/18

v 0.973035 10.25 -2.97303
f 48/6/21 44/5/18 49/8/21

vt -0.00508495 0.0122762
vt -0.00384674 0.0135144
f 44/88/4 46/91/4 49/92/4

f 44/88/4 45/87/4 46/91/4

v 1.08253 10.25 -2.625
vt -0.00232595 0.00868056
f 49/92/4 46/91/4 50/93/4

vt -0.0128349 0.142361
v 1.08253 9.875 -2.625
vt -0.0083027 0.137153
vn -0.866025 0 0.5
vt -0.0083027 0.142361
f 46/94/20 51/95/22 50/96/22

vt -0.0128349 0.137153
f 51/95/22 46/94/20 47/97/20

vt 0.00232595 0.00868056
f 47/89/8 48/90/8 51/98/8

v 1.19172 9.875 -2.68804
vt 0.000809458 0.0095561
f 51/98/8 48/90/8 52/99/8

v 1.19172 10.25 -2.68804
vn 0.866025 0 -0.5
f 48/2/21 53/1/23 52/4/23

f 53/1/23 48/2/21 49/3/21

vt -0.000809458 0.0095561
f 49/92/4 50/93/4 53/100/4

v 1.20741 10.25 -2.32352
vt -0.000591566 0.00449339
f 53/100/4 50/93/4 54/101/4

vt -0.00890989 0.142361
v 1.20741 9.875 -2.32352
vt -0.00437773 0.137153
vn -0.965926 0 0.258819
vt -0.00437773 0.142361
f 50/102/22 55/103/24 54/104/24

vt -0.00890989 0.137153
f 55/103/24 50/102/22 51/105/22

vt 0.000591566 0.00449339
f 51/98/8 52/99/8 55/106/8

v 1.32919 9.875 -2.35616
vt -0.00109986 0.0049466
f 55/106/8 52/99/8 56/107/8

v 1.32919 10.25 -2.35616
vn 0.965926 0 -0.258819
f 52/41/23 57/40/25 56/43/25

f 57/40/25 52/41/23 53/42/23

vt 0.00109986 0.0049466
f 53/100/4 54/101/4 57/108/4

v 1.25 10.25 -2
vt 0 0
f 57/108/4 54/101/4 58/109/4

vt -0.00453216 0.142361
v 1.25 9.875 -2
vt 0 0.137153
vn -0.997859 0 0.0654031
vt 0 0.142361
f 54/110/24 59/111/26 58/112/26

vt -0.00453216 0.137153
f 59/111/26 54/110/24 55/113/24

f 55/106/8 56/107/8 59/109/8

v 1.25 9.875 -1.50108
vt 0 -0.00692946
f 59/109/8 56/107/8 60/114/8

v 1.375 9.875 -1.50108
vt -0.00173611 -0.00692946
f 60/114/8 56/107/8 61/115/8

v 1.375 9.875 -2.00819
vt -0.00173611 0.000113791
f 61/115/8 56/107/8 62/116/8

vt 0.00476072 0.137153
v 1.375 10.25 -2.00819
vt -0.000113791 0.142361
vn 0.997859 5.5679e-18 -0.0654031
vt -0.000113791 0.137153
f 56/117/25 63/118/27 62/119/27

vt 0.00476072 0.142361
f 63/118/27 56/117/25 57/120/25

v 1.375 10.25 -1.225
vt 0.00173611 -0.0107639
vt 0.00173611 0.000113791
f 57/108/4 64/121/4 63/122/4

f 58/109/4 64/121/4 57/108/4

v 1.25 10.25 -1.225
vt 0 -0.0107639
f 64/121/4 58/109/4 65/123/4

vt 0.00692946 0.137153
vt 0.0107639 0.142361
f 60/124/5 65/125/5 58/112/26

v 1.25 0.375 -1.225
vt 0.0107639 0.00520833
f 65/125/5 60/124/5 66/126/5

v 1.25 0 -1.5
vt 0.00694444 -1.55898e-21
f 66/126/5 60/124/5 67/127/5

v 1.25 0.375 -1.50108
vt 0.00692946 0.00520833
f 68/128/5 67/127/5 60/124/5

v 1.25 0 -2
vt 0 -1.55898e-21
f 67/127/5 68/128/5 69/129/26

v 1.25 0.375 -2
vt 0 0.00520833
f 69/129/26 68/128/5 70/130/26

v 1.375 0.375 -1.50108
vt 0.00173611 -0.00692946
f 71/131/4 70/109/4 68/114/4

v 1.32919 0.375 -2.35616
f 70/109/4 71/131/4 72/108/4

v 1.375 0.375 -2.00819
f 72/108/4 71/131/4 73/122/4

vt -0.00692946 0.00520833
vn 1 1.1112e-17 3.50046e-17
v 1.375 0 -2.00819
vt 0.000113791 -1.92916e-20
vt 0.000113791 0.00520833
f 71/132/28 74/133/27 73/134/27

v 1.375 0 -1.5
vt -0.00694444 -1.92916e-20
f 74/133/27 71/132/28 75/135/28

vt -0.00692946 0.137153
f 61/136/28 75/135/28 71/132/28

vt -0.0107639 0.142361
f 64/137/28 75/135/28 61/136/28

v 1.375 0.375 -1.225
vt -0.0107639 0.00520833
f 76/138/28 75/135/28 64/137/28

v 1.375 0.375 2.13211
vt -0.0573905 0.00520833
vn 0.997859 5.5679e-18 0.0654031
f 77/139/29 75/135/28 76/138/28

v 1.375 0 2.13211
vt -0.0573905 -1.92916e-20
f 75/135/28 77/139/29 78/140/29

v 1.32919 0.375 2.48008
vt -0.0615474 0.00520833
vn 0.965926 0 0.258819
vt -0.0566729 0
vt -0.0566729 0.00520833
f 79/141/30 78/142/29 77/143/29

v 1.32919 0 2.48008
vt -0.0615474 0
f 78/142/29 79/141/30 80/144/30

v 1.19172 0.375 2.81196
vt -0.0620552 0.00520833
vn 0.866025 0 0.5
vt -0.0570659 0
vt -0.0570659 0.00520833
f 81/145/31 80/146/30 79/147/30

v 1.19172 0 2.81196
vt -0.0620552 0
f 80/146/30 81/145/31 82/148/31

v 0.973035 0.375 3.09696
vt -0.0585041 0.00520833
vt -0.0535148 0
vt -0.0535148 0.00520833
f 83/149/11 82/150/31 81/151/31

v 0.973035 0 3.09696
vt -0.0585041 0
f 82/150/31 83/149/11 84/152/11

vt -0.0461467 0.00520833
v 0.688039 0 3.31564
vt -0.051136 0
vt -0.0461467 0
f 83/153/11 85/154/12 84/155/11

v 0.688039 0.375 3.31564
vt -0.051136 0.00520833
f 85/154/12 83/153/11 86/156/12

v 0.883883 0.375 3.0078
vt -0.00508495 -0.0695528
vt -0.00780501 -0.0738283
vt -0.00384674 -0.0707911
f 87/157/4 86/158/4 83/159/4

v 0.625 0.375 3.20645
vt -0.00868056 -0.0723118
f 88/160/4 86/158/4 87/157/4

v 0.356155 0.375 3.45311
vt -0.0124145 -0.0757377
f 88/160/4 89/161/4 86/158/4

v 0.323524 0.375 3.33133
vt -0.0128677 -0.0740462
f 90/162/4 89/161/4 88/160/4

v 4.44089e-16 0.375 3.37392
vt -0.0173611 -0.0746378
f 91/163/4 89/161/4 90/162/4

v 4.44089e-16 0.375 3.5
vt -0.0173611 -0.0763889
f 91/163/4 92/164/4 89/161/4

v -0.323524 0.375 3.33133
vt -0.0218545 -0.0740462
f 93/165/4 92/164/4 91/163/4

v -0.356155 0.375 3.45311
vt -0.0223077 -0.0757377
f 93/165/4 94/166/4 92/164/4

v -0.625 0.375 3.20645
vt -0.0260417 -0.0723118
f 95/167/4 94/166/4 93/165/4

v -0.688039 0.375 3.31564
vt -0.0269172 -0.0738283
f 95/167/4 96/168/4 94/166/4

v -0.883883 0.375 3.0078
vt -0.0296373 -0.0695528
f 97/169/4 96/168/4 95/167/4

v -0.973035 0.375 3.09696
vt -0.0308755 -0.0707911
f 97/169/4 98/170/4 96/168/4

v -1.08253 0.375 2.74892
vt -0.0323963 -0.0659572
f 99/171/4 98/170/4 97/169/4

v -1.19172 0.375 2.81196
vt -0.0339128 -0.0668328
f 99/171/4 100/172/4 98/170/4

v -1.20741 0.375 2.44745
vt -0.0341307 -0.0617701
f 101/173/4 100/172/4 99/171/4

v -1.25 0.375 2.12392
vt -0.0347222 -0.0572767
f 102/174/4 100/172/4 101/173/4

v -1.32919 0.375 2.48008
vt -0.0358221 -0.0622233
f 100/172/4 102/174/4 103/175/4

v -1.25 0.375 -1.1
f 104/17/4 103/175/4 102/174/4

f 16/19/4 103/175/4 104/17/4

v -1.375 0.375 2.13211
vt -0.0364583 -0.0573905
f 103/175/4 16/19/4 105/176/4

v -1.375 0 2.13211
vt -1.36789 0
vt -1.36789 0.375
f 16/23/5 106/177/26 105/178/26

f 106/177/26 16/23/5 17/24/5

v -1.25 0 -1.5
vt 0.0347222 -0.00694444
vt 0.0364583 -0.0573905
vt 0.0364583 -0.00694444
f 107/179/8 106/180/8 17/181/8

v -1.32919 0 2.48008
vt 0.0358221 -0.0622233
f 106/180/8 107/179/8 108/182/8

v -1.25 0 2.12392
vt 0.0347222 -0.0572767
f 108/182/8 107/179/8 109/183/8

vt 5 0
vn 1 0 -0
vt 1.37608 0.375
vn 0.997859 0 -0.0654031
vt 1.37608 0
f 107/184/32 102/185/33 109/186/33

vt 4.6 0.375
f 102/185/33 107/184/32 104/187/32

v -1.25 10 -1.1
vt 4.6 10
f 104/187/32 107/184/32 110/188/32

v -1.25 10 -1.50108
vt 5.00108 10
f 110/188/32 107/184/32 111/189/32

v -1.25 0 -1.50108
vt 5.00108 0
f 111/189/32 107/184/32 112/190/32

vt 5.00108 0.375
f 111/189/32 112/190/32 20/191/32

v -1.25 0 -2
vt 5.5 0
vn 0.997859 0 0.0654031
f 113/192/34 20/191/32 112/190/32

v -1.25 0.375 -2
vt 5.5 0.375
f 20/191/32 113/192/34 114/193/34

v -1.20741 0 -2.32352
vt -5.55112e-17 0
vt -0.00453216 0.00520833
vt -0.00453216 0
f 115/194/30 114/195/34 113/196/34

v -1.20741 0.375 -2.32352
vt -5.55112e-17 0.00520833
f 114/195/34 115/194/30 116/197/30

v -1.08253 0 -2.625
vt -0.00437773 0
vt -0.00890989 0.00520833
vt -0.00890989 0
f 117/198/31 116/199/30 115/200/30

v -1.08253 0.375 -2.625
vt -0.00437773 0.00520833
f 116/199/30 117/198/31 118/201/31

v -0.883883 0 -2.88388
vt -0.0083027 0
vt -0.0128349 0.00520833
vt -0.0128349 0
f 119/202/11 118/203/31 117/204/31

v -0.883883 0.375 -2.88388
vt -0.0083027 0.00520833
f 118/203/31 119/202/11 120/205/11

vt -0.0160396 0
v -0.625 0.375 -3.08253
vt -0.0115074 0.00520833
vt -0.0160396 0.00520833
f 119/206/11 121/207/12 120/208/11

v -0.625 0 -3.08253
vt -0.0115074 0
f 121/207/12 119/206/11 122/209/12

v -0.688039 0 -3.19172
f 119/49/8 123/50/8 122/51/8

v -0.973035 0 -2.97303
f 119/49/8 124/48/8 123/50/8

f 117/47/8 124/48/8 119/49/8

v -1.19172 0 -2.68804
f 117/47/8 125/44/8 124/48/8

f 115/46/8 125/44/8 117/47/8

f 113/45/8 125/44/8 115/46/8

v -1.32919 0 -2.35616
f 125/44/8 113/45/8 126/32/8

f 112/33/8 126/32/8 113/45/8

f 18/31/8 126/32/8 112/33/8

v -1.375 0 -2.00819
f 126/32/8 18/31/8 127/34/8

v -1.375 0.375 -2.00819
vt -5.50819 0.375
vt -5.50819 0
f 18/25/5 128/210/6 127/211/6

f 18/25/5 19/26/5 128/210/6

vt -0.0347222 -0.00692946
vt -0.0364583 -0.00692946
f 20/212/4 128/18/4 19/213/4

v -1.32919 0.375 -2.35616
f 128/18/4 20/212/4 129/16/4

f 129/16/4 20/212/4 114/15/4

v -1.19172 0.375 -2.68804
f 129/16/4 114/15/4 130/13/4

f 130/13/4 114/15/4 116/14/4

f 130/13/4 116/14/4 118/12/4

v -0.973035 0.375 -2.97303
f 130/13/4 118/12/4 131/9/4

f 131/9/4 118/12/4 120/10/4

v -0.688039 0.375 -3.19172
f 131/9/4 120/10/4 132/11/4

f 132/11/4 120/10/4 121/57/4

v -0.356155 0.375 -3.32919
f 132/11/4 121/57/4 133/58/4

v -0.323524 0.375 -3.20741
f 133/58/4 121/57/4 134/73/4

vt -0.0183057 0
vt -0.0137735 0.00520833
vt -0.0183057 0.00520833
f 122/214/12 134/215/13 121/216/12

v -0.323524 0 -3.20741
vt -0.0137735 0
f 134/215/13 122/214/12 135/217/13

v -0.356155 0 -3.32919
f 122/51/8 136/52/8 135/67/8

f 122/51/8 123/50/8 136/52/8

vt 0.0185342 0.00520833
vt 0.0135449 0
vt 0.0185342 0
f 132/218/3 136/219/10 123/220/3

vt 0.0135449 0.00520833
f 136/219/10 132/218/3 133/221/10

vt 0.0197072 0.00520833
v 4.44089e-16 0 -3.37608
vt 0.0147179 0
vn 6.85879e-16 0 -1
vt 0.0197072 0
f 133/222/10 137/223/35 136/224/10

v 4.44089e-16 0.375 -3.37608
vt 0.0147179 0.00520833
f 137/223/35 133/222/10 138/225/35

f 133/58/4 134/73/4 138/74/4

v 4.44089e-16 0.375 -3.25
f 138/74/4 134/73/4 139/75/4

vt -0.0194787 0
vt -0.0149465 0.00520833
vn -7.13874e-16 0 1
vt -0.0194787 0.00520833
f 135/226/13 139/227/36 134/228/13

v 4.44089e-16 0 -3.25
vt -0.0149465 0
f 139/227/36 135/226/13 140/229/36

f 135/67/8 137/68/8 140/80/8

f 135/67/8 136/52/8 137/68/8

v 0.356155 0 -3.32919
f 140/80/8 137/68/8 141/81/8

f 138/222/35 141/223/16 137/224/35

v 0.356155 0.375 -3.32919
f 141/223/16 138/222/35 142/225/16

v 0.323524 0.375 -3.20741
f 138/74/4 143/82/4 142/83/4

f 138/74/4 139/75/4 143/82/4

f 140/226/36 143/227/17 139/228/36

v 0.323524 0 -3.20741
f 143/227/17 140/226/36 144/229/17

f 140/80/8 141/81/8 144/84/8

v 0.625 0 -3.08253
f 144/84/8 141/81/8 145/85/8

v 0.688039 0 -3.19172
f 145/85/8 141/81/8 146/86/8

f 142/218/16 146/219/18 141/220/16

v 0.688039 0.375 -3.19172
f 146/219/18 142/218/16 147/221/18

v 0.625 0.375 -3.08253
f 142/83/4 148/87/4 147/88/4

f 142/83/4 143/82/4 148/87/4

f 144/214/17 148/215/19 143/216/17

f 148/215/19 144/214/17 145/217/19

v 0.883883 0.375 -2.88388
f 145/206/19 149/207/20 148/208/19

v 0.883883 0 -2.88388
f 149/207/20 145/206/19 150/209/20

f 145/85/8 146/86/8 150/89/8

v 0.973035 0 -2.97303
f 150/89/8 146/86/8 151/90/8

vt 0.0162681 0.00520833
vt 0.0112789 0
vt 0.0162681 0
f 147/230/18 151/231/21 146/232/18

v 0.973035 0.375 -2.97303
vt 0.0112789 0.00520833
f 151/231/21 147/230/18 152/233/21

f 147/88/4 149/91/4 152/92/4

f 147/88/4 148/87/4 149/91/4

v 1.08253 0.375 -2.625
f 152/92/4 149/91/4 153/93/4

v 1.08253 0 -2.625
f 149/203/20 154/202/22 153/205/22

f 154/202/22 149/203/20 150/204/20

f 150/89/8 151/90/8 154/98/8

v 1.19172 0 -2.68804
f 154/98/8 151/90/8 155/99/8

vt 0.0130634 0
v 1.19172 0.375 -2.68804
vt 0.00807413 0.00520833
vt 0.00807413 0
f 151/234/21 156/235/23 155/236/23

vt 0.0130634 0.00520833
f 156/235/23 151/234/21 152/237/21

f 152/92/4 153/93/4 156/100/4

v 1.20741 0.375 -2.32352
f 156/100/4 153/93/4 157/101/4

v 1.20741 0 -2.32352
f 153/199/22 158/198/24 157/201/24

f 158/198/24 153/199/22 154/200/22

f 154/98/8 155/99/8 158/106/8

v 1.32919 0 -2.35616
f 158/106/8 155/99/8 159/107/8

vt 0.00913845 0
vt 0.00414917 0.00520833
vt 0.00414917 0
f 155/238/23 72/239/25 159/240/25

vt 0.00913845 0.00520833
f 72/239/25 155/238/23 156/241/23

f 156/100/4 157/101/4 72/108/4

f 72/108/4 157/101/4 70/109/4

f 157/195/24 69/109/26 70/130/26

f 69/109/26 157/195/24 158/196/24

f 158/106/8 159/107/8 69/109/8

vt 0 -0.00694444
f 69/109/8 159/107/8 67/242/8

vt -0.00173611 -0.00694444
f 67/242/8 159/107/8 75/243/8

f 75/243/8 159/107/8 74/116/8

vt 0.00476072 0
vt -0.000113791 0.00520833
vt -0.000113791 0
f 159/244/25 73/245/27 74/246/27

vt 0.00476072 0.00520833
f 73/245/27 159/244/25 72/247/25

v 1.25 0 2.12392
vt 0 -0.0572767
f 75/243/8 160/248/8 67/242/8

vt -0.00109986 -0.0622233
f 160/248/8 75/243/8 80/249/8

vt -0.00173611 -0.0573905
f 80/249/8 75/243/8 78/250/8

v 1.20741 0 2.44745
vt 0.000591566 -0.0617701
f 80/249/8 161/251/8 160/248/8

vt 0.000809458 -0.0668328
f 82/252/8 161/251/8 80/249/8

v 1.08253 0 2.74892
vt 0.00232595 -0.0659572
f 82/252/8 162/253/8 161/251/8

vt 0.00384674 -0.0707911
f 84/254/8 162/253/8 82/252/8

v 0.883883 0 3.0078
vt 0.00508495 -0.0695528
f 84/254/8 163/255/8 162/253/8

vt 0.00780501 -0.0738283
f 85/256/8 163/255/8 84/254/8

v 0.625 0 3.20645
vt 0.00868056 -0.0723118
f 85/256/8 164/257/8 163/255/8

v 0.356155 0 3.45311
vt 0.0124145 -0.0757377
f 165/258/8 164/257/8 85/256/8

v 0.323524 0 3.33133
vt 0.0128677 -0.0740462
f 165/258/8 166/259/8 164/257/8

v 4.44089e-16 0 3.5
vt 0.0173611 -0.0763889
f 167/260/8 166/259/8 165/258/8

v 4.44089e-16 0 3.37392
vt 0.0173611 -0.0746378
f 167/260/8 168/261/8 166/259/8

v -0.323524 0 3.33133
vt 0.0218545 -0.0740462
f 167/260/8 169/262/8 168/261/8

v -0.356155 0 3.45311
vt 0.0223077 -0.0757377
f 170/263/8 169/262/8 167/260/8

v -0.625 0 3.20645
vt 0.0260417 -0.0723118
f 170/263/8 171/264/8 169/262/8

v -0.688039 0 3.31564
vt 0.0269172 -0.0738283
f 172/265/8 171/264/8 170/263/8

v -0.883883 0 3.0078
vt 0.0296373 -0.0695528
f 172/265/8 173/266/8 171/264/8

v -0.973035 0 3.09696
vt 0.0308755 -0.0707911
f 174/267/8 173/266/8 172/265/8

v -1.08253 0 2.74892
vt 0.0323963 -0.0659572
f 174/267/8 175/268/8 173/266/8

v -1.19172 0 2.81196
vt 0.0339128 -0.0668328
f 176/269/8 175/268/8 174/267/8

v -1.20741 0 2.44745
vt 0.0341307 -0.0617701
f 176/269/8 177/270/8 175/268/8

f 176/269/8 109/183/8 177/270/8

f 108/182/8 109/183/8 176/269/8

vt 0.0487676 0
vt 0.0437783 0.00520833
vt 0.0437783 0
f 176/271/22 103/272/24 108/273/24

vt 0.0487676 0.00520833
f 103/272/24 176/271/22 100/274/22

vt 0.0373665 0
vt 0.0323772 0.00520833
vt 0.0323772 0
f 174/275/20 100/276/22 176/277/22

vt 0.0373665 0.00520833
f 100/276/22 174/275/20 98/278/20

vt 0.0185997 0
vt 0.023589 0.00520833
vt 0.0185997 0.00520833
f 174/279/20 96/280/19 98/281/20

vt 0.023589 0
f 96/280/19 174/279/20 172/282/19

vt 0.00338462 0
vt 0.00837391 0.00520833
vt 0.00338462 0.00520833
f 172/283/19 94/284/17 96/285/19

vt 0.00837391 0
f 94/284/17 172/283/19 170/286/17

vt -0.0122311 0
vt -0.00724183 0.00520833
vn -1.39975e-17 0 1
vt -0.0122311 0.00520833
f 170/287/17 92/288/37 94/289/17

vt -0.00724183 0
f 92/288/37 170/287/17 167/290/37

vt -0.0271833 0
vt -0.022194 0.00520833
vt -0.0271833 0.00520833
f 167/291/37 89/292/13 92/293/37

vt -0.022194 0
f 89/292/13 167/291/37 165/294/13

vt -0.0404531 0
vt -0.0354638 0.00520833
vt -0.0404531 0.00520833
f 165/295/13 86/296/12 89/297/13

vt -0.0354638 0
f 86/296/12 165/295/13 85/298/12

vt 0.0521407 0.00520833
vt 0.0570152 0
vt 0.0570152 0.00520833
f 105/299/26 108/300/24 103/301/24

vt 0.0521407 0
f 108/300/24 105/299/26 106/302/26

vt -0.0522545 0
vt -0.0567867 0.00520833
vt -0.0567867 0
f 109/303/33 101/304/25 177/305/25

vt -0.0522545 0.00520833
f 101/304/25 109/303/33 102/306/33

vt -0.048539 0.00520833
vt -0.0440069 0
vt -0.0440069 0.00520833
f 99/307/23 177/308/25 101/309/25

vt -0.048539 0
f 177/308/25 99/307/23 175/310/23

vt -0.037138 0.00520833
vt -0.0326058 0
vt -0.0326058 0.00520833
f 97/311/21 175/312/23 99/313/23

vt -0.037138 0
f 175/312/23 97/311/21 173/314/21

vt -0.0188283 0.00520833
vt -0.0233604 0
vt -0.0188283 0
f 97/315/21 171/316/18 173/317/21

vt -0.0233604 0.00520833
f 171/316/18 97/315/21 95/318/18

vt -0.00361318 0.00520833
vt -0.00814534 0
vt -0.00361318 0
f 95/319/18 169/320/16 171/321/18

vt -0.00814534 0.00520833
f 169/320/16 95/319/18 93/322/16

vt 0.0120026 0.00520833
vt 0.0074704 0
vn -4.19926e-17 0 -1
vt 0.0120026 0
f 93/323/16 168/324/38 169/325/16

vt 0.0074704 0.00520833
f 168/324/38 93/323/16 91/326/38

vt 0.0269548 0.00520833
vt 0.0224226 0
vt 0.0269548 0
f 91/327/38 166/328/10 168/329/38

vt 0.0224226 0.00520833
f 166/328/10 91/327/38 90/330/10

vt 0.0402245 0.00520833
vt 0.0356923 0
vt 0.0402245 0
f 90/331/10 164/332/3 166/333/10

vt 0.0356923 0.00520833
f 164/332/3 90/331/10 88/334/3

vt 0.0509074 0.00520833
vt 0.0463753 0
vn -0.707107 -1.7768e-16 -0.707107
vt 0.0509074 0
f 88/335/3 163/336/39 164/337/3

vt 0.0463753 0.00520833
f 163/336/39 88/335/3 87/338/39

v 1.08253 0.375 2.74892
vt 0.0537433 0.00520833
vn -0.866025 -3.84593e-16 -0.5
vt 0.0582755 -1.34963e-17
vt 0.0582755 0.00520833
f 178/339/40 163/340/39 87/341/39

vt 0.0537433 -1.34963e-17
f 163/340/39 178/339/40 162/342/40

v 1.20741 0.375 2.44745
vt 0.0572945 0.00520833
vn -0.965926 -2.06913e-16 -0.258819
vt 0.0618266 -9.47424e-18
vt 0.0618266 0.00520833
f 179/343/41 162/344/40 178/345/40

vt 0.0572945 -9.47424e-18
f 162/344/40 179/343/41 161/346/41

v 1.25 0.375 2.12392
vt 0.0567867 0.00520833
vt 0.0613188 0
vt 0.0613188 0.00520833
f 180/347/6 161/348/41 179/349/41

vt 0.0567867 0
f 161/348/41 180/347/6 160/350/6

vt 0.0572767 -1.55898e-21
vt 0.0572767 0.00520833
f 66/126/5 160/351/6 180/352/6

f 160/351/6 66/126/5 67/127/5

vt 0.00109986 -0.0622233
f 180/248/4 79/353/4 66/123/4

vt -0.000591566 -0.0617701
f 179/354/4 79/353/4 180/248/4

vt -0.000809458 -0.0668328
f 179/354/4 81/355/4 79/353/4

vt -0.00232595 -0.0659572
f 178/356/4 81/355/4 179/354/4

f 178/356/4 83/159/4 81/355/4

f 87/157/4 83/159/4 178/356/4

f 66/123/4 79/353/4 76/121/4

vt 0.00173611 -0.0573905
f 76/121/4 79/353/4 77/357/4

vt 0.00173611 0.142361
vn 0 0 1
vt 0.00173611 0.00520833
f 64/358/42 66/130/42 76/359/42

f 66/130/42 64/358/42 65/112/42

f 123/231/3 131/230/1 132/233/3

f 131/230/1 123/231/3 124/232/1

f 125/234/2 131/235/1 124/236/1

f 131/235/1 125/234/2 130/237/2

f 126/238/9 130/239/2 125/240/2

f 130/239/2 126/238/9 129/241/9

vt 0.00464595 0
vt -0.000228563 0.00520833
vt -0.000228563 0
f 127/360/6 129/361/9 126/362/9

vt 0.00464595 0.00520833
f 129/361/9 127/360/6 128/363/6

vt 5.00108 9.875
f 111/189/32 20/191/32 21/364/32

vt -0.00692946 0.138889
f 24/111/34 111/365/32 21/136/32

f 10/112/34 111/365/32 24/111/34

vt -0.0125 0.142361
f 12/366/32 111/365/32 10/112/34

vt -0.0125 0.138889
f 111/365/32 12/366/32 110/367/32

vt 0 10.25
vt 0.125 10
vt 0.125 10.25
f 14/368/42 110/369/42 12/370/42

vt 0 0.375
f 16/371/42 110/369/42 14/368/42

vt 0.125 0.375
f 110/369/42 16/371/42 104/372/42

vt -4.71845e-16 0.137153
f 25/373/30 10/110/34 24/113/34

vt -4.71845e-16 0.142361
f 10/110/34 25/373/30 9/374/30

f 26/103/31 9/102/30 25/105/30

f 9/102/30 26/103/31 8/104/31

f 27/95/11 8/94/31 26/97/31

f 8/94/31 27/95/11 7/96/11

f 21/33/8 22/32/8 24/45/8

vt 0.000113791 0.142361
f 64/137/28 61/136/28 63/375/27

vt 0.000113791 0.137153
f 63/375/27 61/136/28 62/376/27

vt -0.00173611 0.00520833
vt -0.00173611 0.137153
f 71/377/7 60/111/7 61/378/7

f 60/111/7 71/377/7 68/130/7

f 60/124/5 58/112/26 59/111/26

