# Alias OBJ Model File
# Exported from SketchUp, (c) 2000-2012 Trimble Navigation Limited
# File units = inches

mtllib desk1.mtl

g Mesh1 Difference Model

usemtl _7
v -1.5944 2.90711 -2.79566
vt -8.33917e-06 -4.25192
vn -4.86047e-07 0.719726 -0.694259
v 1.4056 2.51559 -3.15608
vt -6.00001 -5.31623
vn -4.79442e-07 0.618273 -0.785964
v -1.5944 2.51559 -3.15608
vt -8.86429e-06 -5.31624
f 1/1/1 2/2/2 3/3/2

v 1.4056 2.90711 -2.79566
vt -6.00001 -4.25192
f 2/2/2 1/1/1 4/4/1

vt -9.51168e-06 -5.7779
v 1.4056 3.31796 -2.31576
vt -6.00001 -4.5144
vn -4.89247e-07 0.788953 -0.614454
vt -6.00001 -5.7779
f 1/5/1 5/6/3 4/7/1

v -1.5944 3.31796 -2.31576
vt -8.75299e-06 -4.51441
f 5/6/3 1/5/1 6/8/3

v -1.5944 2.81698 -2.70873
vt -12.3725 5.59017
vn -1 -2.35316e-07 1.2749e-07
vt -11.5865 6.59213
vt -12.5463 5.77042
f 7/9/4 6/10/4 1/11/4

v -1.5944 3.21924 -2.23887
vt -11.4328 6.39468
f 8/12/4 6/10/4 7/9/4

v -1.5944 3.74624 -1.70992
vt -10.3748 7.44868
f 8/12/4 9/13/4 6/10/4

v -1.5944 3.64149 -1.64155
vt -10.2381 7.23919
f 10/14/4 9/13/4 8/12/4

v -1.5944 4.19002 -0.97167
vt -8.89835 8.33624
f 10/14/4 11/15/4 9/13/4

v -1.5944 4.08094 -0.910516
vt -8.77604 8.11807
f 12/16/4 11/15/4 10/14/4

v -1.5944 4.6474 -0.0945532
vt -7.14412 9.25099
f 12/16/4 13/17/4 11/15/4

v -1.5944 4.5351 -0.0395593
vt -7.03413 9.0264
f 14/18/4 13/17/4 12/16/4

v -1.5944 5.11645 0.927893
vt -5.09922 10.1891
f 14/18/4 15/19/4 13/17/4

v -1.5944 5.00172 0.977576
vt -4.99986 9.95964
f 16/20/4 15/19/4 14/18/4

v -1.5944 5.59527 2.10213
vt -2.75075 11.1467
f 16/20/4 17/21/4 15/19/4

v -1.5944 5.47865 2.14719
vt -2.66064 10.9135
f 18/22/4 17/21/4 16/20/4

v -1.5944 6.08195 3.43462
vt -0.0857674 12.1201
f 18/22/4 19/23/4 17/21/4

v -1.5944 5.96453 3.4775
vt 1.56747e-14 11.8853
f 19/23/4 18/22/4 20/24/4

vt 3.93728e-06 1.24493
vn 4.91866e-07 -0.932802 0.36039
v 1.4056 5.96453 3.4775
vt 6 4.07748
vn 4.91791e-07 -0.93931 0.34307
vt 1.22948e-07 4.07748
f 18/25/5 21/26/6 20/27/6

v 1.4056 5.47865 2.14719
vt 6 1.24494
f 21/26/6 18/25/5 22/28/5

vt 3.5885e-06 1.65711
v -1.32172 5.43031 2.02864
vt 0.545375 1.40107
vn 4.91773e-07 -0.925974 0.377586
vt 6 1.65712
f 18/29/5 23/30/7 22/31/5

vt 6.63728e-06 -0.869117
vn 4.9185e-07 -0.917658 0.397371
f 23/30/7 18/29/5 16/32/8

v -1.32172 5.00172 0.977576
vt 0.545378 -0.869117
f 23/30/7 16/32/8 24/33/8

vt 8.42594e-06 -2.62968
vn 4.91751e-07 -0.898091 0.439811
vt 0.545377 -0.39156
vt 6.02129e-06 -0.39156
f 14/34/9 24/35/8 16/36/8

v -1.32172 4.5351 -0.0395593
vt 0.545379 -2.62968
f 24/35/8 14/34/9 25/37/9

vt 9.47133e-06 -4.02809
vn 4.91461e-07 -0.872278 0.489011
vt 0.545379 -2.06357
vt 7.60838e-06 -2.06358
f 12/38/10 25/39/9 14/40/9

v -1.32172 4.08094 -0.910516
vt 0.54538 -4.02809
f 25/39/9 12/38/10 26/41/10

vt 9.91789e-06 -5.04506
vn 4.90767e-07 -0.837394 0.546599
vt 0.54538 -3.33916
vt 8.50596e-06 -3.33916
f 10/42/11 26/43/10 12/44/10

v -1.32172 3.64149 -1.64155
vt 0.545381 -5.04506
f 26/43/10 10/42/11 27/45/11

vt 9.89124e-06 -5.64441
vn 4.89247e-07 -0.788953 0.614454
vt 0.54538 -4.1814
vt 8.84975e-06 -4.1814
f 8/46/12 27/47/11 10/48/11

v -1.32172 3.40835 -1.97136
vt 0.54538 -4.98919
vn 4.89878e-07 -0.816573 0.577242
f 27/47/11 8/46/12 28/49/13

v 1.4056 3.21924 -2.23887
vt 6.00001 -5.6444
f 29/50/12 28/49/13 8/46/12

v 1.17828 3.40835 -1.97136
vt 5.54538 -4.98919
f 28/49/13 29/50/12 30/51/13

v 1.17828 3.64149 -1.64155
vt 5.54538 -4.1814
f 30/51/13 29/50/12 31/52/11

v 1.4056 3.64149 -1.64155
vt 6.00001 -4.1814
f 31/52/11 29/50/12 32/53/11

v 1.4056 3.74624 -1.70992
vt 10.3748 7.44868
vn 1 2.35316e-07 -1.2749e-07
vt 10.2381 7.23919
vt 11.4328 6.39468
f 33/54/14 32/55/14 29/56/14

v 1.4056 4.19002 -0.971671
vt 8.89835 8.33624
f 34/57/14 32/55/14 33/54/14

v 1.4056 4.08094 -0.910516
vt 8.77604 8.11807
f 34/57/14 35/58/14 32/55/14

v 1.4056 4.6474 -0.0945538
vt 7.14412 9.25099
f 36/59/14 35/58/14 34/57/14

v 1.4056 4.5351 -0.0395599
vt 7.03413 9.0264
f 36/59/14 37/60/14 35/58/14

v 1.4056 5.11645 0.927892
vt 5.09922 10.1891
f 38/61/14 37/60/14 36/59/14

v 1.4056 5.00172 0.977575
vt 4.99986 9.95964
f 38/61/14 39/62/14 37/60/14

v 1.4056 5.59527 2.10213
vt 2.75075 11.1467
f 40/63/14 39/62/14 38/61/14

vt 2.66064 10.9135
f 40/63/14 22/64/14 39/62/14

v 1.4056 6.08195 3.43462
vt 0.0857677 12.1201
f 41/65/14 22/64/14 40/63/14

vt 2.46758e-07 11.8853
f 22/64/14 41/65/14 21/66/14

vt -9.91445e-12 11.4139
vn -1.08581e-10 0.34307 0.93931
vt 6 11.164
vt 6 11.414
f 19/67/15 21/68/15 41/69/15

vt 1.22948e-07 11.1639
f 21/68/15 19/67/15 20/70/15

vt -6 4.07748
vn -4.91791e-07 0.93931 -0.34307
vt -3.94351e-06 1.24031
vn -4.91866e-07 0.932802 -0.36039
vt -1.22948e-07 4.07748
f 41/71/16 17/72/17 19/73/16

vt -6 1.24031
f 17/72/17 41/71/16 40/74/17

v -1.32172 5.56531 2.02864
vt -0.545375 1.50301
vn -4.91773e-07 0.925974 -0.377586
vt -3.58292e-06 1.66174
vt -6 1.66174
f 42/75/18 17/76/17 40/77/17

vt -6.64376e-06 -0.874484
vn -4.9185e-07 0.917658 -0.397371
f 17/76/17 42/75/18 15/78/19

v -1.32172 5.11645 0.927893
vt -0.545378 -0.874483
f 43/79/19 15/78/19 42/75/18

vt -0.545377 -0.386193
vt -8.43273e-06 -2.636
vn -4.91751e-07 0.898091 -0.439811
vt -6.01552e-06 -0.386194
f 43/80/19 13/81/20 15/82/19

v -1.32172 4.6474 -0.0945532
vt -0.54538 -2.636
f 13/81/20 43/80/19 44/83/20

vn 1 2.46499e-14 -1.44455e-14
f 43/61/21 25/60/21 44/59/21

f 43/61/21 24/62/21 25/60/21

vt 2.89772 10.8168
f 43/61/21 23/84/21 24/62/21

vt 2.89772 11.0868
f 23/84/21 43/61/21 42/85/21

vt -0.545371 11.0868
vn -2.84231e-15 2.63178e-13 -1
v 1.17828 5.43031 2.02864
vt -5.54537 10.8168
vt -0.545371 10.8168
f 42/86/22 45/87/22 23/88/22

v 1.17828 5.56531 2.02864
vt -5.54537 11.0868
f 45/87/22 42/86/22 46/89/22

vt -5.54537 1.50302
f 42/75/18 40/77/17 46/90/18

vt -6.00001 -0.874477
f 38/91/19 46/90/18 40/77/17

v 1.17828 5.11645 0.927892
vt -5.54538 -0.874477
f 46/90/18 38/91/19 47/92/19

vt -6.00001 -0.386187
v 1.17828 4.6474 -0.0945538
vt -5.54538 -2.636
vt -5.54538 -0.386188
f 38/93/19 48/94/20 47/95/19

vt -6.00001 -2.636
f 48/94/20 38/93/19 36/96/20

vt -6.00001 -2.05725
v 1.17828 4.19002 -0.971671
vt -5.54538 -4.03566
vn -4.91461e-07 0.872278 -0.489011
vt -5.54538 -2.05725
f 36/97/20 49/98/23 48/99/20

vt -6.00001 -4.03566
f 49/98/23 36/97/20 34/100/23

vt -6.00001 -3.33158
v 1.17828 3.74624 -1.70992
vt -5.54538 -5.05432
vn -4.90767e-07 0.837394 -0.546599
vt -5.54538 -3.33158
f 34/101/23 50/102/24 49/103/23

vt -6.00001 -5.05432
f 50/102/24 34/101/23 33/104/24

vt -6.00001 -5.656
vt -5.54538 -4.17213
vt -6.00001 -4.17213
f 5/105/3 50/106/24 33/107/24

v 1.17828 3.56143 -1.97136
vt -5.54538 -4.81246
vn -4.89878e-07 0.816573 -0.577242
f 5/105/3 51/108/25 50/106/24

v -1.32172 3.56143 -1.97136
vt -0.54538 -4.81246
f 5/105/3 52/109/25 51/108/25

vt -9.8995e-06 -5.656
f 6/110/3 52/109/25 5/105/3

v -1.32172 3.74624 -1.70992
vt -0.54538 -4.17213
f 6/110/3 53/111/24 52/109/25

vt -8.84316e-06 -4.17213
f 53/111/24 6/110/3 9/112/24

vt -9.92556e-06 -5.05432
v -1.32172 4.19002 -0.97167
vt -0.54538 -3.33159
vt -0.545381 -5.05432
f 9/113/24 54/114/23 53/115/24

vt -8.49969e-06 -3.33159
f 54/114/23 9/113/24 11/116/23

vt -9.47851e-06 -4.03566
vt -0.545379 -2.05725
vt -0.545381 -4.03566
f 11/117/23 44/118/20 54/119/23

vt -7.60239e-06 -2.05726
f 44/118/20 11/117/23 13/120/20

f 44/59/21 26/58/21 54/57/21

f 44/59/21 25/60/21 26/58/21

f 54/57/21 26/58/21 27/55/21

f 54/57/21 27/55/21 53/54/21

vt 10.8977 6.7729
f 53/54/21 27/55/21 28/121/21

vt 10.8977 7.07905
f 53/54/21 28/121/21 52/122/21

vt 5.54537 6.7729
vn 2.8422e-15 -4.64168e-14 1
vt 0.545371 7.07905
vt 0.545371 6.7729
f 30/123/26 52/124/26 28/125/26

vt 5.54537 7.07906
f 52/124/26 30/123/26 51/126/26

vt -10.8977 6.7729
vn -1 5.13536e-15 -3.64112e-15
vt -10.8977 7.07906
f 30/127/27 50/13/27 51/128/27

f 31/14/27 50/13/27 30/127/27

f 31/14/27 49/15/27 50/13/27

v 1.17828 4.08094 -0.910516
vt -8.77604 8.11808
f 55/129/27 49/15/27 31/14/27

vt -7.14412 9.251
f 55/129/27 48/130/27 49/15/27

v 1.17828 4.5351 -0.0395599
f 56/18/27 48/130/27 55/129/27

f 56/18/27 47/19/27 48/130/27

v 1.17828 5.00172 0.977575
f 57/20/27 47/19/27 56/18/27

vt -2.89772 10.8168
f 45/131/27 47/19/27 57/20/27

vt -2.89772 11.0868
f 47/19/27 45/131/27 46/132/27

vt 5.54537 1.40108
vt 5.54538 -0.869111
f 22/31/5 45/133/7 57/134/8

f 22/31/5 23/30/7 45/133/7

vt 6.00001 -0.86911
f 22/31/5 57/134/8 39/135/8

vt 5.54538 -0.391554
vt 6.00001 -2.62968
vt 6.00001 -0.391554
f 57/136/8 37/137/9 39/138/8

vt 5.54538 -2.62968
f 37/137/9 57/136/8 56/139/9

vt 5.54538 -2.06357
vt 6.00001 -4.02808
vt 6.00001 -2.06357
f 56/140/9 35/141/10 37/142/9

vt 5.54538 -4.02808
f 35/141/10 56/140/9 55/143/10

vt 5.54538 -3.33916
vt 6.00001 -5.04505
vt 6.00001 -3.33916
f 55/144/10 32/145/11 35/146/10

vt 5.54538 -5.04505
f 32/145/11 55/144/10 31/147/11

vt 11.5865 6.59213
f 33/54/14 29/56/14 5/148/14

v 1.4056 2.81698 -2.70873
vt 12.3725 5.59017
f 5/148/14 29/56/14 58/149/14

vt 6.00001 -4.526
vt 9.50276e-06 -5.76305
vn 4.86047e-07 -0.719726 0.694259
vt 6.00001 -5.76305
f 29/150/12 7/151/28 58/152/28

vt 8.75995e-06 -4.526
f 7/151/28 29/150/12 8/153/12

vt 8.3465e-06 -4.26678
v 1.4056 2.43807 -3.05754
vt 6.00001 -5.29682
vn 4.79442e-07 -0.618273 0.785964
vt 6.00001 -4.26678
f 7/154/28 59/155/29 58/156/28

v -1.5944 2.43807 -3.05754
vt 8.85471e-06 -5.29682
f 59/155/29 7/154/28 60/157/29

vt -13.0701 4.83234
f 7/9/4 1/11/4 60/158/4

vt -13.2672 4.98737
f 60/158/4 1/11/4 3/159/4

v -1.5944 2.08648 -3.29245
vt -13.5399 4.12917
f 60/158/4 3/159/4 61/160/4

v -1.5944 2.14531 -3.40348
vt -13.762 4.24682
f 61/160/4 3/159/4 62/161/4

vt -7.70796e-06 -3.22372
v 1.4056 2.14531 -3.40348
vt -6.00001 -4.11436
vn -4.66073e-07 0.468189 -0.883628
vt -8.05641e-06 -4.11436
f 3/162/2 63/163/30 62/164/30

vt -6.00001 -3.22372
f 63/163/30 3/162/2 2/165/2

vt 13.2672 4.98737
v 1.4056 2.08648 -3.29245
vt 13.5399 4.12917
vt 13.762 4.24682
f 2/166/14 64/167/14 63/168/14

vt 13.0701 4.83234
f 2/166/14 59/169/14 64/167/14

vt 12.5463 5.77042
f 4/170/14 59/169/14 2/166/14

f 4/170/14 58/149/14 59/169/14

f 5/148/14 58/149/14 4/170/14

vt 7.71556e-06 -3.24314
vt 6.00001 -4.08882
vn 4.66073e-07 -0.468189 0.883628
vt 6.00001 -3.24314
f 60/171/29 64/172/31 59/173/29

vt 8.04642e-06 -4.08883
f 64/172/31 60/171/29 61/174/31

vt 6.97682e-06 -1.26451
v 1.4056 1.76632 -3.42236
vt 6.00001 -1.95553
vn 4.40311e-07 -0.252876 0.967499
vt 6.00001 -1.26451
f 61/175/31 65/176/32 64/177/31

v -1.5944 1.76632 -3.42236
vt 7.18117e-06 -1.95553
f 65/176/32 61/175/31 66/178/32

vt -13.7997 3.48884
f 61/160/4 62/161/4 66/179/4

v -1.5944 1.7982 -3.54432
vt -14.0437 3.5526
f 66/179/4 62/161/4 67/180/4

vt -6.96927e-06 -1.23897
v 1.4056 1.7982 -3.54432
vt -6.00001 -1.98817
vn -4.40311e-07 0.252876 -0.967499
vt -7.19082e-06 -1.98817
f 62/181/30 68/182/33 67/183/33

vt -6.00001 -1.23897
f 68/182/33 62/181/30 63/184/30

vt 13.7997 3.48884
vt 14.0437 3.5526
f 63/168/14 65/185/14 68/186/14

f 63/168/14 64/167/14 65/185/14

v 1.4056 1.47942 -3.45866
vt 13.8723 2.91503
f 68/186/14 65/185/14 69/187/14

vt 6.24731e-06 1.7291
vt 6.00001 1.15072
vn 3.96035e-07 0.0257569 0.999668
vt 6.00001 1.7291
f 66/188/32 69/189/34 65/190/32

v -1.5944 1.47942 -3.45866
vt 6.36884e-06 1.15072
f 69/189/34 66/188/32 70/191/34

vt -13.8723 2.91503
f 66/179/4 67/180/4 70/192/4

v -1.5944 1.18111 -3.53218
vt -14.0194 2.31842
f 70/192/4 67/180/4 71/193/4

v -1.5944 1.47616 -3.58507
vt -14.1251 2.90852
f 71/193/4 67/180/4 72/194/4

vt -6.24045e-06 1.76174
v 1.4056 1.47616 -3.58507
vt -6.00001 1.11253
vn -3.96035e-07 -0.0257569 -0.999668
vt -6.37686e-06 1.11252
f 67/195/33 73/196/35 72/197/35

vt -6.00001 1.76174
f 73/196/35 67/195/33 68/198/33

v 1.4056 1.18111 -3.53218
vt 14.0194 2.31842
vt 14.1251 2.90852
f 68/186/14 74/199/14 73/200/14

f 68/186/14 69/187/14 74/199/14

v 1.4056 1.2222 -3.41255
vt 13.7801 2.40061
f 75/201/14 74/199/14 69/187/14

v 1.4056 0.91496 -3.39212
vt 13.7392 1.78612
f 75/201/14 76/202/14 74/199/14

v 1.4056 0.988144 -3.28938
vt 13.5338 1.93249
f 77/203/14 76/202/14 75/201/14

v 1.4056 0.679626 -3.17134
vt 13.2977 1.31545
f 77/203/14 78/204/14 76/202/14

v 1.4056 0.775011 -3.08943
vt 13.1339 1.50622
f 79/205/14 78/204/14 77/203/14

v 1.4056 0.47702 -2.87632
vt 12.7077 0.91024
f 79/205/14 80/206/14 78/204/14

v 1.4056 0.586027 -2.81425
vt 12.5835 1.12825
f 81/207/14 80/206/14 79/205/14

v 1.4056 0.309058 -2.51352
vt 11.982 0.574314
f 81/207/14 82/208/14 80/206/14

v 1.4056 0.425992 -2.46856
vt 11.8921 0.808183
f 83/209/14 82/208/14 81/207/14

v 1.4056 0.17765 -2.08938
vt 11.1338 0.3115
f 83/209/14 84/210/14 82/208/14

v 1.4056 0.299065 -2.05889
vt 11.0728 0.55433
f 85/211/14 84/210/14 83/209/14

v 1.4056 0.0847127 -1.61039
vt 10.1758 0.125624
f 85/211/14 86/212/14 84/210/14

v 1.4056 0.208524 -1.59225
vt 10.1395 0.373247
f 87/213/14 86/212/14 85/211/14

v 1.4056 0.032158 -1.08299
vt 9.121 0.0205149
f 87/213/14 88/214/14 86/212/14

v 1.4056 0.157046 -1.07566
vt 9.10633 0.270291
f 89/215/14 88/214/14 87/213/14

v 1.4056 0.0218999 -0.513659
vt 7.98233 -1.4119e-06
f 89/215/14 90/216/14 88/214/14

v 1.4056 0.1469 -0.512533
vt 7.98008 0.249999
f 91/217/14 90/216/14 89/215/14

v 1.4056 0.1469 2.59483
vt 1.76536 0.249999
f 92/218/14 90/216/14 91/217/14

v 1.4056 0.0218999 2.59483
vt 1.76536 -1.4119e-06
f 90/216/14 92/218/14 93/219/14

vt 6 0.25
vn 0 0 1
v -1.5944 0.0218999 2.59483
vt 2.46497e-06 0
vt 6 0
f 92/220/36 94/221/36 93/222/36

v -1.5944 0.1469 2.59483
vt 2.46497e-06 0.25
f 94/221/36 92/220/36 95/223/36

vt 6 1.76536
vn 0 1 -0
v -1.5944 0.1469 -0.512533
vt 2.46497e-06 7.98008
vn 1.39048e-09 0.999959 0.00900781
vt 2.46497e-06 1.76536
f 92/224/37 96/225/38 95/226/37

vt 6 7.98008
f 96/225/38 92/224/37 91/227/38

vt 6 9.10972
vn 1.51429e-08 0.998279 0.0586351
vt 3.6968e-06 7.98328
vt 6 7.98328
f 89/228/39 96/229/38 91/230/38

v -1.5944 0.157046 -1.07566
vt 3.52292e-06 9.10972
f 96/229/38 89/228/39 97/231/39

vt 6 10.1265
vn 4.1121e-08 0.989436 0.144971
vt 4.64089e-06 9.08825
vt 6 9.08825
f 87/232/40 97/233/39 89/234/39

v -1.5944 0.208524 -1.59225
vt 4.61726e-06 10.1265
f 97/233/39 87/232/40 98/235/40

vt 6 10.9757
vn 7.03974e-08 0.969883 0.243571
vt 4.71777e-06 10.025
vt 6 10.025
f 85/236/41 98/237/40 87/238/40

v -1.5944 0.299065 -2.05889
vt 4.7098e-06 10.9757
f 98/237/40 85/236/41 99/239/41

vt 6 11.5986
vn 1.04853e-07 0.933404 0.358827
vt 4.74579e-06 10.7408
vt 6 10.7408
f 83/240/42 99/241/41 85/242/41

v -1.5944 0.425992 -2.46856
vt 4.74049e-06 11.5986
f 99/241/41 83/240/42 100/243/42

vt 6 11.8931
vn 1.47009e-07 0.868972 0.494862
vt 4.77932e-06 11.1313
vt 6 11.1313
f 81/244/43 100/245/42 83/246/42

v -1.5944 0.586027 -2.81425
vt 4.77061e-06 11.8931
f 100/245/42 81/244/43 101/247/43

vt 6 11.6793
vn 1.99628e-07 0.758658 0.651489
vt 4.84757e-06 11.0117
vt 6 11.0117
f 79/248/44 101/249/43 81/250/43

v -1.5944 0.775011 -3.08943
vt 4.83115e-06 11.6793
f 101/249/43 79/248/44 102/251/44

vt 6 10.0845
v -1.5944 0.988144 -3.28938
vt 4.9604e-06 10.6689
vn 2.63603e-07 0.580185 0.814485
vt 4.98842e-06 10.0845
f 79/252/44 103/253/45 102/254/44

vt 6 10.669
f 103/253/45 79/252/44 77/255/45

vt 6.00001 8.01285
v -1.5944 1.2222 -3.41255
vt 5.21156e-06 8.54183
vn 3.3345e-07 0.324895 0.94575
vt 5.25648e-06 8.01285
f 77/256/45 104/257/46 103/258/45

vt 6.00001 8.54183
f 104/257/46 77/256/45 75/259/46

vt 6.00001 4.79435
vt 5.63753e-06 5.31698
vt 5.71008e-06 4.79435
f 75/260/46 70/261/34 104/262/46

vt 6.00001 5.31698
f 70/261/34 75/260/46 69/263/34

vt -13.7801 2.40061
f 71/193/4 104/264/4 70/192/4

v -1.5944 0.91496 -3.39211
vt -13.7392 1.78612
f 105/265/4 104/264/4 71/193/4

vt -13.5338 1.93249
f 105/265/4 103/266/4 104/264/4

v -1.5944 0.679626 -3.17134
vt -13.2977 1.31545
f 106/267/4 103/266/4 105/265/4

vt -13.1339 1.50622
f 106/267/4 102/268/4 103/266/4

v -1.5944 0.47702 -2.87632
vt -12.7077 0.910241
f 107/269/4 102/268/4 106/267/4

vt -12.5835 1.12825
f 107/269/4 101/270/4 102/268/4

v -1.5944 0.309057 -2.51352
vt -11.982 0.574315
f 108/271/4 101/270/4 107/269/4

vt -11.8921 0.808184
f 108/271/4 100/272/4 101/270/4

v -1.5944 0.17765 -2.08938
vt -11.1338 0.311501
f 109/273/4 100/272/4 108/271/4

vt -11.0728 0.554331
f 109/273/4 99/274/4 100/272/4

v -1.5944 0.0847127 -1.61039
vt -10.1758 0.125626
f 110/275/4 99/274/4 109/273/4

vt -10.1395 0.373248
f 110/275/4 98/276/4 99/274/4

v -1.5944 0.032158 -1.08299
vt -9.121 0.0205163
f 111/277/4 98/276/4 110/275/4

vt -9.10633 0.270293
f 111/277/4 97/278/4 98/276/4

v -1.5944 0.0218999 -0.513659
vt -7.98233 -8.19523e-13
f 112/279/4 97/278/4 111/277/4

vt -7.98008 0.25
f 112/279/4 96/280/4 97/278/4

vt -1.76536 -6.3301e-13
f 94/281/4 96/280/4 112/279/4

vt -1.76536 0.25
f 96/280/4 94/281/4 95/282/4

vt -6 7.98233
vn -1.39048e-09 -0.999959 -0.00900781
vt -2.46497e-06 1.76536
vn 0 -1 -0
vt -2.46497e-06 7.98233
f 90/283/47 94/284/48 112/285/47

vt -6 1.76536
f 94/284/48 90/283/47 93/286/48

vt -3.69715e-06 7.98103
vt -6 9.11989
vn -1.51429e-08 -0.998279 -0.0586351
vt -6 7.98103
f 112/287/47 88/288/49 90/289/47

vt -3.52135e-06 9.11989
f 88/288/49 112/287/47 111/290/49

vt -4.64112e-06 9.07808
vt -6 10.1381
vn -4.1121e-08 -0.989436 -0.144971
vt -6 9.07808
f 111/291/49 86/292/50 88/293/49

vt -4.617e-06 10.1381
f 86/292/50 111/291/49 110/294/50

vt -4.71786e-06 10.0134
vt -6 10.9893
vn -7.03974e-08 -0.969883 -0.243571
vt -6 10.0134
f 110/295/50 84/296/51 86/297/50

vt -4.70968e-06 10.9893
f 84/296/51 110/295/50 109/298/51

vt -4.74588e-06 10.7272
vt -6 11.6153
vn -1.04853e-07 -0.933404 -0.358827
vt -6 10.7272
f 109/299/51 82/300/52 84/301/51

vt -4.74039e-06 11.6153
f 82/300/52 109/299/51 108/302/52

vt -4.77951e-06 11.1146
vt -6 11.9142
vn -1.47009e-07 -0.868972 -0.494862
vt -6 11.1146
f 108/303/52 80/304/53 82/305/52

vt -4.77037e-06 11.9142
f 80/304/53 108/303/52 107/306/53

vt -4.84809e-06 10.9906
vt -6 11.7064
vn -1.99628e-07 -0.758658 -0.651489
vt -6 10.9906
f 107/307/53 78/308/54 80/309/53

vt -4.83049e-06 11.7064
f 78/308/54 107/307/53 106/310/54

vt -4.95878e-06 10.7028
vn -2.63603e-07 -0.580185 -0.814485
vt -6 10.0574
vt -4.98972e-06 10.0574
f 105/311/55 78/312/54 106/313/54

vt -6 10.7028
f 78/312/54 105/311/55 76/314/55

vt -5.20828e-06 8.58052
vn -3.3345e-07 -0.324895 -0.94575
vt -6.00001 7.97901
vt -5.25936e-06 7.97901
f 71/315/56 76/316/55 105/317/55

vt -6.00001 8.58052
f 76/316/55 71/315/56 74/318/56

vt -5.63223e-06 5.35517
vt -6.00001 4.75567
vt -5.71545e-06 4.75567
f 72/319/35 74/320/56 71/321/56

vt -6.00001 5.35517
f 74/320/56 72/319/35 73/322/35

