# Alias OBJ Model File
# Exported from SketchUp, (c) 2000-2012 Trimble Navigation Limited
# File units = inches

mtllib wall5.mtl

g Mesh1 Group1 Model

usemtl FrontColor
v 10.6637 6.29508 4.36625
vt 17.2632 16.1701
vn 0 0 1
v 10.1544 -6.70492 4.36625
vt 16.7539 3.17007
v 10.6637 -6.70492 4.36625
vt 17.2632 3.17007
f 1/1/1 2/2/1 3/3/1

v 10.1544 -1.47162 4.36625
vt 16.7539 8.40337
f 2/2/1 1/1/1 4/4/1

v 10.1544 -0.305377 4.36625
vt 16.7539 9.56962
f 4/4/1 1/1/1 5/5/1

v 10.1544 -0.104464 4.36625
vt 16.7539 9.77053
f 5/5/1 1/1/1 6/6/1

v 10.1544 1.06178 4.36625
vt 16.7539 10.9368
f 6/6/1 1/1/1 7/7/1

v 10.1544 6.29508 4.36625
vt 16.7539 16.1701
f 7/7/1 1/1/1 8/8/1

vt 17.2632 0
vn 0 1 -0
v 10.1544 6.29508 -4.21875
vt 16.7539 8.585
vt 16.7539 0
f 1/9/2 9/10/2 8/11/2

v 10.6637 6.29508 -4.21875
vt 17.2632 8.585
f 9/10/2 1/9/2 10/12/2

vt 0 16.1701
vn 1 0 -0
v 10.6637 -6.70492 -4.21875
vt 8.585 3.17007
vt 8.585 16.1701
f 1/13/3 11/14/3 10/15/3

vt 0 3.17007
f 11/14/3 1/13/3 3/16/3

vt -16.7539 0
vn 0 -1 -0
vt -17.2632 8.585
vt -17.2632 0
f 2/17/4 11/18/4 3/19/4

v 10.1544 -6.70492 -4.21875
vt -16.7539 8.585
f 11/18/4 2/17/4 12/20/4

vn -1 0 -0
v 10.1544 -1.47162 4.11375
vt -0.2525 8.40337
vt -8.585 3.17007
f 2/16/5 13/21/5 12/22/5

vt 0 8.40337
f 13/21/5 2/16/5 4/23/5

v 10.1544 -0.305377 4.11375
vt -0.2525 9.56962
f 4/23/5 14/24/5 13/21/5

vt 0 9.56962
f 14/24/5 4/23/5 5/25/5

usemtl Wood__Floor
v -2.47785 -6.86124 4.36625
vt 2.25685 0.742711
vn -0.0509612 -0.0327317 0.998164
vt 2.46739 0.832538
vt 2.46739 0.851976
f 15/26/6 4/27/1 5/28/1

v -1.91605 -7.73593 4.36625
vt 2.26621 0.728133
f 4/27/1 15/26/6 16/29/6

v -3.5328 -7.40874 4.2221
vt 2.8337 1.10354
vn -0.202934 -0.130342 0.970479
vt 2.86076 1.09807
vt 2.85144 1.11268
f 17/30/7 16/31/6 15/32/6

v -2.971 -8.28343 4.2221
vt 2.84302 1.08893
f 16/31/6 17/30/7 18/33/7

v -4.53072 -7.92664 3.79306
vt 3.93764 1.67226
vn -0.39722 -0.25513 0.881547
vt 3.96458 1.6662
vt 3.95567 1.68106
f 19/34/8 18/35/7 17/36/7

v -3.96892 -8.80132 3.79306
vt 3.94655 1.6574
f 18/35/7 19/34/8 20/37/8

v -5.38765 -8.37137 3.11055
vt 4.93503 1.91893
vn -0.572226 -0.367534 0.733127
vt 4.96116 1.91138
vt 4.95312 1.92673
f 21/38/9 20/39/8 19/40/8

v -4.82585 -9.24605 3.11055
vt 4.94307 1.90358
f 20/39/8 21/38/9 22/41/9

v -6.0452 -8.71262 2.22109
vt 5.75271 1.72262
vn -0.714365 -0.458828 0.528355
vt 5.77753 1.71284
vt 5.77096 1.72887
f 23/42/10 22/43/9 21/44/9

v -5.4834 -9.5873 2.22109
vt 5.75928 1.70659
f 22/43/9 23/42/10 24/45/10

v -6.45855 -8.92714 1.1853
vt 6.23253 1.02797
vn -0.808362 -0.519201 0.277453
vt 6.2554 1.01532
vt 6.251 1.03208
f 25/46/11 24/47/10 23/48/10

v -5.89675 -9.80182 1.1853
vt 6.23693 1.01121
f 24/47/10 25/46/11 26/49/11

v -6.59954 -9.00031 0.0737543
vt 6.15842 -0.0327703
vn -0.841396 -0.540419 -7.13495e-15
vt 6.17864 -0.0485824
vt 6.17708 -0.0313268
f 27/50/12 26/51/11 25/52/11

v -6.03774 -9.87499 0.0737543
vt 6.15999 -0.0500258
f 26/51/11 27/50/12 28/53/12

v -6.45855 -8.92714 -1.03779
vt 5.41002 -1.07976
vn -0.808362 -0.519201 -0.277453
vt 5.42711 -1.09846
vt 5.42868 -1.0812
f 29/54/13 28/55/12 27/56/12

v -5.89675 -9.80182 -1.03779
vt 5.40846 -1.09702
f 28/55/12 29/54/13 30/57/13

v -6.0452 -8.71262 -2.07359
vt 4.12344 -1.69069
vn -0.714365 -0.458828 -0.528355
vt 4.13752 -1.71155
vt 4.14192 -1.6948
f 31/58/14 30/59/13 29/60/13

v -5.4834 -9.5873 -2.07359
vt 4.11904 -1.70744
f 30/59/13 31/58/14 32/61/14

v -5.38765 -8.37137 -2.96304
vt 2.59837 -1.70273
vn -0.572226 -0.367534 -0.733127
vt 2.61005 -1.72501
vt 2.61662 -1.70898
f 33/62/15 32/63/14 31/64/14

v -4.82585 -9.24605 -2.96304
vt 2.5918 -1.71876
f 32/63/14 33/62/15 34/65/15

vt 1.09138 -1.23726
v -3.96892 -8.80132 -3.64555
vt 1.06525 -1.24481
vn -0.39722 -0.25513 -0.881547
vt 1.08334 -1.25261
f 33/66/15 35/67/16 34/68/15

v -4.53072 -7.92664 -3.64555
vt 1.07329 -1.22946
f 35/67/16 33/66/15 36/69/16

vt 5.8252 2.29063
vn -0.460639 0.887588 5.5706e-16
v -5.21415 -8.28132 -2.78296
vt 5.8282 2.29389
vt 5.81383 2.30673
f 33/70/17 37/71/17 36/72/17

v -5.83271 -8.60234 -1.94625
vt 5.84215 2.28228
f 33/70/17 38/73/17 37/71/17

vt 5.84003 2.27829
f 31/74/17 38/73/17 33/70/17

v -6.22154 -8.80414 -0.971875
vt 5.85839 2.27498
f 31/74/17 39/75/17 38/73/17

vt 5.85729 2.27053
f 29/76/17 39/75/17 31/74/17

v -6.35417 -8.87297 0.0737543
vt 5.87582 2.27249
f 39/75/17 29/76/17 40/77/17

vt 5.89434 2.27053
f 29/76/17 25/78/17 40/77/17

vt 5.87582 2.26788
f 25/78/17 29/76/17 27/79/17

v -6.22154 -8.80414 1.11938
vt 5.89324 2.27498
f 40/77/17 25/78/17 41/80/17

vt 5.9116 2.27829
f 41/80/17 25/78/17 23/81/17

v -5.83271 -8.60234 2.09375
vt 5.90948 2.28228
f 41/80/17 23/81/17 42/82/17

vt 5.92643 2.29063
f 42/82/17 23/81/17 21/83/17

v -5.21415 -8.28132 2.93047
vt 5.92343 2.29389
f 42/82/17 21/83/17 43/84/17

vt 5.9378 2.30673
f 43/84/17 21/83/17 19/85/17

v -4.40804 -7.86297 3.5725
vt 5.93413 2.30903
f 43/84/17 19/85/17 44/86/17

vt 5.94495 2.32546
f 44/86/17 19/85/17 17/87/17

v -3.4693 -7.37578 3.97609
vt 5.94085 2.32666
f 44/86/17 17/87/17 45/88/17

vt 5.94736 2.34527
f 45/88/17 17/87/17 15/89/17

v -2.46191 -6.85297 4.11375
vt 5.94315 2.34557
f 45/88/17 15/89/17 46/90/17

vt 5.94736 2.58248
f 46/90/17 15/89/17 5/91/17

vt 5.94315 2.58248
f 46/90/17 5/91/17 14/92/17

usemtl FrontColor
v 10.1544 -0.104464 4.11375
vt -0.2525 9.77053
f 5/25/5 47/93/5 14/24/5

vt 0 9.77053
f 47/93/5 5/25/5 6/94/5

v 10.1544 1.06178 4.11375
vt -0.2525 10.9368
f 6/94/5 48/95/5 47/93/5

vt 0 10.9368
f 48/95/5 6/94/5 7/96/5

usemtl Wood__Floor
vt 2.46739 0.874762
v -2.47785 6.4514 4.36625
vt 2.25685 0.964589
vn -0.0509612 0.0327317 0.998164
vt 2.46739 0.855324
f 7/97/1 49/98/18 6/99/1

v -1.91605 7.32609 4.36625
vt 2.26621 0.979167
f 49/98/18 7/97/1 50/100/18

usemtl FrontColor
v -1.90011 7.31781 4.11375
vt 0.2525 3.74851
vn 0.460639 0.887588 2.3249e-16
vt 2.36382e-15 3.76648
vt 8.45594e-15 -9.8327
f 51/101/19 50/102/19 7/103/19

v -2.9075 7.84063 3.97609
vt 0.39016 4.88349
f 52/104/19 50/102/19 51/101/19

v -2.971 7.87359 4.2221
vt 0.144159 4.95504
f 52/104/19 53/105/19 50/102/19

v -3.84624 8.32781 3.5725
vt 0.793757 5.94112
f 54/106/19 53/105/19 52/104/19

v -3.96892 8.39148 3.79306
vt 0.573199 6.07934
f 54/106/19 55/107/19 53/105/19

v -4.65235 8.74617 2.93047
vt 1.43579 6.84933
f 56/108/19 55/107/19 54/106/19

v -4.82585 8.83621 3.11055
vt 1.2557 7.0448
f 56/108/19 57/109/19 55/107/19

v -5.27091 9.06718 2.09375
vt 2.2725 7.54622
f 58/110/19 57/109/19 56/108/19

v -5.4834 9.17746 2.22109
vt 2.14516 7.78563
f 58/110/19 59/111/19 57/109/19

v -5.65974 9.26898 1.11938
vt 3.24687 7.98431
f 60/112/19 59/111/19 58/110/19

v -5.89675 9.39198 1.1853
vt 3.18096 8.25133
f 60/112/19 61/113/19 59/111/19

v -5.79237 9.33781 0.0737543
vt 4.2925 8.13373
f 61/113/19 60/112/19 62/114/19

usemtl Wood__Floor
vt -6.17822 1.49142
vn 0.808362 -0.519201 -0.277453
v -6.35417 8.46313 0.0737543
vt -6.15911 1.47552
vn 0.841396 -0.540419 3.77073e-15
vt -6.16067 1.49277
f 60/115/20 63/116/21 62/117/21

v -6.22154 8.3943 1.11938
vt -6.17666 1.47416
f 63/116/21 60/115/20 64/118/20

vt -6.25519 0.47028
vn 0.714365 -0.458828 -0.528355
vt -6.23341 0.457388
vt -6.23781 0.474146
f 58/119/22 64/120/20 60/121/20

v -5.83271 8.1925 2.09375
vt -6.25079 0.453521
f 64/120/20 58/119/22 65/122/22

vt -5.77742 -0.159894
vn 0.572226 -0.367534 -0.733127
vt -5.75368 -0.170041
vt -5.76025 -0.15401
f 56/123/23 65/124/22 58/125/22

v -5.21415 7.87148 2.93047
vt -5.77085 -0.175924
f 65/124/22 56/123/23 66/126/23

vt -4.96103 -0.289473
vn 0.39722 -0.25513 -0.881547
vt -4.93597 -0.29748
vt -4.94401 -0.282132
f 54/127/24 66/128/23 56/129/23

v -4.40804 7.45313 3.5725
vt -4.95299 -0.304822
f 66/128/23 54/127/24 67/130/24

vt -3.96433 0.00914511
vn 0.202934 -0.130342 -0.970479
vt -3.93846 0.00256251
vt -3.94737 0.0174211
f 52/131/25 67/132/24 54/133/24

v -3.4693 6.96594 3.97609
vt -3.95542 -0.00571349
f 67/132/24 52/131/25 68/134/25

vt -2.86059 0.605714
vn 0.0509612 -0.0327317 -0.998164
vt -2.83434 0.599837
vt -2.84365 0.614447
f 51/135/26 68/136/25 52/137/25

v -2.46191 6.44313 4.11375
vt -2.85128 0.591105
f 68/136/25 51/135/26 69/138/26

vt -2.46739 0.874762
vn 0 0 -1
vt -2.25711 0.964451
vt -2.26648 0.979029
f 48/139/27 69/140/26 51/141/26

vt -2.46739 0.855324
f 69/140/26 48/139/27 47/142/27

usemtl FrontColor
vt -8.585 16.1701
f 48/95/5 9/143/5 47/93/5

f 7/96/5 9/143/5 48/95/5

f 9/143/5 7/96/5 8/13/5

vt 0.2525 -9.8327
f 51/101/19 7/103/19 48/144/19

f 47/93/5 9/143/5 14/24/5

f 14/24/5 9/143/5 13/21/5

v 10.1544 1.06178 -3.96625
vt -8.3325 10.9368
f 13/21/5 9/143/5 70/145/5

v 10.1544 1.06178 -4.21875
vt -8.585 10.9368
f 70/145/5 9/143/5 71/146/5

usemtl Wood__Floor
vt -2.47587 0.961983
vn 3.99649e-15 -1.92382e-16 -1
vt -2.46739 0.961983
f 10/147/28 71/139/28 9/148/28

v 10.1544 -0.104464 -4.21875
f 10/147/28 72/142/28 71/139/28

v 10.1544 -0.305377 -4.21875
vt -2.46739 0.851976
f 10/147/28 73/149/28 72/142/28

v 10.1544 -1.47162 -4.21875
vt -2.46739 0.832538
f 10/147/28 74/150/28 73/149/28

vt -2.47587 0.745317
f 11/151/28 74/150/28 10/147/28

vt -2.46739 0.745317
f 74/150/28 11/151/28 12/152/28

usemtl FrontColor
v 10.1544 -1.47162 -3.96625
vt -8.3325 8.40337
vt -8.585 8.40337
f 12/22/5 75/153/5 74/154/5

f 12/22/5 13/21/5 75/153/5

f 75/153/5 13/21/5 70/145/5

v 10.1544 -0.104464 -3.96625
vt -8.3325 9.77053
f 75/153/5 70/145/5 76/155/5

v -2.46191 6.44313 -3.96625
vt 4.13763 16.3181
vn 0.0509612 -0.0327317 0.998164
f 70/7/1 77/156/29 76/6/1

v -1.90011 7.31781 -3.96625
vt 4.69943 17.1928
f 77/156/29 70/7/1 78/157/29

vt 8.585 -9.8327
vt 8.3325 3.74851
vt 8.3325 -9.8327
f 71/158/19 78/159/19 70/160/19

v -1.91605 7.32609 -4.21875
vt 8.585 3.76648
f 79/161/19 78/159/19 71/158/19

v -2.9075 7.84063 -3.82859
vt 8.19484 4.88349
f 79/161/19 80/162/19 78/159/19

v -2.971 7.87359 -4.07459
vt 8.44084 4.95504
f 81/163/19 80/162/19 79/161/19

v -3.84624 8.32781 -3.42499
vt 7.79124 5.94112
f 81/163/19 82/164/19 80/162/19

v -3.96892 8.39148 -3.64555
vt 8.0118 6.07934
f 83/165/19 82/164/19 81/163/19

v -4.65235 8.74617 -2.78296
vt 7.14921 6.84933
f 83/165/19 84/166/19 82/164/19

v -4.82585 8.83621 -2.96304
vt 7.3293 7.0448
f 85/167/19 84/166/19 83/165/19

v -5.27091 9.06718 -1.94625
vt 6.3125 7.54622
f 85/167/19 86/168/19 84/166/19

v -5.4834 9.17746 -2.07359
vt 6.43984 7.78563
f 87/169/19 86/168/19 85/167/19

v -5.65974 9.26898 -0.971875
vt 5.33813 7.98431
f 87/169/19 88/170/19 86/168/19

v -5.89675 9.39198 -1.03779
vt 5.40404 8.25133
f 89/171/19 88/170/19 87/169/19

f 89/171/19 62/114/19 88/170/19

f 89/171/19 61/113/19 62/114/19

v -6.03774 9.46515 0.0737543
vt 4.2925 8.41017
f 61/113/19 89/171/19 90/172/19

usemtl Wood__Floor
vt 5.40846 2.5394
vn -0.808362 0.519201 -0.277453
v -6.59954 8.59047 0.0737543
vt 5.42868 2.52359
vn -0.841396 0.540419 5.18651e-15
vt 5.42711 2.54084
f 89/173/30 91/174/31 90/175/31

v -6.45855 8.5173 -1.03779
vt 5.41002 2.52214
f 91/174/31 89/173/30 92/176/30

vt 4.11904 3.19261
vn -0.714365 0.458828 -0.528355
vt 4.14192 3.17996
vt 4.13752 3.19672
f 87/177/32 92/178/30 89/179/30

v -6.0452 8.30278 -2.07359
vt 4.12344 3.17585
f 92/178/30 87/177/32 93/180/32

vt 2.5918 3.27134
vn -0.572226 0.367534 -0.733127
vt 2.61662 3.26156
vt 2.61005 3.27759
f 85/181/33 93/182/32 87/183/32

v -5.38765 7.96153 -2.96304
vt 2.59837 3.25531
f 93/182/32 85/181/33 94/184/33

vt 1.06525 2.86641
vn -0.39722 0.25513 -0.881547
vt 1.09138 2.85886
vt 1.08334 2.87421
f 83/185/34 94/186/33 85/187/33

v -4.53072 7.5168 -3.64555
vt 1.07329 2.85106
f 94/186/33 83/185/34 95/188/34

vt -0.358101 2.17186
vn -0.202934 0.130342 -0.970479
vt -0.331166 2.1658
vt -0.340077 2.18066
f 81/189/35 95/190/34 83/191/34

v -3.5328 6.9989 -4.07459
vt -0.349189 2.15701
f 95/190/34 81/189/35 96/192/35

vt -1.66264 1.36947
vn -0.0509612 0.0327317 -0.998164
vt -1.63559 1.364
vt -1.6449 1.37861
f 79/193/36 96/194/35 81/195/35

v -2.47785 6.4514 -4.21875
vt -1.65333 1.35486
f 96/194/35 79/193/36 97/196/36

vt -2.25685 0.964589
vt -2.26621 0.979167
f 71/139/28 97/197/36 79/198/36

f 97/197/36 71/139/28 72/142/28

vt 5.80848 -1.55912
vn -0.460639 -0.887588 -2.86631e-17
vt 5.80427 -1.55882
vt 5.80427 -1.79603
f 77/199/37 97/200/37 72/201/37

v -3.4693 6.96594 -3.82859
vt 5.81078 -1.54021
f 98/202/37 97/200/37 77/199/37

vt 5.80668 -1.53902
f 98/202/37 96/203/37 97/200/37

v -4.40804 7.45313 -3.42499
vt 5.8175 -1.52258
f 99/204/37 96/203/37 98/202/37

vt 5.81383 -1.52028
f 99/204/37 95/205/37 96/203/37

v -5.21415 7.87148 -2.78296
vt 5.8282 -1.50744
f 100/206/37 95/205/37 99/204/37

vt 5.8252 -1.50419
f 100/206/37 94/207/37 95/205/37

v -5.83271 8.1925 -1.94625
vt 5.84215 -1.49583
f 101/208/37 94/207/37 100/206/37

vt 5.84003 -1.49184
f 101/208/37 93/209/37 94/207/37

v -6.22154 8.3943 -0.971875
vt 5.85839 -1.48853
f 102/210/37 93/209/37 101/208/37

vt 5.85729 -1.48408
f 102/210/37 92/211/37 93/209/37

vt 5.87582 -1.48604
f 63/212/37 92/211/37 102/210/37

v -6.45855 8.5173 1.1853
vt 5.89434 -1.48408
f 103/213/37 92/211/37 63/212/37

vt 5.87582 -1.48143
f 92/211/37 103/213/37 91/214/37

vt 6.17708 1.47371
vn -0.808362 0.519201 0.277453
vt 6.15999 1.49241
vt 6.15842 1.47515
f 103/215/38 90/216/31 91/217/31

vt 6.17864 1.49097
f 90/216/31 103/215/38 61/218/38

v -6.0452 8.30278 2.22109
vt 6.251 0.453086
vn -0.714365 0.458828 0.528355
vt 6.23693 0.473955
vt 6.23253 0.457197
f 104/219/39 61/220/38 103/221/38

vt 6.2554 0.469845
f 61/220/38 104/219/39 59/222/39

v -5.38765 7.96153 3.11055
vt 5.77096 -0.176293
vn -0.572226 0.367534 0.733127
vt 5.75928 -0.154008
vt 5.75271 -0.170038
f 105/223/40 59/224/39 104/225/39

vt 5.77753 -0.160262
f 59/224/39 105/223/40 57/226/40

vt 4.93503 -0.297325
vt 4.96116 -0.28978
vn -0.39722 0.25513 0.881547
vt 4.94307 -0.281977
f 105/227/40 55/228/41 57/229/40

v -4.53072 7.5168 3.79306
vt 4.95312 -0.305129
f 55/228/41 105/227/40 106/230/41

vt 5.92643 -1.50419
vt 5.92343 -1.50744
vt 5.9378 -1.52028
f 105/231/37 66/232/37 106/233/37

vt 5.90948 -1.49583
f 105/231/37 65/234/37 66/232/37

vt 5.9116 -1.49184
f 104/235/37 65/234/37 105/231/37

vt 5.89324 -1.48853
f 104/235/37 64/236/37 65/234/37

f 103/213/37 64/236/37 104/235/37

f 64/236/37 103/213/37 63/212/37

vt 5.93413 -1.52258
f 106/233/37 66/232/37 67/237/37

v -3.5328 6.9989 4.2221
vt 5.94495 -1.53902
f 106/233/37 67/237/37 107/238/37

vt 5.94085 -1.54021
f 107/238/37 67/237/37 68/239/37

vt 5.94736 -1.55882
f 107/238/37 68/239/37 49/240/37

vt 5.94315 -1.55912
f 49/240/37 68/239/37 69/241/37

vt 5.94736 -1.79603
f 49/240/37 69/241/37 6/242/37

vt 5.94315 -1.79603
f 6/242/37 69/241/37 47/243/37

vt 2.86076 0.605577
vt 2.8337 0.600112
vn -0.202934 0.130342 0.970479
vt 2.85144 0.590967
f 50/244/18 107/245/42 49/246/18

vt 2.84302 0.614721
f 107/245/42 50/244/18 53/247/42

vt 3.96458 0.00886658
vt 3.93764 0.00280569
vt 3.95567 -0.00599202
f 53/248/42 106/249/41 107/250/42

vt 3.94655 0.0176643
f 106/249/41 53/248/42 55/251/41

vt -5.41044 2.52259
vn 0.808362 -0.519201 0.277453
vt -5.42643 2.54121
vt -5.42799 2.52395
f 102/252/43 62/253/21 63/254/21

vt -5.40888 2.53985
f 62/253/21 102/252/43 88/255/43

vt -4.12365 3.17629
vn 0.714365 -0.458828 0.528355
vt -4.13663 3.19691
vt -4.14103 3.18015
f 101/256/44 88/257/43 102/258/43

vt -4.11925 3.19305
f 88/257/43 101/256/44 86/259/44

vt -2.59848 3.25567
vn 0.572226 -0.367534 0.733127
vt -2.60907 3.27759
vt -2.61565 3.26156
f 100/260/45 86/261/44 101/262/44

vt -2.5919 3.27171
f 86/261/44 100/260/45 84/263/45

vt -1.09044 2.85871
vt -1.06538 2.86672
vn 0.39722 -0.25513 0.881547
vt -1.0824 2.87406
f 100/264/45 82/265/46 84/266/45

vt -1.07342 2.85137
f 82/265/46 100/264/45 99/267/46

vt 0.331984 2.16556
vt 0.35785 2.17214
vn 0.202934 -0.130342 0.970479
vt 0.340895 2.18042
f 99/268/46 80/269/47 82/270/46

vt 0.348939 2.15728
f 80/269/47 99/268/46 98/271/47

vt 1.63622 1.36373
vt 1.66248 1.3696
vt 1.64554 1.37834
f 98/272/47 78/273/29 80/274/47

vt 1.65316 1.35499
f 78/273/29 98/272/47 77/275/29

vt 5.80848 -1.79603
f 77/199/37 72/201/37 76/276/37

usemtl FrontColor
vt -8.585 9.77053
v 10.1544 -0.305377 -3.96625
vt -8.3325 9.56962
f 72/277/5 108/278/5 76/155/5

vt -8.585 9.56962
f 108/278/5 72/277/5 73/279/5

usemtl Wood__Floor
vt 5.80427 2.58248
v -2.46191 -6.85297 -3.96625
vt 5.80848 2.34557
vt 5.80848 2.58248
f 73/280/17 109/281/17 108/282/17

v -2.47785 -6.86124 -4.21875
vt 5.80427 2.34527
f 110/283/17 109/281/17 73/280/17

v -3.4693 -7.37578 -3.82859
vt 5.81078 2.32666
f 110/283/17 111/284/17 109/281/17

v -3.5328 -7.40874 -4.07459
vt 5.80668 2.32546
f 112/285/17 111/284/17 110/283/17

v -4.40804 -7.86297 -3.42499
vt 5.8175 2.30903
f 112/285/17 113/286/17 111/284/17

f 36/72/17 113/286/17 112/285/17

f 36/72/17 37/71/17 113/286/17

vt -1.09044 -1.23711
vn 0.572226 0.367534 0.733127
v -3.84624 -8.73765 -3.42499
vt -1.06538 -1.24511
vn 0.39722 0.25513 0.881547
vt -1.07342 -1.22976
f 37/287/48 114/288/49 113/289/49

v -4.65235 -9.15601 -2.78296
vt -1.0824 -1.25245
f 114/288/49 37/287/48 115/290/48

vt -2.61565 -1.70898
vn 0.714365 0.458828 0.528355
vt -2.5919 -1.71913
vt -2.59848 -1.7031
f 38/291/50 115/292/48 37/293/48

v -5.27091 -9.47703 -1.94625
vt -2.60907 -1.72501
f 115/292/48 38/291/50 116/294/50

vt -4.14103 -1.69499
vn 0.808362 0.519201 0.277453
vt -4.11925 -1.70788
vt -4.12365 -1.69112
f 39/295/51 116/296/50 38/297/50

v -5.65974 -9.67882 -0.971875
vt -4.13663 -1.71175
f 116/296/50 39/295/51 117/298/51

vt -5.42799 -1.08157
vn 0.841396 0.540419 -1.12e-14
vt -5.40888 -1.09747
vt -5.41044 -1.08021
f 40/299/52 117/300/51 39/301/51

v -5.79237 -9.74765 0.0737543
vt -5.42643 -1.09882
f 117/300/51 40/299/52 118/302/52

vt -6.17666 -0.0317767
vn 0.808362 0.519201 -0.277453
vt -6.16067 -0.0503902
vt -6.15911 -0.0331346
f 41/303/53 118/304/52 40/305/52

v -5.65974 -9.67882 1.11938
vt -6.17822 -0.0490323
f 118/304/52 41/303/53 119/306/53

vt -6.25079 1.03164
vn 0.714365 0.458828 -0.528355
vt -6.23781 1.01102
vt -6.23341 1.02778
f 42/307/54 119/308/53 41/309/53

v -5.27091 -9.47703 2.09375
vt -6.25519 1.01489
f 119/308/53 42/307/54 120/310/54

vt -5.77085 1.7285
vn 0.572226 0.367534 -0.733127
vt -5.76025 1.70659
vt -5.75368 1.72262
f 43/311/55 120/312/54 42/313/54

v -4.65235 -9.15601 2.93047
vt -5.77742 1.71247
f 120/312/54 43/311/55 121/314/55

vt -4.93597 1.91908
v -3.84624 -8.73765 3.5725
vt -4.96103 1.91108
vn 0.39722 0.25513 -0.881547
vt -4.94401 1.90373
f 43/315/55 122/316/56 121/317/55

vt -4.95299 1.92642
f 122/316/56 43/315/55 44/318/56

vt -3.93846 1.67251
v -2.9075 -8.25047 3.97609
vt -3.96433 1.66592
vn 0.202934 0.130342 -0.970479
vt -3.94737 1.65765
f 44/319/56 123/320/57 122/321/56

vt -3.95542 1.68078
f 123/320/57 44/319/56 45/322/57

vt -2.83434 1.10381
v -1.90011 -7.72765 4.11375
vt -2.86059 1.09794
vn 0.0509612 0.0327317 -0.998164
vt -2.84365 1.0892
f 45/323/57 124/324/58 123/325/57

vt -2.85128 1.11255
f 124/324/58 45/323/57 46/326/58

vt -2.25711 0.742849
vt -2.26648 0.728271
f 46/327/58 13/150/27 124/328/58

f 13/150/27 46/327/58 14/149/27

usemtl FrontColor
vt -5.67736e-15 18.7415
vn 0.460639 -0.887588 -1.56095e-16
vt 0.2525 5.1603
vt 0.2525 18.7415
f 4/329/59 124/330/59 13/331/59

vt -1.58708e-15 5.14234
f 16/332/59 124/330/59 4/329/59

vt 0.39016 4.02533
f 16/332/59 123/333/59 124/330/59

vt 0.144159 3.95378
f 18/334/59 123/333/59 16/332/59

vt 0.793757 2.9677
f 18/334/59 122/335/59 123/333/59

vt 0.573199 2.82948
f 20/336/59 122/335/59 18/334/59

vt 1.43579 2.05949
f 20/336/59 121/337/59 122/335/59

vt 1.2557 1.86401
f 22/338/59 121/337/59 20/336/59

vt 2.2725 1.3626
f 22/338/59 120/339/59 121/337/59

vt 2.14516 1.12319
f 24/340/59 120/339/59 22/338/59

vt 3.24687 0.92451
f 24/340/59 119/341/59 120/339/59

vt 3.18096 0.657489
f 26/342/59 119/341/59 24/340/59

vt 4.2925 0.775088
f 119/341/59 26/342/59 118/343/59

vt 5.40404 0.657489
f 26/342/59 30/344/59 118/343/59

vt 4.2925 0.498647
f 30/344/59 26/342/59 28/345/59

vt 5.33813 0.92451
f 118/343/59 30/344/59 117/346/59

vt 6.43984 1.12319
f 117/346/59 30/344/59 32/347/59

vt 6.3125 1.3626
f 117/346/59 32/347/59 116/348/59

vt 7.3293 1.86401
f 116/348/59 32/347/59 34/349/59

vt 7.14921 2.05949
f 116/348/59 34/349/59 115/350/59

vt 8.0118 2.82948
f 115/350/59 34/349/59 35/351/59

vt 7.79124 2.9677
f 115/350/59 35/351/59 114/352/59

v -2.971 -8.28343 -4.07459
vt 8.44084 3.95378
f 114/352/59 35/351/59 125/353/59

usemtl Wood__Floor
vt -0.331166 -0.490735
vt -0.358101 -0.496795
vn -0.202934 -0.130342 -0.970479
vt -0.340077 -0.505593
f 36/354/16 125/355/60 35/356/16

vt -0.349189 -0.481937
f 125/355/60 36/354/16 112/357/60

vt -1.63559 0.33965
v -1.91605 -7.73593 -4.21875
vt -1.66264 0.334186
vn -0.0509612 -0.0327317 -0.998164
vt -1.6449 0.325041
f 112/358/60 126/359/61 125/360/60

vt -1.65333 0.348795
f 126/359/61 112/358/60 110/361/61

vt -2.25685 0.742711
vt -2.26621 0.728133
f 110/362/61 74/150/28 126/363/61

f 74/150/28 110/362/61 73/149/28

usemtl FrontColor
v -1.90011 -7.72765 -3.96625
vt 8.3325 5.1603
vt 8.585 5.14234
vt 8.585 18.7415
f 127/364/59 126/365/59 74/366/59

v -2.9075 -8.25047 -3.82859
vt 8.19484 4.02533
f 128/367/59 126/365/59 127/364/59

f 128/367/59 125/353/59 126/365/59

f 114/352/59 125/353/59 128/367/59

usemtl Wood__Floor
vt 0.35785 -0.497074
vn 0.202934 0.130342 0.970479
vt 0.331984 -0.490491
vt 0.340895 -0.50535
f 128/368/62 113/369/49 114/370/49

vt 0.348939 -0.482215
f 113/369/49 128/368/62 111/371/62

vt 1.66248 0.334048
vn 0.0509612 0.0327317 0.998164
vt 1.63622 0.339925
vt 1.64554 0.325316
f 127/372/63 111/373/62 128/374/62

vt 1.65316 0.348657
f 111/373/62 127/372/63 109/375/63

vt 2.25711 0.742849
vt 2.26648 0.728271
f 75/27/1 109/376/63 127/377/63

f 109/376/63 75/27/1 108/28/1

usemtl FrontColor
f 75/153/5 76/155/5 108/278/5

vt 8.3325 18.7415
f 127/364/59 74/366/59 75/378/59

