# Alias OBJ Model File
# Exported from SketchUp, (c) 2000-2012 Trimble Navigation Limited
# File units = inches

mtllib wall2.mtl

g Mesh1 Difference Model

usemtl Wood__Floor
v 5.866 -12.7142 -4.97452
vt -0.183181 0.0106994
vn 0 0 -1
v 10.4734 -12.3685 -4.97452
vt -0.259971 0.0164604
v 10.3314 -13.3562 -4.97452
vt -0.257605 0
f 1/1/1 2/2/1 3/3/1

v 2.28571 -12.0791 -4.97452
vt -0.12351 0.0212839
f 2/2/1 1/1/1 4/4/1

vt -0.158333 -0.178497
vn -0.158498 -0.987359 -1.70662e-16
v 2.28571 -12.0791 -3.97452
vt -0.141667 -0.117894
vn -0.201622 -0.979463 3.18311e-15
vt -0.158333 -0.117894
f 1/5/2 5/6/3 4/7/3

v 2.4734 -12.1124 -3.97452
vt -0.141667 -0.121071
vn -0.174652 -0.98463 -3.41279e-16
f 5/6/3 1/5/2 6/8/4

v 2.4734 -12.1124 4.02548
vt -0.00833333 -0.121071
f 6/8/4 1/5/2 7/9/4

v 5.866 -12.7142 5.02548
vt 0.00833333 -0.178497
f 8/10/2 7/9/4 1/5/2

v 2.28571 -12.0791 4.02548
vt -0.00833333 -0.117894
vn -0.201622 -0.979463 -6.44357e-17
f 8/10/2 9/11/5 7/9/4

v 2.28571 -12.0791 5.02548
vt 0.00833333 -0.117894
f 9/11/5 8/10/2 10/12/5

vt 0.183181 0.0106994
vn 0 0 1
v 10.4734 -12.3685 5.02548
vt 0.259971 0.0164604
vt 0.12351 0.0212839
f 8/13/6 11/14/6 10/15/6

v 10.3314 -13.3562 5.02548
vt 0.257605 0
f 11/14/6 8/13/6 12/16/6

vt 0.00833333 -0.179795
vt -0.158333 -0.254983
vn -0.142301 -0.989823 -0
vt 0.00833333 -0.254983
f 8/17/2 3/18/7 12/19/7

vt -0.158333 -0.179795
f 3/18/7 8/17/2 1/20/2

vt 0.158333 0.0366575
vn 0.989823 -0.142301 4.88411e-17
vt -0.00833333 0.0532871
vt -0.00833333 0.0366575
f 3/21/8 11/22/8 12/23/8

vt 0.158333 0.0532871
f 11/22/8 3/21/8 2/24/8

v 6.02417 -11.7289 -4.97452
vt 0.158333 -0.180067
vn 0.158498 0.987359 4.68169e-18
vt -0.00833333 -0.254983
vn 0.142301 0.989823 9.36213e-18
vt 0.158333 -0.254983
f 13/25/9 11/26/10 2/27/10

v 6.02417 -11.7289 5.02548
vt -0.00833333 -0.180067
f 11/26/10 13/25/9 14/28/9

v 2.48696 -11.1015 -4.97452
vt 0.158333 -0.118351
vn 0.201622 0.979463 2.55626e-18
vt -0.00833333 -0.178225
vt 0.158333 -0.178225
f 15/29/11 14/30/9 13/31/9

v 2.48696 -11.1015 5.02548
vt -0.00833333 -0.118351
f 14/30/9 15/29/11 16/32/11

vt 0.158333 -0.114925
v 2.4734 -11.0983 -3.97452
vt 0.141667 -0.114693
vn 0.228439 0.973558 5.11059e-18
vt -0.00833333 -0.114925
f 15/33/11 17/34/12 16/35/11

v -0.212156 -10.4681 -4.97452
vt 0.158333 -0.0687182
vn 0.275379 0.961336 1.08212e-15
f 18/36/13 17/34/12 15/33/11

v -0.212156 -10.4681 -3.97452
vt 0.141667 -0.0687182
f 17/34/12 18/36/13 19/37/13

vt 0.158333 -0.0620439
v -2.14714 -9.81077 -3.97452
vt 0.141667 -0.0279839
vn 0.407518 0.913197 1.08156e-15
vt 0.141667 -0.0620439
f 18/38/13 20/39/14 19/40/13

v -2.14714 -9.81077 -4.97452
vt 0.158333 -0.0279839
f 20/39/14 18/38/13 21/41/14

vt -0.0818788 0.0481336
v -4.04249 -9.8902 -4.97452
vt -0.0180399 0.0577659
vt -0.049629 0.0590897
f 18/42/1 22/43/1 21/44/1

v -2.55549 -10.7258 -4.97452
vt -0.0428232 0.0438387
f 18/42/1 23/45/1 22/43/1

vt -0.126864 0.0375781
f 15/46/1 23/45/1 18/42/1

v -0.487247 -11.4285 -4.97452
vt -0.077294 0.0321281
f 15/46/1 24/47/1 23/45/1

vt -0.185817 0.0271211
f 13/48/1 24/47/1 15/46/1

f 13/48/1 4/4/1 24/47/1

f 2/2/1 4/4/1 13/48/1

vt -0.158333 -0.115382
v -0.487247 -11.4285 -3.97452
vt -0.141667 -0.0679108
vn -0.275379 -0.961336 3.35521e-15
vt -0.158333 -0.0679108
f 4/49/3 25/50/15 24/51/15

vt -0.141667 -0.115382
f 25/50/15 4/49/3 5/52/3

usemtl okawara_512
vt 3.8998 0.99433
vt 3.90501 1.02158
vt 3.82277 1.0124
f 5/53/6 17/54/6 25/55/6

vt 3.90501 0.993405
f 17/54/6 5/53/6 6/56/6

vt 10.6187 0.993405
vn -1 0 -0
vt 10.3965 1.02158
vt 10.3965 0.993405
f 7/57/16 17/58/16 6/59/16

v 2.4734 -11.0983 4.02548
vt 10.6187 1.02158
f 17/58/16 7/57/16 26/60/16

vt -3.8998 0.99433
vt -3.90501 1.02158
vt -3.90501 0.993405
f 9/61/1 26/62/1 7/63/1

v -0.487247 -11.4285 4.02548
vt -3.82277 1.0124
f 26/62/1 9/61/1 27/64/1

usemtl Wood__Floor
vt -0.00833333 -0.115382
v -0.487247 -11.4285 5.02548
vt 0.00833333 -0.0679108
vn -0.275379 -0.961336 1.0507e-16
vt -0.00833333 -0.0679108
f 9/65/5 28/66/17 27/67/17

vt 0.00833333 -0.115382
f 28/66/17 9/65/5 10/68/5

vt 0.185817 0.0271211
vt 0.077294 0.0321281
f 10/15/6 14/69/6 28/70/6

f 10/15/6 11/14/6 14/69/6

vt 0.126864 0.0375781
f 28/70/6 14/69/6 16/71/6

v -2.55549 -10.7258 5.02548
vt 0.0428232 0.0438387
f 28/70/6 16/71/6 29/72/6

v -0.212156 -10.4681 5.02548
vt 0.0818788 0.0481336
f 29/72/6 16/71/6 30/73/6

v -0.212156 -10.4681 4.02548
vt 0.00833333 -0.0687182
vn 0.275379 0.961336 -1.077e-15
vt -0.00833333 -0.0687182
f 16/35/11 31/74/18 30/75/18

vt 0.00833333 -0.114693
f 31/74/18 16/35/11 26/76/12

f 26/76/12 16/35/11 17/34/12

usemtl okawara_512
v -2.5266 -10.7356 4.02548
vt -3.76612 1.03165
vt -3.83041 1.03908
f 26/62/1 32/77/1 31/78/1

f 26/62/1 27/64/1 32/77/1

usemtl Wood__Floor
vt 0.00833333 -0.0628513
vt -0.00833333 -0.0269542
vn -0.32167 -0.946852 -2.56394e-18
vt -0.00833333 -0.0628513
f 28/79/17 32/80/19 27/81/17

vt 0.00833333 -0.0264456
vn -0.407518 -0.913197 -1.28744e-18
f 29/82/20 32/80/19 28/79/17

v -2.5266 -10.7356 -3.97452
vt -0.141667 -0.0269542
f 32/80/19 29/82/20 33/83/19

vt -0.158333 -0.0264456
f 23/84/20 33/83/19 29/82/20

vt -0.158333 -0.0628513
f 33/83/19 23/84/20 24/85/15

vt -0.141667 -0.0628513
f 33/83/19 24/85/15 25/86/15

usemtl okawara_512
vt 3.76612 1.03165
f 25/55/6 17/54/6 33/87/6

vt 3.83041 1.03908
f 33/87/6 17/54/6 19/88/6

vt 3.77666 1.05734
f 33/87/6 19/88/6 20/89/6

v -2.5266 -9.59753 -3.97452
vt 3.76612 1.06326
f 33/87/6 20/89/6 34/90/6

usemtl Wood__Floor
vt 0.158333 -0.0143174
vt 0.141667 -0.00706286
vn 0.489901 0.871778 -2.65317e-18
vt 0.141667 -0.0143174
f 21/91/14 34/92/21 20/93/14

v -3.39194 -9.11125 -4.97452
vt 0.158333 0.00948074
vn 0.64101 0.767533 -1.34932e-18
f 35/94/22 34/92/21 21/91/14

v -2.5266 -9.59753 4.02548
vt 0.00833333 -0.00706286
f 34/92/21 35/94/22 36/95/21

v -3.39194 -9.11125 5.02548
vt -0.00833333 0.00948074
f 37/96/22 36/95/21 35/94/22

v -2.14714 -9.81077 5.02548
vt -0.00833333 -0.0143174
vn 0.407518 0.913197 -1.08423e-15
f 36/95/21 37/96/22 38/97/23

v -4.98208 -8.75443 5.02548
vt 0.00238015 0.0766955
vt 0.049629 0.0590897
vt 0.0288824 0.0707484
f 39/98/6 38/99/6 37/100/6

v -4.04249 -9.8902 5.02548
vt 0.0180399 0.0577659
f 40/101/6 38/99/6 39/98/6

f 40/101/6 30/73/6 38/99/6

f 29/72/6 30/73/6 40/101/6

vt 0.00833333 0.0125728
vn -0.64101 -0.767533 -0
vt -0.158333 -0.0158557
vt 0.00833333 -0.0158557
f 40/102/24 23/103/20 29/104/20

vt -0.158333 0.0125728
f 23/103/20 40/102/24 22/105/24

vt 0.00833333 0.0330105
v -4.98208 -8.75443 -4.97452
vt -0.158333 0.0575779
vn -0.922281 -0.38652 -0
vt -0.158333 0.0330105
f 40/106/24 41/107/25 22/108/24

vt 0.00833333 0.0575779
f 41/107/25 40/106/24 39/109/25

vt 0.00833333 0.0760487
v -5.12488 -7.36692 -4.97452
vt -0.158333 0.099296
vn -0.989832 0.142242 -0
vt -0.158333 0.0760487
f 39/110/25 42/111/26 41/112/25

v -5.12488 -7.36692 5.02548
vt 0.00833333 0.099296
f 42/111/26 39/110/25 43/113/26

v -4.0205 -8.35144 5.02548
vt 0.0184063 0.0834119
vt 0 0.0998206
f 39/98/6 44/114/6 43/115/6

f 39/98/6 37/100/6 44/114/6

vt 0.158333 0.0361025
vt -0.00833333 0.0525376
vn 0.922281 0.38652 -0
vt -0.00833333 0.0361025
f 35/116/22 44/117/27 37/118/22

v -4.0205 -8.35144 -4.97452
vt 0.158333 0.0525376
f 44/117/27 35/116/22 45/119/27

vt -0.0288824 0.0707484
vt -0.00238015 0.0766955
vt -0.0184063 0.0834119
f 35/120/1 41/121/1 45/122/1

f 21/44/1 41/121/1 35/120/1

f 21/44/1 22/43/1 41/121/1

f 45/122/1 41/121/1 42/115/1

v -4.10678 -7.51323 -4.97452
vt -0.0169685 0.0973822
f 45/122/1 42/115/1 46/123/1

v -3.72471 -6.57848 -4.97452
vt -0.0233362 0.112961
f 46/123/1 42/115/1 47/124/1

v -4.60107 -6.08538 -4.97452
vt -0.00873021 0.12118
f 47/124/1 42/115/1 48/125/1

vt 0.00833333 0.0924001
vt -0.158333 0.115474
vn -0.871516 0.490367 -0
vt -0.158333 0.0924001
f 43/126/26 48/127/28 42/128/26

v -4.60107 -6.08538 5.02548
vt 0.00833333 0.115474
f 48/127/28 43/126/26 49/129/28

v -3.72471 -6.57848 5.02548
vt 0.0233362 0.112961
vt 0.00873021 0.12118
f 43/115/6 50/130/6 49/131/6

v -4.10678 -7.51323 5.02548
vt 0.0169685 0.0973822
f 43/115/6 51/132/6 50/130/6

f 43/115/6 44/114/6 51/132/6

vt 0.158333 0.081089
vt -0.00833333 0.0951331
vn 0.989832 -0.142242 -0
vt -0.00833333 0.081089
f 45/133/27 51/134/29 44/135/27

vt 0.158333 0.0951331
f 51/134/29 45/133/27 46/136/29

vt 0.158333 0.096563
vt -0.00833333 0.113393
vn 0.871516 -0.490367 -0
vt -0.00833333 0.096563
f 46/137/29 50/138/30 51/139/29

vt 0.158333 0.113393
f 50/138/30 46/137/29 47/140/30

vt 0.158333 0.104688
v -2.94825 -5.52907 5.02548
vt -0.00833333 0.126445
vn 0.769653 -0.638463 -6.00226e-17
vt -0.00833333 0.104688
f 47/141/30 52/142/31 50/143/30

v -2.94825 -5.52907 -4.97452
vt 0.158333 0.126445
f 52/142/31 47/141/30 53/144/31

vt -0.0362772 0.130451
f 47/124/1 48/125/1 53/145/1

v -3.71738 -4.89104 -4.97452
vt -0.0234585 0.141085
f 53/145/1 48/125/1 54/146/1

vt 0.00833333 0.102606
vt -0.158333 0.127368
vn -0.769653 0.638463 -0
vt -0.158333 0.102606
f 49/147/28 54/148/32 48/149/28

v -3.71738 -4.89104 5.02548
vt 0.00833333 0.127368
f 54/148/32 49/147/28 55/150/32

vt 0.0362772 0.130451
vt 0.0234585 0.141085
f 49/131/6 52/151/6 55/152/6

f 49/131/6 50/130/6 52/151/6

v -1.85135 -4.34687 5.02548
vt 0.0545589 0.150155
f 55/152/6 52/151/6 56/153/6

vt -0.00833333 0.120303
v -2.5266 -5.07463 4.02548
vt 0.00833333 0.130635
vn 0.733056 -0.680169 -1.1986e-16
vt -0.00833333 0.147181
vn 0.718735 -0.695284 -1.00964e-14
f 52/154/31 57/155/33 56/156/34

vt 0.158333 0.120303
f 57/155/33 52/154/31 53/157/31

v -2.5266 -5.07463 -3.97452
vt 0.141667 0.130635
f 57/155/33 53/157/31 58/158/33

v -1.85135 -4.34687 -3.97452
vt 0.141667 0.147181
vn 0.718735 -0.695284 9.97653e-15
f 58/158/33 53/157/31 59/159/35

v -1.85135 -4.34687 -4.97452
vt 0.158333 0.147181
f 59/159/35 53/157/31 60/160/35

vt -0.0545589 0.150155
f 53/145/1 54/146/1 60/161/1

v -2.56877 -3.65313 -4.97452
vt -0.0426018 0.161717
f 60/161/1 54/146/1 61/162/1

vt 0.00833333 0.119379
vt -0.158333 0.147524
vn -0.718736 0.695283 -1.32801e-05
vt -0.158333 0.119379
f 55/163/32 61/164/36 54/165/32

v -2.56877 -3.65313 5.02548
vt 0.00833333 0.147524
f 61/164/36 55/163/32 62/166/36

vt 0.0426018 0.161717
f 55/152/6 56/153/6 62/167/6

v 1.00799 -1.51163 5.02548
vt 0.102215 0.197409
f 62/167/6 56/153/6 63/168/6

vt -0.00833333 0.144467
v 1.00799 -1.51163 4.02548
vt 0.00833333 0.211578
vn 0.713576 -0.700578 -1.00334e-14
vt -0.00833333 0.211578
f 56/169/34 64/170/37 63/171/37

v -1.85135 -4.34687 4.02548
vt 0.00833333 0.144467
f 64/170/37 56/169/34 65/172/34

vt 0.00833333 0.147181
f 65/173/34 56/156/34 57/155/33

usemtl okawara_512
v -2.5266 -3.61128 4.02548
vt -3.76612 1.22955
vt -3.78488 1.20911
vt -3.76612 1.1889
f 66/174/1 65/175/1 57/176/1

vt -3.8643 1.28787
f 65/175/1 66/174/1 64/177/1

v 0.296054 -0.812429 4.02548
vt -3.84453 1.30729
f 64/177/1 66/174/1 67/178/1

usemtl Wood__Floor
vt -0.00833497 0.145107
vn -0.704105 0.710096 -2.65545e-05
v 0.296054 -0.812429 5.02548
vt 0.00832993 0.211358
vn -0.713578 0.700576 -1.32784e-05
vt -0.00833674 0.211358
f 66/179/38 68/180/39 67/181/39

vt 0.00833173 0.144117
f 66/179/38 62/182/36 68/180/39

vt -0.158335 0.144113
f 62/182/36 66/179/38 61/183/36

v -2.5266 -3.61128 -3.97452
vt -0.141668 0.145104
f 69/184/38 61/183/36 66/179/38

v 0.296054 -0.812429 -4.97452
vt -0.158337 0.211354
f 61/183/36 69/184/38 70/185/39

v 0.296054 -0.812429 -3.97452
vt -0.14167 0.211354
f 70/185/39 69/184/38 71/186/39

usemtl okawara_512
vt 3.76612 1.22955
v 1.00799 -1.51163 -3.97452
vt 3.8643 1.28787
vt 3.84453 1.30729
f 69/187/6 72/188/6 71/189/6

vt 3.78488 1.20911
f 69/187/6 59/190/6 72/188/6

vt 3.76612 1.1889
f 59/190/6 69/187/6 58/191/6

vt -10.6187 1.22955
vn 1 0 -0
vt -10.3965 1.1889
vt -10.3965 1.22955
f 66/192/40 58/193/40 69/194/40

vt -10.6187 1.1889
f 58/193/40 66/192/40 57/195/40

usemtl Wood__Floor
vt 0.141667 0.144467
v -0.50795 -3.01377 -4.97452
vt 0.158333 0.17601
vn 0.704103 -0.710098 2.00686e-14
vt 0.141667 0.211578
vn 0.713576 -0.700578 1.0037e-14
f 59/196/35 73/197/41 72/198/42

vt 0.158333 0.144467
f 73/197/41 59/196/35 60/199/35

vt -0.0769489 0.172373
f 60/161/1 61/162/1 73/200/1

vt -0.090349 0.209062
f 73/200/1 61/162/1 70/201/1

v 1.00799 -1.51163 -4.97452
vt -0.102215 0.197409
f 73/200/1 70/201/1 74/202/1

v 2.62254 0.177662 -4.97452
vt -0.129124 0.225564
f 74/202/1 70/201/1 75/203/1

v 1.88415 0.849193 -4.97452
vt -0.116817 0.236756
f 75/203/1 70/201/1 76/204/1

vt -0.141667 0.21356
vt -0.158333 0.251868
vn -0.739806 0.67282 -5.13824e-15
vt -0.158333 0.21356
f 71/205/39 76/206/43 70/207/39

v 1.88415 0.849193 -3.97452
vt -0.141667 0.251868
f 76/206/43 71/205/39 77/208/43

usemtl okawara_512
v 2.4734 0.0216211 -3.97452
vt 3.90501 1.33046
vt 3.88864 1.35345
f 71/189/6 78/209/6 77/210/6

f 71/189/6 72/188/6 78/209/6

usemtl Wood__Floor
vt 0.158333 0.213334
vt 0.141667 0.248683
vn 0.722921 -0.690931 3.56864e-18
vt 0.141667 0.213334
f 74/211/42 78/212/44 72/213/42

vt 0.158333 0.25228
vn 0.739806 -0.67282 1.78486e-18
f 75/214/45 78/212/44 74/211/42

v 2.4734 0.0216211 4.02548
vt 0.00833333 0.248683
f 75/214/45 79/215/44 78/212/44

v 2.62254 0.177662 5.02548
vt -0.00833333 0.25228
f 80/216/45 79/215/44 75/214/45

vt 0.00833333 0.213334
f 80/216/45 64/217/37 79/215/44

vt -0.00833333 0.213334
f 64/217/37 80/216/45 63/218/37

vt 0.090349 0.209062
vt 0.129124 0.225564
f 68/219/6 63/168/6 80/220/6

f 62/167/6 63/168/6 68/219/6

v 1.88415 0.849193 5.02548
vt 0.116817 0.236756
f 68/219/6 80/220/6 81/221/6

v 4.26173 2.07224 5.02548
vt 0.156444 0.25714
f 81/221/6 80/220/6 82/222/6

vt 0.158333 0.255065
vt -0.00833333 0.296819
vn 0.77846 -0.627695 -0
vt -0.00833333 0.255065
f 75/223/45 82/224/46 80/225/45

v 4.26173 2.07224 -4.97452
vt 0.158333 0.296819
f 82/224/46 75/223/45 83/226/46

vt -0.156444 0.25714
f 75/203/1 76/204/1 83/227/1

v 3.48453 2.69892 -4.97452
vt -0.14349 0.267585
f 83/227/1 76/204/1 84/228/1

vt -0.141667 0.255477
vt -0.158333 0.296243
vn -0.77846 0.627695 -4.83708e-30
vt -0.158333 0.255477
f 77/229/43 84/230/47 76/231/43

v 2.4734 1.53025 -3.97452
vt -0.141667 0.270487
vn -0.756238 0.654297 -9.66836e-30
f 85/232/48 84/230/47 77/229/43

v 2.4734 1.53025 4.02548
vt -0.00833333 0.270487
f 86/233/48 84/230/47 85/232/48

v 3.48453 2.69892 5.02548
vt 0.00833333 0.296243
f 86/233/48 87/234/47 84/230/47

vt 0.00833333 0.255477
vn -0.739806 0.67282 5.13824e-15
f 87/234/47 86/233/48 81/235/49

v 1.88415 0.849193 4.02548
vt -0.00833333 0.255477
f 88/236/49 81/235/49 86/233/48

vt -0.00833333 0.251868
vt 0.00833333 0.21356
vt 0.00833333 0.251868
f 88/237/49 68/238/39 81/239/49

vt -0.00833333 0.21356
f 68/238/39 88/237/49 67/240/39

usemtl okawara_512
vt -3.90501 1.33046
vt -3.88864 1.35345
f 79/241/1 67/178/1 88/242/1

f 64/177/1 67/178/1 79/241/1

vt -3.90501 1.37237
f 79/241/1 88/242/1 86/243/1

vt 10.3965 1.37237
vt 10.6187 1.33046
vt 10.6187 1.37237
f 85/244/16 79/245/16 86/246/16

vt 10.3965 1.33046
f 79/245/16 85/244/16 78/247/16

vt 3.90501 1.37237
f 77/210/6 78/209/6 85/248/6

usemtl Wood__Floor
vt 0.14349 0.267585
f 81/221/6 82/222/6 87/249/6

v 5.85162 4.19023 5.02548
vt 0.182942 0.29244
f 87/249/6 82/222/6 89/250/6

vt 0.158333 0.299566
vt -0.00833333 0.343705
vn 0.825318 -0.564669 -0
vt -0.00833333 0.299566
f 83/251/46 89/252/50 82/253/46

v 5.85162 4.19023 -4.97452
vt 0.158333 0.343705
f 89/252/50 83/251/46 90/254/50

vt -0.182942 0.29244
f 83/227/1 84/228/1 90/255/1

v 5.02734 4.75419 -4.97452
vt -0.169204 0.301839
f 90/255/1 84/228/1 91/256/1

vt 0.00833333 0.300142
vt -0.158333 0.342974
vn -0.825318 0.564669 -0
vt -0.158333 0.300142
f 87/257/47 91/258/51 84/259/47

v 5.02734 4.75419 5.02548
vt 0.00833333 0.342974
f 91/258/51 87/257/47 92/260/51

vt 0.169204 0.301839
f 87/249/6 89/250/6 92/261/6

v 7.31826 6.54976 5.02548
vt 0.207386 0.331765
f 92/261/6 89/250/6 93/262/6

vt 0.158333 0.344946
vt -0.00833333 0.391249
vn 0.87579 -0.482691 -0
vt -0.00833333 0.344946
f 90/263/50 93/264/52 89/265/50

v 7.31826 6.54976 -4.97452
vt 0.158333 0.391249
f 93/264/52 90/263/50 94/266/52

vt -0.207386 0.331765
f 90/255/1 91/256/1 94/267/1

v 6.44322 7.03204 -4.97452
vt -0.192802 0.339803
f 94/267/1 91/256/1 95/268/1

vt 0.00833333 0.345676
vt -0.158333 0.390377
vn -0.87579 0.482691 -0
vt -0.158333 0.345676
f 92/269/51 95/270/53 91/271/51

v 6.44322 7.03204 5.02548
vt 0.00833333 0.390377
f 95/270/53 92/269/51 96/272/53

vt 0.192802 0.339803
f 92/261/6 93/262/6 96/273/6

v 8.58771 9.16895 5.02548
vt 0.228543 0.375418
f 96/273/6 93/262/6 97/274/6

vt 0.158333 0.388998
vt -0.00833333 0.437508
vn 0.924305 -0.381654 -0
vt -0.00833333 0.388998
f 94/275/52 97/276/54 93/277/52

v 8.58771 9.16895 -4.97452
vt 0.158333 0.437508
f 97/276/54 94/275/52 98/278/54

vt -0.228543 0.375418
f 94/267/1 95/268/1 98/279/1

v 7.66381 9.55043 -4.97452
vt -0.213145 0.381776
f 98/279/1 95/268/1 99/280/1

vt 0.00833333 0.38987
vt -0.158333 0.436514
vn -0.924305 0.381654 -0
vt -0.158333 0.38987
f 96/281/53 99/282/55 95/283/53

v 7.66381 9.55043 5.02548
vt 0.00833333 0.436514
f 99/282/55 96/281/53 100/284/55

vt 0.213145 0.381776
f 96/273/6 97/274/6 100/285/6

v 9.58602 12.0659 5.02548
vt 0.245182 0.423701
f 100/285/6 97/274/6 101/286/6

vt 0.158333 0.429395
vt -0.00833333 0.480464
vn 0.964612 -0.263674 -0
vt -0.00833333 0.429395
f 98/287/54 101/288/56 97/289/54

v 9.58602 12.0659 -4.97452
vt 0.158333 0.480464
f 101/288/56 98/287/54 102/290/56

vt -0.245182 0.423701
f 98/279/1 99/280/1 102/291/1

v 8.62151 12.3296 -4.97452
vt -0.229107 0.428095
f 102/291/1 99/280/1 103/292/1

vt 0.00833333 0.430389
vt -0.158333 0.479381
vn -0.964612 0.263674 -0
vt -0.158333 0.430389
f 100/293/55 103/294/57 99/295/55

v 8.62151 12.3296 5.02548
vt 0.00833333 0.479381
f 103/294/57 100/293/55 104/296/57

vt 0.229107 0.428095
f 100/285/6 101/286/6 104/297/6

v 10.2392 15.2588 5.02548
vt 0.256069 0.476916
f 104/297/6 101/286/6 105/298/6

vt 0.158333 0.464246
vt -0.00833333 0.518563
vn 0.991004 -0.133834 -0
vt -0.00833333 0.464246
f 102/299/56 105/300/58 101/301/56

v 10.2392 15.2588 -4.97452
vt 0.158333 0.518563
f 105/300/58 102/299/56 106/302/58

vt -0.256069 0.476916
f 102/291/1 103/292/1 106/303/1

v 9.24817 15.3926 -4.97452
vt -0.239551 0.479147
f 106/303/1 103/292/1 107/304/1

vt 0.00833333 0.465329
vt -0.158333 0.517437
vn -0.991004 0.133834 -0
vt -0.158333 0.465329
f 104/305/57 107/306/59 103/307/57

v 9.24817 15.3926 5.02548
vt 0.00833333 0.517437
f 107/306/59 104/305/57 108/308/59

vt 0.239551 0.479147
f 104/297/6 105/298/6 108/309/6

v 10.4734 18.7657 5.02548
vt 0.259971 0.535365
f 108/309/6 105/298/6 109/310/6

vt 0.158333 0.492917
vt -0.00833333 0.551496
vn 0.997778 -0.0666254 -0
vt -0.00833333 0.492917
f 106/311/58 109/312/60 105/313/58

v 10.4734 18.7657 -4.97452
vt 0.158333 0.551496
f 109/312/60 106/311/58 110/314/60

vt -0.259971 0.535365
f 106/303/1 107/304/1 110/315/1

v 9.47784 18.8322 -4.97452
vt -0.243379 0.536472
f 110/315/1 107/304/1 111/316/1

vt 0.00833333 0.494042
vt -0.158333 0.551496
vn -0.997778 0.0666254 -0
vt -0.158333 0.494042
f 108/317/59 111/318/61 107/319/59

v 9.47784 18.8322 5.02548
vt 0.00833333 0.551496
f 111/318/61 108/317/59 112/320/61

vt 0.243379 0.536472
f 108/309/6 109/310/6 112/321/6

vt -0.00833333 -0.223725
vn 0.0666254 0.997778 -0
vt 0.158333 -0.207095
vt -0.00833333 -0.207095
f 109/322/62 111/323/62 112/324/62

vt 0.158333 -0.223725
f 111/323/62 109/322/62 110/325/62

vt 0.158333 0.211578
f 72/198/42 73/197/41 74/326/42

vt -0.00833333 -0.0620439
v -2.14714 -9.81077 4.02548
vt 0.00833333 -0.0279839
vt -0.00833333 -0.0279839
f 30/327/18 113/328/23 38/329/23

vt 0.00833333 -0.0620439
f 113/328/23 30/327/18 31/330/18

usemtl okawara_512
vt -3.77666 1.05734
f 31/78/1 32/77/1 113/331/1

vt -3.76612 1.06326
f 113/331/1 32/77/1 36/332/1

vt -10.3965 1.03165
vt -10.6187 1.06326
vt -10.6187 1.03165
f 33/333/40 36/334/40 32/335/40

vt -10.3965 1.06326
f 36/334/40 33/333/40 34/336/40

usemtl Wood__Floor
vt 0.00833333 -0.0143174
f 36/95/21 38/97/23 113/337/23

