# Alias OBJ Model File
# Exported from SketchUp, (c) 2000-2012 Trimble Navigation Limited
# File units = inches

mtllib desk5.mtl

g Mesh1 Group1 Model

usemtl Wood__Floor
v 5.30845 -7.98462 4.5
vt 0 10.2713
vn -0.254493 0.967075 -0
v 5.25 -8 -4.5
vt -1 10.2108
v 5.25 -8 4.5
vt 0 10.2108
f 1/1/1 2/2/1 3/3/1

v 5.30845 -7.98462 -4.5
vt -1 10.2713
f 2/2/1 1/1/1 4/4/1

vt 0 -2.68706
vn -0.967075 -0.254493 -0
v 4.78323 -5.98878 -4.5
vt -1 -0.623264
vn -0.963319 -0.268357 -0
vt -1 -2.68706
f 1/5/2 5/6/3 4/7/2

v 4.78323 -5.98878 4.5
vt 0 -0.623264
f 5/6/3 1/5/2 6/8/3

vt -10.6169 0.0153821
vn 0 0 -1
v 4.725 -6.005 4.5
vt -10.0335 1.995
vt -10.0917 2.01122
f 1/9/4 7/10/4 6/11/4

vt -10.5585 2.22045e-16
f 7/10/4 1/9/4 3/12/4

vt 1 -2.68706
vn 0.967075 0.254493 -0
vt 0 -0.624133
vn 0.963319 0.268357 -0
f 2/13/5 7/14/6 3/5/5

v 4.725 -6.005 -4.5
vt 1 -0.624133
f 7/14/6 2/13/5 8/15/6

vt 10.6169 0.0153821
vn 0 0 1
vt 10.0335 1.995
vt 10.5585 2.22045e-16
f 4/16/7 8/17/7 2/18/7

vt 10.0917 2.01122
f 8/17/7 4/16/7 5/19/7

v 4.2 -4.22 -4.5
vt 9.50845 3.78
f 8/17/7 5/19/7 9/20/7

v 4.25768 -4.20191 -4.5
vt 9.56613 3.79809
f 9/20/7 5/19/7 10/21/7

vt 0 -0.918036
vt -1 0.944516
vn -0.954176 -0.299245 -0
vt -1 -0.918036
f 6/22/3 10/23/8 5/24/3

v 4.25768 -4.20191 4.5
vt 0 0.944516
f 10/23/8 6/22/3 11/25/8

v 4.2 -4.22 4.5
vt -9.50845 3.78
vt -9.56613 3.79809
f 6/11/4 12/26/4 11/27/4

f 6/11/4 7/10/4 12/26/4

vt 1 -0.917168
vt 0 0.943437
vn 0.954176 0.299245 -0
vt 0 -0.917168
f 8/28/6 12/29/9 7/30/6

vt 1 0.943437
f 12/29/9 8/28/6 9/31/9

vt 1 0.579186
v 3.675 -2.645 4.5
vt 0 2.23938
vn 0.941257 0.337691 -0
vt 0 0.579186
f 9/32/9 13/33/10 12/34/9

v 3.675 -2.645 -4.5
vt 1 2.23938
f 13/33/10 9/32/9 14/35/10

vt 8.98345 5.355
f 9/20/7 10/21/7 14/36/7

v 3.73191 -2.62458 -4.5
vt 9.04036 5.37542
f 14/36/7 10/21/7 15/37/7

vt 0 0.578107
vt -1 2.24076
vn -0.941257 -0.337691 -0
vt -1 0.578107
f 11/38/8 15/39/11 10/40/8

v 3.73191 -2.62458 4.5
vt 0 2.24076
f 15/39/11 11/38/8 16/41/11

vt -8.98345 5.355
vt -9.04036 5.37542
f 11/27/4 13/42/4 16/43/4

f 11/27/4 12/26/4 13/42/4

v 3.15 -1.28 4.5
vt -8.45845 6.72
f 16/43/4 13/42/4 17/44/4

vt 1 1.77319
vt 0 3.23568
vn 0.922264 0.386562 -0
vt 0 1.77319
f 14/45/10 17/46/12 13/47/10

v 3.15 -1.28 -4.5
vt 1 3.23568
f 17/46/12 14/45/10 18/48/12

vt 8.45845 6.72
f 14/36/7 15/37/7 18/49/7

v 3.20577 -1.25663 -4.5
vt 8.51422 6.74337
f 18/49/7 15/37/7 19/50/7

vt 0 1.77182
vt -1 3.23747
vn -0.922264 -0.386562 -0
vt -1 1.77182
f 16/51/11 19/52/13 15/53/11

v 3.20577 -1.25663 4.5
vt 0 3.23747
f 19/52/13 16/51/11 20/54/13

vt -8.51422 6.74337
f 16/43/4 17/44/4 20/55/4

v 2.625 -0.125 4.5
vt -7.93345 7.875
f 20/55/4 17/44/4 21/56/4

vt 1 2.61753
vt 0 3.88625
vn 0.892985 0.450087 -0
vt 0 2.61753
f 18/57/12 21/58/14 17/59/12

v 2.625 -0.125 -4.5
vt 1 3.88625
f 21/58/14 18/57/12 22/60/14

vt 7.93345 7.875
f 18/49/7 19/50/7 22/61/7

v 2.67902 -0.0977737 -4.5
vt 7.98747 7.90223
f 22/61/7 19/50/7 23/62/7

vt 0 2.61573
vt -1 3.88868
vn -0.892985 -0.450087 -0
vt -1 2.61573
f 20/63/13 23/64/15 19/65/13

v 2.67902 -0.0977737 4.5
vt 0 3.88868
f 23/64/15 20/63/13 24/66/15

vt -7.98747 7.90223
f 20/55/4 21/56/4 24/67/4

v 2.1 0.82 4.5
vt -7.40845 8.82
f 24/67/4 21/56/4 25/68/4

vt 1 3.03116
vt 0 4.1122
vn 0.845298 0.534295 -0
vt 0 3.03116
f 22/69/14 25/70/16 21/71/14

v 2.1 0.82 -4.5
vt 1 4.1122
f 25/70/16 22/69/14 26/72/16

vt 7.40845 8.82
f 22/61/7 23/62/7 26/73/7

v 2.15117 0.852346 -4.5
vt 7.45963 8.85235
f 26/73/7 23/62/7 27/74/7

vt 0 3.02873
vt -1 4.11563
vn -0.845298 -0.534295 -0
vt -1 3.02873
f 24/75/15 27/76/17 23/77/15

v 2.15117 0.852346 4.5
vt 0 4.11563
f 27/76/17 24/75/15 28/78/17

vt -7.45963 8.85235
f 24/67/4 25/68/4 28/79/4

v 1.575 1.555 4.5
vt -6.88345 9.555
f 28/79/4 25/68/4 29/80/4

vt 1 2.87105
vt 0 3.7743
vn 0.76302 0.646375 -0
vt 0 2.87105
f 26/81/16 29/82/18 25/83/16

v 1.575 1.555 -4.5
vt 1 3.7743
f 29/82/18 26/81/16 30/84/18

vt 6.88345 9.555
f 26/73/7 27/74/7 30/85/7

v 1.62128 1.5942 -4.5
vt 6.92973 9.5942
f 30/85/7 27/74/7 31/86/7

vt 0 2.86763
vt -1 3.7793
vn -0.76302 -0.646375 -0
vt -1 2.86763
f 28/87/17 31/88/19 27/89/17

v 1.62128 1.5942 4.5
vt 0 3.7793
f 31/88/19 28/87/17 32/90/19

vt -6.92973 9.5942
f 28/79/4 29/80/4 32/91/4

v 1.05 2.08 4.5
vt -6.35845 10.08
f 32/91/4 29/80/4 33/92/4

vt 1 1.88907
vt 0 2.63153
vn 0.615412 0.788205 -0
vt 0 1.88907
f 30/93/18 33/94/20 29/95/18

v 1.05 2.08 -4.5
vt 1 2.63153
f 33/94/20 30/93/18 34/96/20

vt 6.35845 10.08
f 30/85/7 31/86/7 34/97/7

v 1.08748 2.128 -4.5
vt 6.39593 10.128
f 34/97/7 31/86/7 35/98/7

vt -1 1.88407
v 1.08748 2.128 4.5
vt 0 2.63897
vn -0.615412 -0.788205 -0
vt -1 2.63897
f 31/99/19 36/100/21 35/101/21

vt 0 1.88407
f 36/100/21 31/99/19 32/102/19

vt -6.39593 10.128
f 32/91/4 33/92/4 36/103/4

v 0.525 2.395 4.5
vt -5.83345 10.395
f 36/103/4 33/92/4 37/104/4

vt 0 -0.26621
v 0.525 2.395 -4.5
vt 1 0.346039
vn 0.360597 0.932722 -0
vt 0 0.346039
f 33/105/20 38/106/22 37/107/22

vt 1 -0.26621
f 38/106/22 33/105/20 34/108/20

vt 5.83345 10.395
f 34/97/7 35/98/7 38/109/7

v 0.54712 2.45222 -4.5
vt 5.85557 10.4522
f 38/109/7 35/98/7 39/110/7

vt -1 -0.273651
v 0.54712 2.45222 4.5
vt 0 0.356509
vn -0.360597 -0.932722 -0
vt -1 0.356509
f 35/111/21 40/112/23 39/113/23

vt 0 -0.273651
f 40/112/23 35/111/21 36/114/21

vt -5.85557 10.4522
f 36/103/4 37/104/4 40/115/4

v 4.44089e-15 2.5 4.5
vt -5.30845 10.5
f 40/115/4 37/104/4 41/116/4

vt 0 -3.68154
v 4.44089e-15 2.5 -4.5
vt 1 -3.14615
vn 1.41526e-17 1 -0
vt 0 -3.14615
f 37/117/22 42/118/24 41/119/24

vt 1 -3.68154
f 42/118/24 37/117/22 38/120/22

vt 5.30845 10.5
f 38/109/7 39/110/7 42/121/7

v 4.44089e-15 2.56164 -4.5
vt 5.30845 10.5616
f 42/121/7 39/110/7 43/122/7

vt -1 -3.69201
v 4.44089e-15 2.56164 4.5
vt 0 -3.13406
vn 0 -1 -0
vt -1 -3.13406
f 39/123/23 44/124/25 43/125/25

vt 0 -3.69201
f 44/124/25 39/123/23 40/126/23

vt -5.30845 10.5616
f 40/115/4 41/116/4 44/127/4

v -0.54712 2.45222 4.5
vt -4.76133 10.4522
f 41/116/4 45/128/4 44/127/4

v -0.525 2.395 4.5
vt -4.78345 10.395
f 46/129/4 45/128/4 41/116/4

v -1.08748 2.128 4.5
vt -4.22097 10.128
f 46/129/4 47/130/4 45/128/4

v -1.05 2.08 4.5
vt -4.25845 10.08
f 48/131/4 47/130/4 46/129/4

v -1.62128 1.5942 4.5
vt -3.68718 9.5942
f 48/131/4 49/132/4 47/130/4

v -1.575 1.555 4.5
vt -3.73345 9.555
f 50/133/4 49/132/4 48/131/4

v -2.15117 0.852346 4.5
vt -3.15728 8.85235
f 50/133/4 51/134/4 49/132/4

v -2.1 0.82 4.5
vt -3.20845 8.82
f 52/135/4 51/134/4 50/133/4

v -2.67902 -0.0977737 4.5
vt -2.62943 7.90223
f 52/135/4 53/136/4 51/134/4

v -2.625 -0.125 4.5
vt -2.68345 7.875
f 54/137/4 53/136/4 52/135/4

v -3.20577 -1.25663 4.5
vt -2.10268 6.74337
f 54/137/4 55/138/4 53/136/4

v -3.15 -1.28 4.5
vt -2.15845 6.72
f 56/139/4 55/138/4 54/137/4

v -3.73191 -2.62458 4.5
vt -1.57655 5.37542
f 56/139/4 57/140/4 55/138/4

v -3.675 -2.645 4.5
vt -1.63345 5.355
f 58/141/4 57/140/4 56/139/4

v -4.25768 -4.20191 4.5
vt -1.05077 3.79809
f 58/141/4 59/142/4 57/140/4

v -4.2 -4.22 4.5
vt -1.10845 3.78
f 60/143/4 59/142/4 58/141/4

v -4.78323 -5.98878 4.5
vt -0.525221 2.01122
f 60/143/4 61/144/4 59/142/4

v -4.725 -6.005 4.5
vt -0.583452 1.995
f 62/145/4 61/144/4 60/143/4

v -5.30845 -7.98462 4.5
vt 0 0.0153821
f 62/145/4 63/146/4 61/144/4

v -5.25 -8 4.5
vt -0.0584521 2.22045e-16
f 63/146/4 62/145/4 64/147/4

v -4.725 -6.005 -4.5
vt -1 2.0778
vn -0.963319 0.268357 -8.08187e-15
vt -5.70391e-17 0.0148757
vn -0.967075 0.254493 -8.49328e-15
vt -5.69349e-16 2.0778
f 65/148/26 64/149/27 62/150/26

v -5.25 -8 -4.5
vt -1 0.0148757
f 64/149/27 65/148/26 66/151/27

vt 0.583452 1.995
v -5.30845 -7.98462 -4.5
vt 0.0584521 0
f 65/152/7 67/146/7 66/153/7

v -4.78323 -5.98878 -4.5
vt 0.525221 2.01122
f 67/146/7 65/152/7 68/154/7

v -4.2 -4.22 -4.5
vt 1.10845 3.78
f 68/154/7 65/152/7 69/155/7

vt -5.1821e-16 2.07856
vt -1 3.93917
vn -0.954176 0.299245 -6.36321e-15
vt -1 2.07856
f 62/156/26 69/157/28 65/158/26

vt -9.84503e-16 3.93917
f 69/157/28 62/156/26 60/159/28

vt -6.56335e-16 3.93655
v -3.675 -2.645 -4.5
vt -1 5.59674
vn -0.941257 0.337691 -4.39413e-15
vt -1 3.93655
f 60/160/28 70/161/29 69/162/28

vt -9.67198e-16 5.59674
f 70/161/29 60/160/28 58/163/29

vt -7.25398e-16 5.58444
v -3.15 -1.28 -4.5
vt -1 7.04692
vn -0.922264 0.386562 -3.68611e-15
vt -1 5.58444
f 58/164/29 71/165/30 70/166/29

vt -9.58545e-16 7.04692
f 71/165/30 58/164/29 56/167/30

vt -9.58545e-16 7.01084
v -2.625 -0.125 -4.5
vt -1 8.27956
vn -0.892985 0.450087 -3.56908e-15
vt -1 7.01084
f 56/168/30 72/169/31 71/170/30

vt -1.19169e-15 8.27956
f 72/169/31 56/168/30 54/171/31

vt -1.19169e-15 8.18719
v -2.1 0.82 -4.5
vt -1 9.26823
vn -0.845298 0.534295 -2.9713e-15
vt -1 8.18719
f 54/172/31 73/173/32 72/174/31

vt -1.42484e-15 9.26823
f 73/173/32 54/172/31 52/175/32

vt -1.06863e-15 9.042
v -1.575 1.555 -4.5
vt -1 9.94525
vn -0.76302 0.646375 -1.57827e-15
vt -1 9.042
f 52/176/32 74/177/33 73/178/32

vt -1.24349e-15 9.94525
f 74/177/33 52/176/32 50/179/33

vt -4.14496e-16 9.39635
v -1.05 2.08 -4.5
vt -1 10.1388
vn -0.615412 0.788205 -3.55938e-16
vt -1 9.39635
f 50/180/33 75/181/34 74/182/33

vt -4.72783e-16 10.1388
f 75/181/34 50/180/33 48/183/34

vt 0 9.44996
vn -0.360597 0.932722 -0
vt -1 8.83771
vt 0 8.83771
f 46/184/35 75/185/34 48/186/34

v -0.525 2.395 -4.5
vt -1 9.44996
f 75/185/34 46/184/35 76/187/35

vt 0 7.26458
vt -1 6.72919
vt 0 6.72919
f 41/188/24 76/189/35 46/190/35

vt -1 7.26458
f 76/189/35 41/188/24 42/191/24

v -0.54712 2.45222 -4.5
vt 4.76133 10.4522
vt 4.78345 10.395
f 77/192/7 76/193/7 42/121/7

v -1.08748 2.128 -4.5
vt 4.22097 10.128
f 78/194/7 76/193/7 77/192/7

vt 4.25845 10.08
f 78/194/7 75/195/7 76/193/7

v -1.62128 1.5942 -4.5
vt 3.68718 9.5942
f 79/196/7 75/195/7 78/194/7

vt 3.73345 9.555
f 79/196/7 74/197/7 75/195/7

v -2.15117 0.852346 -4.5
vt 3.15728 8.85235
f 80/198/7 74/197/7 79/196/7

vt 3.20845 8.82
f 80/198/7 73/199/7 74/197/7

v -2.67902 -0.0977737 -4.5
vt 2.62943 7.90223
f 81/200/7 73/199/7 80/198/7

vt 2.68345 7.875
f 81/200/7 72/201/7 73/199/7

v -3.20577 -1.25663 -4.5
vt 2.10268 6.74337
f 82/202/7 72/201/7 81/200/7

vt 2.15845 6.72
f 82/202/7 71/203/7 72/201/7

v -3.73191 -2.62458 -4.5
vt 1.57655 5.37542
f 83/204/7 71/203/7 82/202/7

vt 1.63345 5.355
f 83/204/7 70/205/7 71/203/7

v -4.25768 -4.20191 -4.5
vt 1.05077 3.79809
f 84/206/7 70/205/7 83/204/7

f 84/206/7 69/155/7 70/205/7

f 68/154/7 69/155/7 84/206/7

vt 0 3.94025
vn 0.954176 -0.299245 -0
vt 1 2.0777
vn 0.963319 -0.268357 -0
vt 1 3.94025
f 59/207/36 68/208/37 84/209/36

vt 0 2.0777
f 68/208/37 59/207/36 61/210/37

vt 0 2.07867
vt 1 0.0148757
vn 0.967075 -0.254493 -0
vt 1 2.07867
f 61/211/37 67/212/38 68/213/37

vt 0 0.0148757
f 67/212/38 61/211/37 63/214/38

vt 1.2979e-18 -0.0565275
vn 0.254493 0.967075 5.0858e-17
vt 1 0.00391465
vt 0 0.00391465
f 64/215/39 67/216/39 63/217/39

vt 1 -0.0565275
f 67/216/39 64/215/39 66/218/39

vt 1 3.93547
vt 0 5.59811
vn 0.941257 -0.337691 -0
vt 0 3.93547
f 84/219/36 57/220/40 59/221/36

vt 1 5.59811
f 57/220/40 84/219/36 83/222/40

vt 1 5.58307
vt 0 7.04872
vn 0.922264 -0.386562 -0
vt 0 5.58307
f 83/223/40 55/224/41 57/225/40

vt 1 7.04872
f 55/224/41 83/223/40 82/226/41

vt 1 7.00904
vt 0 8.28199
vn 0.892985 -0.450087 -0
vt 0 7.00904
f 82/227/41 53/228/42 55/229/41

vt 1 8.28199
f 53/228/42 82/227/41 81/230/42

vt 1 8.18475
vt 0 9.27165
vn 0.845298 -0.534295 -0
vt 0 8.18475
f 81/231/42 51/232/43 53/233/42

vt 1 9.27165
f 51/232/43 81/231/42 80/234/43

vt 1 9.03858
vt 0 9.95025
vn 0.76302 -0.646375 -0
vt 0 9.03858
f 80/235/43 49/236/44 51/237/43

vt 1 9.95025
f 49/236/44 80/235/43 79/238/44

vt 1 9.39135
vt 0 10.1463
vn 0.615412 -0.788205 -0
vt 0 9.39135
f 79/239/44 47/240/45 49/241/44

vt 1 10.1463
f 47/240/45 79/239/44 78/242/45

vt 1 9.46043
vn 0.360597 -0.932722 -0
vt 0 8.83027
vt 1 8.83027
f 77/243/46 47/244/45 78/245/45

vt 0 9.46043
f 47/244/45 77/243/46 45/246/46

vt 1 7.27667
vt 0 6.71872
vt 1 6.71872
f 43/247/25 45/248/46 77/249/46

vt 0 7.27667
f 45/248/46 43/247/25 44/250/25

f 77/192/7 42/121/7 43/122/7

