# Alias OBJ Model File
# Exported from SketchUp, (c) 2000-2012 Trimble Navigation Limited
# File units = inches

mtllib box.mtl

g Mesh1 Group1 Model

usemtl _6
v -0.0389742 -21.1258 -4.14836
vt -5 8
vn -1.11022e-16 -1 -0
v -5.03897 -21.1258 3.85164
vt 0 0
v -5.03897 -21.1258 -4.14836
vt 0 8
f 1/1/1 2/2/1 3/3/1

v -0.0389742 -21.1258 3.85164
vt -5 0
f 2/2/1 1/1/1 4/4/1

vt 8 5.55112e-16
vn 1 -1.11022e-16 -0
v -0.0389742 20.8742 3.85164
vt 0 42
vt 0 5.55112e-16
f 1/5/2 5/6/2 4/7/2

v -0.0389742 20.8742 -4.14836
vt 8 42
f 5/6/2 1/5/2 6/8/2

vn 0 0 -1
v -5.03897 20.8742 -4.14836
vt -5.32907e-15 42
vt -5 42
f 1/4/3 7/9/3 6/10/3

f 7/9/3 1/4/3 3/2/3

vn -1 1.11022e-16 -0
vt -8 42
vt -8 0
f 2/2/4 7/11/4 3/12/4

v -5.03897 20.8742 3.85164
f 7/11/4 2/2/4 8/6/4

vn 0 0 1
vt 5 42
vt 5.32907e-15 42
f 2/2/5 5/13/5 8/14/5

vt 5 0
f 5/13/5 2/2/5 4/15/5

vn 1.11022e-16 1 -0
vt 6.66134e-16 8
vt 6.66134e-16 0
f 5/15/6 7/16/6 8/17/6

vt 5 8
f 7/16/6 5/15/6 6/18/6

