# Alias OBJ Model File
# Exported from SketchUp, (c) 2000-2012 Trimble Navigation Limited
# File units = inches

mtllib desk4.mtl

g Mesh1 Group1 Model

usemtl Wood__Floor
v 5.64775 5.77266 3.8637
vt 0 13.9958
vn -0.177174 -0.188671 -0.965926
v 5.66802 4.33342 4
vt -1 12.9516
vn -0.0447715 -0.0476768 -0.997859
v 4.93905 5.01797 4
vt 0 12.9516
f 1/1/1 2/2/2 3/3/2

v 6.37671 5.08811 3.8637
vt -1 13.9958
f 2/2/2 1/1/1 4/4/1

v 6.30815 6.47591 3.4641
vt 0 14.1871
vn -0.342274 -0.364484 -0.866025
vt -1 13.1429
vt 0 13.1429
f 5/5/3 4/6/1 1/7/1

v 7.03711 5.79136 3.4641
vt -1 14.1871
f 4/6/1 5/5/3 6/8/3

v 6.87524 7.07981 2.82843
vt -1.41114e-14 13.4471
vn -0.484048 -0.515459 -0.707107
vt -1 12.4029
vt 5.49895e-17 12.4029
f 7/9/4 6/10/3 5/11/3

v 7.60421 6.39526 2.82843
vt -1 13.4471
f 6/10/3 7/9/4 8/12/4

vt -1.43405e-14 10.7821
v 8.03936 6.85865 2
vt -1 11.8263
vn -0.592835 -0.631305 -0.5
vt -1 10.7821
f 7/13/4 9/14/5 8/15/4

v 7.31039 7.54319 2
vt 2.82165e-14 11.8263
f 9/14/5 7/13/4 10/16/5

vt -1.42157 15.8589
vn -0.728969 0.684547 -0
v 7.45988 7.70238 2.12608
vt -2.12392 16.713
vt -2.25 16.4946
f 7/17/6 11/18/6 10/19/6

v 6.9973 7.20978 3.00673
vt -1.24327 16.0372
f 7/17/6 12/20/6 11/18/6

vt -0.785898 15.0305
f 5/21/6 12/20/6 7/17/6

v 6.39445 6.56782 3.68248
vt -0.567524 15.1566
f 5/21/6 13/22/6 12/20/6

vt -0.386297 14.0658
f 1/23/6 13/22/6 5/21/6

v 5.69242 5.82023 4.10727
vt -0.142732 14.131
f 1/23/6 14/24/6 13/22/6

vt -0.25 13.0305
f 14/24/6 1/23/6 3/25/6

v -7.2758 -7.98952 4
vt -0.25 -4.81322
f 15/26/6 14/24/6 3/25/6

v -7.2758 -7.98952 4.25
vt 0 -4.81322
f 16/27/6 14/24/6 15/26/6

v 4.95027 5.02992 4.25
vt 0 13.0469
f 14/24/6 16/27/6 17/28/6

v -5.91187 -7.99791 4.25
vt 1 -3.88566
vn 0 0 1
vt -1.42109e-14 13.0469
vn 0.0447715 0.0476768 0.997859
f 18/29/7 17/30/8 16/27/7

v 5.67924 4.34537 4.25
vt 1 13.0469
f 17/30/8 18/29/7 19/31/8

v -5.91187 -7.99791 4
vt 0.25 -3.88566
vn 0.728969 -0.684547 9.37693e-16
vt 9.37693e-16 13.0469
vt 9.37693e-16 -3.88566
f 20/32/9 19/33/9 18/34/9

v 6.42139 5.13568 4.10727
vt 0.142732 14.131
f 19/33/9 20/32/9 21/35/9

vt 0.25 13.0305
f 21/35/9 20/32/9 2/36/9

vt -1 -3.88566
vn 0 0 -1
vt 0 13.0305
vt -1 13.0305
f 20/37/10 3/38/2 2/39/2

f 3/38/2 20/37/10 15/27/10

vt 0.25 -1.90929
vn -0.00614735 -0.999981 -2.3315e-14
vt 0 -3.27324
vt 0.25 -3.27324
f 20/40/11 16/41/11 15/42/11

vt -3.42841e-14 -1.90929
f 16/41/11 20/40/11 18/43/11

vt 0.386297 14.0658
f 21/35/9 2/36/9 4/44/9

v 7.12342 5.88327 3.68248
vt 0.567524 15.1566
f 21/35/9 4/44/9 22/45/9

vt 0.785898 15.0305
f 22/45/9 4/44/9 6/46/9

v 7.72627 6.52524 3.00673
vt 1.24327 16.0372
f 22/45/9 6/46/9 23/47/9

vt 1.42157 15.8589
f 23/47/9 6/46/9 8/48/9

v 8.18885 7.01783 2.12608
vt 2.12392 16.713
f 23/47/9 8/48/9 24/49/9

vt 2.25 16.4946
f 24/49/9 8/48/9 9/50/9

v 8.47964 7.32749 1.10054
vt 3.14946 17.1377
f 24/49/9 9/50/9 25/51/9

v 8.31291 7.14994 1.03528
vt 3.21472 16.8942
f 25/51/9 9/50/9 26/52/9

vt -1 8.39093
v 7.58394 7.83449 1.03528
vt -1.42109e-14 9.43514
vn -0.661222 -0.70413 -0.258819
vt -1 9.43514
f 9/53/5 27/54/12 26/55/12

vt 2.84217e-14 8.39093
f 27/54/12 9/53/5 10/56/5

v 7.75067 8.01204 1.10054
vt -3.14946 17.1377
vt -3.21472 16.8942
f 10/19/6 28/57/6 27/58/6

f 10/19/6 11/18/6 28/57/6

vt 1 8.35802
vn 0.592835 0.631305 0.5
vt -1.46677e-14 9.46805
vn 0.661222 0.70413 0.258819
vt -1.45189e-14 8.35802
f 24/59/13 28/60/14 11/61/13

vt 1 9.46805
f 28/60/14 24/59/13 25/62/14

v 8.57882 7.43311 -0
vt 1 6.46948
vn 0.684547 0.728969 1.55373e-15
vt -1.28714e-14 5.35944
vt 1 5.35944
f 29/63/15 28/64/14 25/65/14

v 7.84985 8.11766 -0
vt -2.66142e-14 6.46948
f 28/64/14 29/63/15 30/66/15

vt -1 -1.9578
v 7.75067 8.01204 -1.10054
vt -1.64864e-14 -3.06784
vn 0.661222 0.70413 -0.258819
vt 2.66142e-14 -1.9578
f 29/67/15 31/68/16 30/69/15

v 8.47964 7.32749 -1.10054
vt -1 -3.06784
f 31/68/16 29/67/15 32/70/16

vt 4.25 17.2826
v 8.31291 7.14994 -1.03528
vt 5.28528 16.8942
vt 5.35054 17.1377
f 29/71/9 33/72/9 32/73/9

v 8.40621 7.2493 -0
vt 4.25 17.0305
f 29/71/9 34/74/9 33/72/9

f 29/71/9 26/52/9 34/74/9

f 25/51/9 26/52/9 29/71/9

vt -1.28437e-14 5.39235
vt -1 6.43656
vn -0.684547 -0.728969 -1.6797e-15
vt -1 5.39235
f 27/75/12 34/76/17 26/77/12

v 7.67724 7.93385 -0
vt 1.80747e-15 6.43656
f 34/76/17 27/75/12 35/78/17

vt -4.25 17.2826
vt -4.25 17.0305
f 27/58/6 30/79/6 35/80/6

f 27/58/6 28/57/6 30/79/6

vt -5.35054 17.1377
f 35/80/6 30/79/6 31/81/6

v 7.58394 7.83449 -1.03528
vt -5.28528 16.8942
f 35/80/6 31/81/6 36/82/6

v 7.31039 7.54319 -2
vt -6.25 16.4946
f 36/82/6 31/81/6 37/83/6

v 7.45988 7.70238 -2.12608
vt -6.37608 16.713
f 37/83/6 31/81/6 38/84/6

vt -1.42109e-14 1.61508
v 8.18885 7.01783 -2.12608
vt -1 0.505042
vn 0.592835 0.631305 -0.5
vt 1.42109e-14 0.505042
f 31/85/16 39/86/18 38/87/18

vt -1 1.61508
f 39/86/18 31/85/16 32/88/16

v 8.03936 6.85865 -2
vt 6.25 16.4946
vt 6.37608 16.713
f 32/73/9 40/89/9 39/90/9

f 32/73/9 33/72/9 40/89/9

vt 0 1.58216
vn -0.661222 -0.70413 0.258819
vt 1 0.537955
vn -0.592835 -0.631305 0.5
vt 1 1.58216
f 36/91/19 40/92/20 33/93/19

vt -2.84217e-14 0.537955
f 40/92/20 36/91/19 37/94/20

v 6.87524 7.07981 -2.82843
vt 1.42109e-14 4.0386
vn -0.484048 -0.515459 0.707107
vt 1 5.0828
vt -2.84217e-14 5.0828
f 41/95/21 40/96/20 37/97/20

v 7.60421 6.39526 -2.82843
vt 1 4.0386
f 40/96/20 41/95/21 42/98/21

v 6.30815 6.47591 -3.4641
vt -1.07952e-15 7.22843
vn -0.342274 -0.364484 0.866025
vt 1 8.27264
vt 1.32203e-14 8.27264
f 43/99/22 42/100/21 41/101/21

v 7.03711 5.79136 -3.4641
vt 1 7.22843
f 42/100/21 43/99/22 44/102/22

v 5.64775 5.77266 -3.8637
vt 0 9.89008
vn -0.177174 -0.188671 0.965926
vt 1 10.9343
vt 0 10.9343
f 45/103/23 44/104/22 43/105/22

v 6.37671 5.08811 -3.8637
vt 1 9.89008
f 44/104/22 45/103/23 46/106/23

v 4.93905 5.01797 -4
vt 1.1548e-16 11.8422
vn -0.0447715 -0.0476768 0.997859
vt 1 12.8864
vt 1.13572e-16 12.8864
f 47/107/24 46/108/23 45/109/23

v 5.66802 4.33342 -4
vt 1 11.8422
f 46/108/23 47/107/24 48/110/24

v -5.91187 -7.99791 -4
vt 1 13.0305
f 47/38/24 49/29/7 48/111/24

v -7.2758 -7.98952 -4
f 49/29/7 47/38/24 50/27/7

vt -8.25 13.0305
v 5.69242 5.82023 -4.10727
vt -8.35727 14.131
vt -8.25 -4.81322
f 47/112/6 51/113/6 50/114/6

vt -8.1137 14.0658
f 45/115/6 51/113/6 47/112/6

v 6.39445 6.56782 -3.68248
vt -7.93248 15.1566
f 45/115/6 52/116/6 51/113/6

vt -7.7141 15.0305
f 43/117/6 52/116/6 45/115/6

v 6.9973 7.20978 -3.00673
vt -7.25673 16.0372
f 43/117/6 53/118/6 52/116/6

vt -7.07843 15.8589
f 41/119/6 53/118/6 43/117/6

f 41/119/6 38/84/6 53/118/6

f 37/83/6 38/84/6 41/119/6

vt -1 5.11572
vt 0 4.00568
vn 0.484048 0.515459 -0.707107
vt 1.42109e-14 5.11572
f 39/120/18 53/121/25 38/122/18

v 7.72627 6.52524 -3.00673
vt -1 4.00568
f 53/121/25 39/120/18 54/123/25

vt 7.07843 15.8589
vt 7.25673 16.0372
f 39/90/9 42/124/9 54/125/9

f 39/90/9 40/89/9 42/124/9

vt 7.7141 15.0305
f 54/125/9 42/124/9 44/126/9

v 7.12342 5.88327 -3.68248
vt 7.93248 15.1566
f 54/125/9 44/126/9 55/127/9

vt 8.1137 14.0658
f 55/127/9 44/126/9 46/128/9

v 6.42139 5.13568 -4.10727
vt 8.35727 14.131
f 55/127/9 46/128/9 56/129/9

vt 8.25 13.0305
f 56/129/9 46/128/9 48/130/9

v -5.91187 -7.99791 -4.25
vt 8.5 -3.88566
f 48/130/9 57/131/9 56/129/9

vt 8.25 -3.88566
f 57/131/9 48/130/9 49/132/9

vt 8.25 -3.27324
vn -0.00614735 -0.999981 1.8302e-14
vt 8.5 -1.90929
vt 8.25 -1.90929
f 50/133/26 57/134/26 49/135/26

v -7.2758 -7.98952 -4.25
vt 8.5 -3.27324
f 57/134/26 50/133/26 58/136/26

vt -8.5 -4.81322
f 50/114/6 51/113/6 58/137/6

v 4.95027 5.02992 -4.25
vt -8.5 13.0469
f 58/137/6 51/113/6 59/138/6

vt 2.83047e-14 12.9193
vn 0.177174 0.188671 -0.965926
v 5.67924 4.34537 -4.25
vt -1 11.8258
vn 0.0447715 0.0476768 -0.997859
vt 1.40919e-14 11.8258
f 51/139/27 60/140/28 59/141/28

vt -1 12.9193
f 60/140/28 51/139/27 56/142/27

vt -1.42109e-14 10.9672
vn 0.342274 0.364484 -0.866025
vt -1 9.85717
vt 2.84217e-14 9.85717
f 52/143/29 56/144/27 51/145/27

vt -1 10.9672
f 56/144/27 52/143/29 55/146/29

vt 1.01551e-15 8.30555
vt -1 7.19552
vt -1.31008e-14 7.19552
f 53/147/25 55/148/29 52/149/29

vt -1 8.30555
f 55/148/29 53/147/25 54/150/25

vt 8.5 13.0469
f 56/129/9 57/131/9 60/151/9

vt 1.42109e-14 13.0469
vt -1 13.0469
f 57/37/10 59/152/28 60/153/28

f 59/152/28 57/37/10 58/27/10

vt 1 -3.03493
vt -1.80747e-15 -1.99072
vt -2.24776e-15 -3.03493
f 33/154/19 35/155/17 36/156/19

vt 1 -1.99072
f 35/155/17 33/154/19 34/157/17

vt 1.1337e-16 10.7492
vn 0.484048 0.515459 0.707107
vt 1 11.8592
vt -1.40172e-14 11.8592
f 12/158/30 24/159/13 11/160/13

vt 1 10.7492
f 24/159/13 12/158/30 23/161/30

vt 1.42506e-14 12.37
vn 0.342274 0.364484 0.866025
vt 1 13.48
vt 8.6992e-17 13.48
f 13/162/31 23/163/30 12/164/30

vt 1 12.37
f 23/163/30 13/162/31 22/165/31

vt 1.41938e-14 14.22
vt 1 13.11
vn 0.177174 0.188671 0.965926
vt 1 14.22
f 13/166/31 21/167/32 22/168/31

vt -2.8426e-14 13.11
f 21/167/32 13/166/31 14/169/32

vt -1.42109e-14 12.9352
vt 1 14.0288
vt -2.84197e-14 14.0288
f 17/170/8 21/171/32 14/172/32

vt 1 12.9352
f 21/171/32 17/170/8 19/173/8

g Mesh2 Group2 Model

v 5.91393 -8.0171 -4.25
vt -8.5 2.04199
vn 0.00344113 -0.999994 7.07895e-15
v 7.3703 -8.01208 -4
vt -8.25 0.585615
v 5.91393 -8.0171 -4
vt -8.25 2.04199
f 61/174/33 62/175/33 63/176/33

v 7.3703 -8.01208 -4.25
vt -8.5 0.585615
f 62/175/33 61/174/33 64/177/33

vt 9.64038e-14 2.80879
vn 4.84414e-15 5.23066e-15 -1
v 0.295171 -1.37569 -4.25
vt -1 11.4505
vt -1 1.75
f 61/178/34 65/179/34 64/180/34

v -0.377009 -2.11626 -4.25
vt -3.14939e-14 11.4341
f 65/179/34 61/178/34 66/181/34

vt -8.5 2.80879
vn -0.684131 -0.729359 -5.96585e-14
v -0.377009 -2.11626 -4
vt -8.25 11.4341
vt -8.5 11.4341
f 61/182/35 67/183/35 66/184/35

vt -8.25 2.80879
f 67/183/35 61/182/35 63/185/35

vt -3.89681e-14 2.80879
vn 2.84042e-16 -8.27906e-16 1
v 0.307122 -1.3869 -4
vt 1 11.4341
vt 4.6297e-14 11.4341
f 63/186/36 68/187/36 67/188/36

vt 1 1.75
f 68/187/36 63/186/36 62/189/36

vt 8.5 1.75
vn 0.684131 0.729359 -8.92246e-14
vt 8.25 11.4341
vt 8.25 1.75
f 64/190/37 68/191/37 62/192/37

vt 8.5 11.4505
f 68/191/37 64/190/37 65/193/37

g Mesh3 Group3 Model

v 5.91393 -8.0171 4
v 7.3703 -8.01208 4.25
v 5.91393 -8.0171 4.25
f 69/174/33 70/175/33 71/176/33

v 7.3703 -8.01208 4
f 70/175/33 69/174/33 72/177/33

v 0.295171 -1.37569 4
f 69/178/34 73/179/34 72/180/34

v -0.377009 -2.11626 4
f 73/179/34 69/178/34 74/181/34

v -0.377009 -2.11626 4.25
f 69/182/35 75/183/35 74/184/35

f 75/183/35 69/182/35 71/185/35

v 0.307122 -1.3869 4.25
f 71/186/36 76/187/36 75/188/36

f 76/187/36 71/186/36 70/189/36

f 72/190/37 76/191/37 70/192/37

f 76/191/37 72/190/37 73/193/37

