# Alias OBJ Model File
# Exported from SketchUp, (c) 2000-2012 Trimble Navigation Limited
# File units = inches

mtllib curve4.mtl

g Mesh1 Group2 Group1 Model

usemtl Wood__Floor
v 7.96103 -11.6259 0.911249
vt 2.98354 0
vn 1.87927e-16 -0.965926 0.258819
v -6.01397 -11.7644 -0.140343
vt 1.92287 13.975
vn 1.38778e-16 -1 -4.19926e-17
v 7.96103 -11.7644 -0.140343
vt 1.92287 1.77636e-15
f 1/1/1 2/2/2 3/3/2

v -6.01397 -11.6259 0.911249
vt 2.98354 13.975
f 2/2/2 1/1/1 4/4/1

v 7.96103 -11.22 1.89118
vt -0.332732 0
vn 2.24269e-16 -0.866025 0.5
vt -1.3934 13.975
vt -1.3934 0
f 5/5/3 4/6/1 1/7/1

v -6.01397 -11.22 1.89118
vt -0.332732 13.975
f 4/6/1 5/5/3 6/8/3

v 7.96103 -10.5744 2.73266
vt -3.59018 1.77636e-15
vn 2.45327e-16 -0.707107 0.707107
vt -4.65085 13.975
vt -4.65085 0
f 7/9/4 6/10/3 5/11/3

v -6.01397 -10.5744 2.73266
vt -3.59018 13.975
f 6/10/3 7/9/4 8/12/4

vt -7.62749 1.77636e-15
v -6.01397 -9.73287 3.37835
vt -6.56683 13.975
vn 2.49667e-16 -0.5 0.866025
vt -7.62749 13.975
f 7/13/4 9/14/5 8/15/4

v 7.96103 -9.73287 3.37835
vt -6.56683 1.77636e-15
f 9/14/5 7/13/4 10/16/5

v 7.96103 -10.5298 2.68808
vt -14.8915 6.89093
vn 1 1.38778e-16 -2.08167e-16
vt -14.0946 7.5812
vt -14.936 6.9355
f 11/17/6 10/18/6 7/19/6

v 7.96103 -9.70135 3.32376
vt -14.063 7.5266
f 12/20/6 10/18/6 11/17/6

v 7.96103 -8.75294 3.78425
vt -13.1146 7.98709
f 12/20/6 13/21/6 10/18/6

v 7.96103 -8.73663 3.72336
vt -13.0983 7.9262
f 14/22/6 13/21/6 12/20/6

v 7.96103 -7.70545 3.92216
vt -12.0671 8.125
f 14/22/6 15/23/6 13/21/6

v 7.96103 -7.70135 3.85966
vt -12.063 8.0625
f 16/24/6 15/23/6 14/22/6

v 7.96103 -6.70135 3.85966
vt -11.063 8.0625
f 17/25/6 15/23/6 16/24/6

v 7.96103 -6.70135 3.92216
vt -11.063 8.125
f 15/23/6 17/25/6 18/26/6

vt -8.0625 0
vn -1.38778e-16 1 4.00593e-32
v 6.96103 -6.70135 3.92216
vt -8.125 1
vt -8.125 0
f 17/27/7 19/28/7 18/29/7

v 6.96103 -6.70135 3.85966
vt -8.0625 1
f 19/28/7 17/27/7 20/30/7

vt 11.063 -1.24985e-47
vn -2.08167e-16 1.11704e-32 -1
v -6.01397 -7.70135 3.85966
vt 12.063 13.975
vn -2.16798e-16 0.0654031 -0.997859
vt 11.063 1
f 17/31/8 21/32/9 20/33/8

vt 12.063 -1.24985e-47
f 21/32/9 17/31/8 16/34/9

vt 10.9075 1.76903e-31
v -6.01397 -8.73663 3.72336
vt 11.9517 13.975
vn -2.36992e-16 0.258819 -0.965926
vt 10.9075 13.975
f 16/35/9 22/36/10 21/37/9

vt 11.9517 1.76903e-31
f 22/36/10 16/35/9 14/38/10

vt 10.1122 1.77636e-15
vn -2.49667e-16 0.5 -0.866025
vt 9.06804 13.975
vt 9.06804 2.50874e-30
f 12/39/11 22/40/10 14/41/10

v -6.01397 -9.70135 3.32376
vt 10.1122 13.975
f 22/40/10 12/39/11 23/42/11

vt 6.57505 1.77636e-15
v -6.01397 -10.5298 2.68808
vt 7.61926 13.975
vn -2.45327e-16 0.707107 -0.707107
vt 6.57505 13.975
f 12/43/11 24/44/12 23/45/11

vt 7.61926 1.77636e-15
f 24/44/12 12/43/11 11/46/12

v 7.96103 -11.1655 1.85966
vt 4.64262 0
vn -2.24269e-16 0.866025 -0.5
vt 3.59841 13.975
vt 3.59841 1.77636e-15
f 25/47/13 24/48/12 11/49/12

v -6.01397 -11.1655 1.85966
vt 4.64262 13.975
f 24/48/12 25/47/13 26/50/13

v 7.96103 -11.5651 0.894934
vt 1.38517 1.64332e-30
vn -1.87927e-16 0.965926 -0.258819
vt 0.34096 13.975
vt 0.34096 1.64332e-30
f 27/51/14 26/52/13 25/53/13

v -6.01397 -11.5651 0.894934
vt 1.38517 13.975
f 26/52/13 27/51/14 28/54/14

v 7.96103 -11.7014 -0.140343
vt -1.9311 1.77636e-15
vn -1.38778e-16 1 2.79951e-17
vt -2.97531 13.975
vt -2.97531 0
f 29/55/15 28/56/14 27/57/14

v -6.01397 -11.7014 -0.140343
vt -1.9311 13.975
f 28/56/14 29/55/15 30/58/15

v 7.96103 -11.5651 -1.17562
vt -5.08018 1.77636e-15
vn -8.01716e-17 0.965926 0.258819
vt -6.12439 13.975
vt -6.12439 1.77636e-15
f 31/59/16 30/60/15 29/61/15

v -6.01397 -11.5651 -1.17562
vt -5.08018 13.975
f 30/60/15 31/59/16 32/62/16

v 7.96103 -11.1655 -2.14034
vt -7.84748 0
vn -1.61018e-17 0.866025 0.5
vt -8.89169 13.975
vt -8.89169 1.77636e-15
f 33/63/17 32/64/16 31/65/16

v -6.01397 -11.1655 -2.14034
vt -7.84748 13.975
f 32/64/16 33/63/17 34/66/17

v 7.96103 -10.5298 -2.96877
vt -10.0444 0
vn 4.90654e-17 0.707107 0.707107
vt -11.0886 13.975
vt -11.0886 0
f 35/67/18 34/68/17 33/69/17

v -6.01397 -10.5298 -2.96877
vt -10.0444 13.975
f 34/68/17 35/67/18 36/70/18

v 7.96103 -9.70135 -3.60444
vt -11.5212 1.77636e-15
vn 1.10889e-16 0.5 0.866025
vt -12.5655 13.975
vt -12.5655 0
f 37/71/19 36/72/18 35/73/18

v -6.01397 -9.70135 -3.60444
vt -11.5212 13.975
f 36/72/18 37/71/19 38/74/19

vt -13.2216 1.77636e-15
v -6.01397 -8.73663 -4.00405
vt -12.1773 13.975
vn 1.65155e-16 0.258819 0.965926
vt -13.2216 13.975
f 37/75/19 39/76/20 38/77/19

v 7.96103 -8.73663 -4.00405
vt -12.1773 0
f 39/76/20 37/75/19 40/78/20

v 7.96103 -8.75294 -4.06494
vt -13.1146 0.137905
vt -13.0983 0.198797
vt -14.063 0.598398
f 41/79/6 40/80/6 37/81/6

v 7.96103 -7.70545 -4.20284
vt -12.0671 0
f 42/82/6 40/80/6 41/79/6

v 7.96103 -7.70135 -4.14034
vt -12.063 0.0625
f 42/82/6 43/83/6 40/80/6

v 7.96103 -6.70135 -4.20284
vt -11.063 0
f 44/84/6 43/83/6 42/82/6

v 7.96103 -6.70135 -4.14034
vt -11.063 0.0625
f 43/83/6 44/84/6 45/85/6

vt -11.063 -3.196e-31
vn 1 1.20794e-30 -0
v 7.96103 0.298648 -4.14034
vt -4.06304 0.0625
f 44/86/21 46/87/21 45/85/21

v 7.96103 0.302745 -4.20284
vt -4.05894 -1.17259e-31
f 47/88/21 46/87/21 44/86/21

v 7.96103 7.33392 -4.00405
vt 2.97224 0.198797
f 47/88/21 48/89/21 46/87/21

v 7.96103 7.35024 -4.06494
vt 2.98855 0.137905
f 49/90/21 48/89/21 47/88/21

v 7.96103 8.29865 -3.60444
vt 3.93696 0.598398
f 49/90/21 50/91/21 48/89/21

v 7.96103 8.33017 -3.65904
vt 3.96848 0.543805
f 51/92/21 50/91/21 49/90/21

v 7.96103 9.12708 -2.96877
vt 4.76539 1.23407
f 51/92/21 52/93/21 50/91/21

v 7.96103 9.17165 -3.01335
vt 4.80996 1.1895
f 53/94/21 52/93/21 51/92/21

v 7.96103 9.76275 -2.14034
vt 5.40106 2.0625
f 53/94/21 54/95/21 52/93/21

v 7.96103 9.81734 -2.17186
vt 5.45566 2.03098
f 55/96/21 54/95/21 53/94/21

v 7.96103 10.1624 -1.17562
vt 5.80066 3.02722
f 55/96/21 56/97/21 54/95/21

v 7.96103 10.2232 -1.19193
vt 5.86156 3.01091
f 57/98/21 56/97/21 55/96/21

v 7.96103 10.2986 -0.140343
vt 5.93696 4.0625
f 57/98/21 58/99/21 56/97/21

v 7.96103 10.3617 -0.140343
vt 6 4.0625
f 58/99/21 57/98/21 59/100/21

vt -3.75024 8.92747e-16
vn 0 0.965926 -0.258819
v 6.96103 10.3617 -0.140343
vt -4.8109 1
vn 0 1 1.11704e-32
vt -4.8109 8.92747e-16
f 57/101/22 60/102/23 59/103/23

v 6.96103 10.2232 -1.19193
vt -3.75024 1
f 60/102/23 57/101/22 61/104/22

vt -3.96417 -8.90151e-16
vn 4.97292e-32 0.866025 -0.5
vt -5.02484 1
vt -5.02484 8.86206e-16
f 55/105/24 61/106/22 57/107/22

v 6.96103 9.81734 -2.17186
vt -3.96417 1
f 61/106/22 55/105/24 62/108/24

vt -3.87181 7.32231e-16
vn 4.97292e-32 0.707107 -0.707107
vt -4.93248 1
vt -4.93248 -1.04413e-15
f 53/109/25 62/110/24 55/111/24

v 6.96103 9.17165 -3.01335
vt -3.87181 1
f 62/110/24 53/109/25 63/112/25

vt -4.54012 4.95378e-16
v 6.96103 8.33017 -3.65904
vt -3.47945 1
vn -4.97292e-32 0.5 -0.866025
vt -4.54012 1
f 53/113/25 64/114/26 63/115/25

vt -3.47945 4.95378e-16
f 64/114/26 53/113/25 51/116/26

vt -3.8745 2.4942e-16
v 6.96103 7.35024 -4.06494
vt -2.81384 1
vn 0 0.204676 -0.97883
vt -3.8745 1
f 51/117/26 65/118/27 64/119/26

vt -2.81384 2.4942e-16
f 65/118/27 51/117/26 49/120/27

vt -2.99068 -1.6743e-17
v 6.96103 0.302745 -4.20284
vt 4.05817 1
vn -1.04088e-16 0.0097826 -0.999952
vt -2.99068 1
f 49/121/27 66/122/28 65/123/27

vt 4.05817 -1.6743e-17
f 66/122/28 49/121/27 47/124/28

vt 4.05894 0
v 6.96103 -6.70135 -4.20284
vt 4.05894 1
f 47/125/28 67/33/8 66/126/28

vt 11.063 0
f 67/33/8 47/125/28 44/127/8

v -6.01397 -7.70545 -4.20284
vt 12.0671 13.975
vn -1.98645e-16 -0.0654031 -0.997859
f 44/127/8 68/128/29 67/33/8

vt 12.0671 0
f 68/128/29 44/127/8 42/129/29

vt 11.9639 -1.45607e-32
v -6.01397 -8.75294 -4.06494
vt 13.0204 13.975
vn -1.65155e-16 -0.258819 -0.965926
vt 11.9639 13.975
f 42/130/29 69/131/30 68/132/29

vt 13.0204 -1.45607e-32
f 69/131/30 42/130/29 41/133/30

v 7.96103 -9.73287 -3.65904
vt 13.2298 1.77636e-15
vn -1.10889e-16 -0.5 -0.866025
vt 12.1691 13.975
vt 12.1691 6.02905e-32
f 70/134/31 69/135/30 41/136/30

v -6.01397 -9.73287 -3.65904
vt 13.2298 13.975
f 69/135/30 70/134/31 71/137/31

vt 11.513 1.77636e-15
v -6.01397 -10.5744 -3.01335
vt 12.5737 13.975
vn -4.90654e-17 -0.707107 -0.707107
vt 11.513 13.975
f 70/138/31 72/139/32 71/140/31

v 7.96103 -10.5744 -3.01335
vt 12.5737 0
f 72/139/32 70/138/31 73/141/32

vt -14.0946 0.543805
vt -14.8915 1.23407
vt -14.936 1.1895
f 70/142/6 35/143/6 73/144/6

f 70/142/6 37/81/6 35/143/6

f 41/79/6 37/81/6 70/142/6

vt -15.5271 2.0625
f 73/144/6 35/143/6 33/145/6

v 7.96103 -11.22 -2.17186
vt -15.5817 2.03098
f 73/144/6 33/145/6 74/146/6

vt -15.9267 3.02722
f 74/146/6 33/145/6 31/147/6

v 7.96103 -11.6259 -1.19193
vt -15.9876 3.01091
f 74/146/6 31/147/6 75/148/6

vt -16.063 4.0625
f 75/148/6 31/147/6 29/149/6

vt -16.1261 4.0625
f 75/148/6 29/149/6 3/150/6

vt -15.9876 5.11409
f 29/149/6 1/151/6 3/150/6

vt -15.9267 5.09778
f 27/152/6 1/151/6 29/149/6

vt -15.5817 6.09402
f 27/152/6 5/153/6 1/151/6

vt -15.5271 6.0625
f 25/154/6 5/153/6 27/152/6

f 25/154/6 7/19/6 5/153/6

f 11/17/6 7/19/6 25/154/6

vt 6.13262 1.77636e-15
v -6.01397 -11.6259 -1.19193
vt 5.07195 13.975
vn 8.01716e-17 -0.965926 -0.258819
vt 5.07195 1.77636e-15
f 3/155/2 76/156/33 75/157/33

vt 6.13262 13.975
f 76/156/33 3/155/2 2/158/2

vt 16.063 4.0625
vn -1 -1.38778e-16 2.08167e-16
vt 15.9876 3.01091
vt 16.1261 4.0625
f 30/159/34 76/160/34 2/161/34

vt 15.9267 3.02722
f 32/162/34 76/160/34 30/159/34

v -6.01397 -11.22 -2.17186
vt 15.5817 2.03098
f 32/162/34 77/163/34 76/160/34

vt 15.5271 2.0625
f 34/164/34 77/163/34 32/162/34

vt 14.936 1.1895
f 34/164/34 72/165/34 77/163/34

vt 14.8915 1.23407
f 36/166/34 72/165/34 34/164/34

vt 14.0946 0.543805
f 36/166/34 71/167/34 72/165/34

vt 14.063 0.598398
f 38/168/34 71/167/34 36/166/34

vt 13.1146 0.137905
f 38/168/34 69/169/34 71/167/34

vt 13.0983 0.198797
f 39/170/34 69/169/34 38/168/34

vt 12.0671 -2.16641e-47
f 39/170/34 68/171/34 69/169/34

v -6.01397 -7.70135 -4.14034
vt 12.063 0.0625
f 78/172/34 68/171/34 39/170/34

v -6.01397 -6.70135 -4.14034
vt 11.063 0.0625
f 79/173/34 68/171/34 78/172/34

v -6.01397 -6.70135 -4.20284
vt 11.063 -2.16641e-47
f 68/171/34 79/173/34 80/174/34

vt -0.0625 13.975
vt 0 1
vt 0 13.975
f 79/175/7 67/176/7 80/177/7

v 6.96103 -6.70135 -4.14034
vt -0.0625 1
f 67/176/7 79/175/7 81/178/7

vt -12.063 13.975
vn 1.98645e-16 0.0654031 0.997859
vt -11.063 1
vn 2.08167e-16 -1.11704e-32 1
vt -11.063 13.975
f 78/179/35 81/180/36 79/181/36

vt -12.063 -9.68877e-50
f 43/182/35 81/180/36 78/179/35

vt -11.063 -9.68877e-50
f 81/180/36 43/182/35 45/183/36

v 6.96103 0.298648 -4.14034
vt -4.06304 1
vn 1.04088e-16 -0.0096853 0.999953
f 45/183/36 82/184/37 81/180/36

vt -4.06304 -9.68877e-50
f 82/184/37 45/183/36 46/185/37

vt -4.06107 -2.97647e-17
v 6.96103 7.33392 -4.00405
vt 2.97553 1
vn -5.01754e-32 -0.20458 0.97885
vt -4.06107 1
f 46/186/37 83/187/38 82/188/37

vt 2.97553 -2.97647e-17
f 83/187/38 46/186/37 48/189/38

vt 2.82207 2.34081e-16
v 6.96103 8.29865 -3.60444
vt 3.86627 1
vn 0 -0.5 0.866025
vt 2.82207 1
f 48/190/38 84/191/39 83/192/38

vt 3.86627 2.34081e-16
f 84/191/39 48/190/38 50/193/39

vt 3.48768 4.79776e-16
v 6.96103 9.12708 -2.96877
vt 4.53189 1
vn 0 -0.707107 0.707107
vt 3.48768 1
f 50/194/39 85/195/40 84/196/39

vt 4.53189 4.79776e-16
f 85/195/40 50/194/39 52/197/40

vt 3.88004 7.17429e-16
v 6.96103 9.76275 -2.14034
vt 4.92425 1
vn 0 -0.866025 0.5
vt 3.88004 1
f 52/198/40 86/199/41 85/200/40

vt 4.92425 -1.05893e-15
f 86/199/41 52/198/40 54/201/41

vt 3.9724 -9.03143e-16
v 6.96103 10.1624 -1.17562
vt 5.01661 1
vn 2.48646e-32 -0.965926 0.258819
vt 3.9724 1
f 54/202/41 87/203/42 86/204/41

vt 5.01661 8.73214e-16
f 87/203/42 54/202/41 56/205/42

vt 4.80267 8.82449e-16
vn 0 -1 -1.11704e-32
vt 3.75846 1
vt 3.75846 8.82449e-16
f 58/206/43 87/207/42 56/208/42

v 6.96103 10.2986 -0.140343
vt 4.80267 1
f 87/207/42 58/206/43 88/209/43

v 7.96103 10.1624 0.894934
vt 4.29703 7.08499e-16
vn -1.24323e-32 -0.965926 -0.258819
vt 3.25282 1
vt 3.25282 7.08499e-16
f 89/210/44 88/211/43 58/212/43

v 6.96103 10.1624 0.894934
vt 4.29703 1
f 88/211/43 89/210/44 90/213/44

v 7.96103 9.76275 1.85966
vt 3.53412 -1.42144e-15
vn 6.21616e-33 -0.866025 -0.5
vt 2.48991 1
vt 2.48991 3.54913e-16
f 91/214/45 90/215/44 89/216/44

v 6.96103 9.76275 1.85966
vt 3.53412 1
f 90/215/44 91/214/45 92/217/45

v 7.96103 9.12708 2.68808
vt 2.56596 1.64377e-15
vn -2.48646e-32 -0.707107 -0.707107
vt 1.52175 1
vt 1.52175 -1.90894e-15
f 93/218/46 92/219/45 91/220/45

v 6.96103 9.12708 2.68808
vt 2.56596 1
f 92/219/45 93/218/46 94/221/46

vt 0.414294 1.10134e-15
v 6.96103 8.29865 3.32376
vt 1.4585 1
vn 2.48646e-32 -0.5 -0.866025
vt 0.414294 1
f 93/222/46 95/223/47 94/224/46

v 7.96103 8.29865 3.32376
vt 1.4585 1.10134e-15
f 95/223/47 93/222/46 96/225/47

vt 4.76539 6.89093
v 7.96103 8.33017 3.37835
vt 3.96848 7.5812
vt 3.93696 7.5266
f 93/226/21 97/227/21 96/228/21

v 7.96103 9.17165 2.73266
vt 4.80996 6.9355
f 93/226/21 98/229/21 97/227/21

vt 5.40106 6.0625
f 91/230/21 98/229/21 93/226/21

v 7.96103 9.81734 1.89118
vt 5.45566 6.09402
f 91/230/21 99/231/21 98/229/21

vt 5.80066 5.09778
f 89/232/21 99/231/21 91/230/21

v 7.96103 10.2232 0.911249
vt 5.86156 5.11409
f 89/232/21 100/233/21 99/231/21

f 58/99/21 100/233/21 89/232/21

f 100/233/21 58/99/21 59/100/21

vt -3.24459 7.154e-16
v 6.96103 10.2232 0.911249
vt -4.30525 1
vn 2.48646e-32 0.965926 0.258819
vt -4.30525 7.154e-16
f 59/234/23 101/235/48 100/236/48

vt -3.24459 1
f 101/235/48 59/234/23 60/237/23

vt -5.93696 4.0625
vn -1 -1.9968e-30 -0
vt -5.86156 5.11409
vt -6 4.0625
f 88/238/49 101/239/49 60/240/49

vt -5.80066 5.09778
f 101/239/49 88/238/49 90/241/49

v 6.96103 9.81734 1.89118
vt -5.45566 6.09402
f 101/239/49 90/241/49 102/242/49

vt -5.40106 6.0625
f 102/242/49 90/241/49 92/243/49

v 6.96103 9.17165 2.73266
vt -4.80996 6.9355
f 102/242/49 92/243/49 103/244/49

vt -4.76539 6.89093
f 103/244/49 92/243/49 94/245/49

v 6.96103 8.33017 3.37835
vt -3.96848 7.5812
f 103/244/49 94/245/49 104/246/49

vt -3.93696 7.5266
f 104/246/49 94/245/49 95/247/49

v 6.96103 7.35024 3.78425
vt -2.98855 7.98709
f 104/246/49 95/247/49 105/248/49

v 6.96103 7.33392 3.72336
vt -2.97224 7.9262
f 105/248/49 95/247/49 106/249/49

vt -0.756972 5.98575e-16
vt 0.287238 1
vn 2.50877e-32 -0.20458 -0.97885
vt -0.756972 1
f 96/250/47 106/251/50 95/252/47

v 7.96103 7.33392 3.72336
vt 0.287238 5.98575e-16
f 106/251/50 96/250/47 107/253/50

v 7.96103 7.35024 3.78425
vt 2.98855 7.98709
vt 2.97224 7.9262
f 96/228/21 108/254/21 107/255/21

f 96/228/21 97/227/21 108/254/21

vt 0.7652 1
vn 1.24323e-32 0.5 0.866025
vt -0.295466 5.89874e-16
vn 0 0.204676 0.97883
vt 0.7652 5.89874e-16
f 104/256/51 108/257/52 97/258/51

vt -0.295466 1
f 108/257/52 104/256/51 105/259/52

v 6.96103 0.302745 3.92216
vt -4.21713 1
vn 1.04088e-16 0.0097826 0.999952
vt 2.83172 1.24016e-16
vt 2.83172 1
f 109/260/53 108/261/52 105/262/52

v 7.96103 0.302745 3.92216
vt -4.21713 -1.65234e-15
f 108/261/52 109/260/53 110/263/53

vt -4.05894 1
vt -11.063 -1.25954e-47
vt -4.05894 -1.25954e-47
f 109/264/53 18/265/36 110/266/53

f 18/265/36 109/264/53 19/180/36

vt 4.05894 8.125
v 6.96103 0.298648 3.85966
vt 4.06304 8.0625
vt 11.063 8.125
f 109/267/49 111/268/49 19/269/49

f 109/267/49 106/249/49 111/268/49

f 105/248/49 106/249/49 109/267/49

vt -2.81815 1.36478e-16
vt 4.21845 1
vn -1.04088e-16 -0.0096853 -0.999953
vt -2.81815 1
f 107/270/50 111/271/54 106/272/50

v 7.96103 0.298648 3.85966
vt 4.21845 -1.63988e-15
f 111/271/54 107/270/50 112/273/54

vt -4.05894 8.125
vt -4.06304 8.0625
f 107/255/21 110/274/21 112/275/21

f 107/255/21 108/254/21 110/274/21

f 112/275/21 110/274/21 18/26/21

f 112/275/21 18/26/21 17/25/21

vt 4.06304 -1.24985e-47
f 20/33/8 112/276/54 17/31/8

vt 4.06304 1
f 112/276/54 20/33/8 111/277/54

vt 11.063 8.0625
f 19/269/49 111/268/49 20/278/49

v -6.01397 -6.70135 3.92216
vt -8.125 13.975
f 20/30/7 113/279/7 19/28/7

v -6.01397 -6.70135 3.85966
vt -8.0625 13.975
f 113/279/7 20/30/7 114/280/7

vt 11.063 13.975
f 20/33/8 21/32/9 114/281/8

vt 12.063 8.0625
f 21/282/34 113/269/34 114/278/34

v -6.01397 -7.70545 3.92216
vt 12.0671 8.125
f 113/269/34 21/282/34 115/283/34

vt 13.0983 7.9262
f 115/283/34 21/282/34 22/284/34

v -6.01397 -8.75294 3.78425
vt 13.1146 7.98709
f 115/283/34 22/284/34 116/285/34

vt 14.063 7.5266
f 116/285/34 22/284/34 23/286/34

vt 14.0946 7.5812
f 116/285/34 23/286/34 9/287/34

vt 14.8915 6.89093
f 9/287/34 23/286/34 24/288/34

vt 14.936 6.9355
f 9/287/34 24/288/34 8/289/34

vt 15.5271 6.0625
f 8/289/34 24/288/34 26/290/34

vt 15.5817 6.09402
f 8/289/34 26/290/34 6/291/34

vt 15.9267 5.09778
f 6/291/34 26/290/34 28/292/34

vt 15.9876 5.11409
f 6/291/34 28/292/34 4/293/34

f 4/293/34 28/292/34 30/159/34

f 4/293/34 30/159/34 2/161/34

vt -10.1205 1.77636e-15
vt -9.05981 13.975
vn 2.36992e-16 -0.258819 0.965926
vt -10.1205 13.975
f 10/294/5 116/295/55 9/296/5

vt -9.05981 0
f 116/295/55 10/294/5 13/297/55

vt -11.9599 1.48382e-31
vt -10.9034 13.975
vn 2.16798e-16 -0.0654031 0.997859
vt -11.9599 13.975
f 13/298/55 115/299/56 116/300/55

vt -10.9034 1.48382e-31
f 115/299/56 13/298/55 15/301/56

vt -12.0671 -1.25954e-47
vt -12.0671 13.975
f 15/302/56 19/180/36 115/303/56

f 19/180/36 15/302/56 18/265/36

f 115/303/56 19/180/36 113/181/36

vt -1.46673 1.0963e-15
vt -0.406066 1
vn 1.86485e-32 0.707107 0.707107
vt -1.46673 1
f 97/304/51 103/305/57 104/306/51

vt -0.406066 1.0963e-15
f 103/305/57 97/304/51 98/307/57

vt -1.51352 -1.90998e-15
vn 0 0.866025 0.5
vt -2.57418 1
vt -2.57418 1.64273e-15
f 99/308/58 103/309/57 98/310/57

vt -1.51352 1
f 103/309/57 99/308/58 102/311/58

vt -2.48168 3.57948e-16
vt -3.54235 1
vt -3.54235 -1.41841e-15
f 100/312/48 102/313/58 99/314/58

vt -2.48168 1
f 102/313/58 100/312/48 101/315/48

vt -5.86156 3.01091
f 61/316/49 88/238/49 60/240/49

vt -5.80066 3.02722
f 88/238/49 61/316/49 87/317/49

vt -5.45566 2.03098
f 87/317/49 61/316/49 62/318/49

vt -5.40106 2.0625
f 87/317/49 62/318/49 86/319/49

vt -4.80996 1.1895
f 86/319/49 62/318/49 63/320/49

vt -4.76539 1.23407
f 86/319/49 63/320/49 85/321/49

vt -3.96848 0.543805
f 85/321/49 63/320/49 64/322/49

vt -3.93696 0.598398
f 85/321/49 64/322/49 84/323/49

vt -2.98855 0.137905
f 84/323/49 64/322/49 65/324/49

vt -2.97224 0.198797
f 84/323/49 65/324/49 83/325/49

vt 4.05894 2.08167e-16
f 83/325/49 65/324/49 66/326/49

vt 4.06304 0.0625
f 83/325/49 66/326/49 82/327/49

vt 11.063 2.08167e-16
f 82/327/49 66/326/49 67/328/49

f 82/327/49 67/328/49 81/173/49

vt -11.968 13.975
vt -13.0122 -9.32198e-33
vt -11.968 -9.32198e-33
f 78/329/35 40/330/20 43/331/35

vt -13.0122 13.975
f 40/330/20 78/329/35 39/332/20

f 67/33/8 68/128/29 80/281/8

vt 10.0362 0
vt 11.0968 13.975
vn 1.61018e-17 -0.866025 -0.5
vt 10.0362 13.975
f 73/333/32 77/334/59 72/335/32

vt 11.0968 0
f 77/334/59 73/333/32 74/336/59

vt 8.89992 1.77636e-15
vt 7.83925 13.975
vt 7.83925 0
f 75/337/33 77/338/59 74/339/59

vt 8.89992 13.975
f 77/338/59 75/337/33 76/340/33

