# Alias OBJ Model File
# Exported from SketchUp, (c) 2000-2012 Trimble Navigation Limited
# File units = inches

mtllib desk3.mtl

g Mesh1 Group1 Model

usemtl Wood__Floor
v -4.75325 -8 3.8637
vt -1.57772e-30 13.9958
vn 0.258819 4.48979e-17 -0.965926
v -3.71798 -7 4
vt -1 12.9516
vn 0.0654031 1.13456e-17 -0.997859
v -3.71798 -8 4
vt -3.15544e-30 12.9516
f 1/1/1 2/2/2 3/3/2

v -4.75325 -7 3.8637
vt -1 13.9958
f 2/2/2 1/1/1 4/4/1

v -5.71798 -8 3.4641
vt -3.15544e-30 14.1871
vn 0.5 8.67362e-17 -0.866025
vt -1 13.1429
vt -1.57772e-30 13.1429
f 5/5/3 4/6/1 1/7/1

v -5.71798 -7 3.4641
vt -1 14.1871
f 4/6/1 5/5/3 6/8/3

v -6.5464 -8 2.82843
vt -3.15544e-30 13.4471
vn 0.707107 1.22663e-16 -0.707107
vt -1 12.4029
vt -3.15544e-30 12.4029
f 7/9/4 6/10/3 5/11/3

v -6.5464 -7 2.82843
vt -1 13.4471
f 6/10/3 7/9/4 8/12/4

vt -3.15544e-30 10.7821
v -7.18208 -7 2
vt -1 11.8263
vn 0.866025 1.50231e-16 -0.5
vt -1 10.7821
f 7/13/4 9/14/5 8/15/4

v -7.18208 -8 2
vt 0 11.8263
f 9/14/5 7/13/4 10/16/5

vt -1.42157 15.8589
vn 1.73472e-16 -1 -0
v -7.40045 -8 2.12608
vt -2.12392 16.713
vt -2.25 16.4946
f 7/17/6 11/18/6 10/19/6

v -6.72471 -8 3.00673
vt -1.24327 16.0372
f 7/17/6 12/20/6 11/18/6

vt -0.785898 15.0305
f 5/21/6 12/20/6 7/17/6

v -5.84406 -8 3.68248
vt -0.567524 15.1566
f 5/21/6 13/22/6 12/20/6

vt -0.386297 14.0658
f 1/23/6 13/22/6 5/21/6

v -4.81852 -8 4.10727
vt -0.142732 14.131
f 1/23/6 14/24/6 13/22/6

vt -0.25 13.0305
f 14/24/6 1/23/6 3/25/6

v 8.01806 -8 4
vt -0.25 1.29444
f 15/26/6 14/24/6 3/25/6

v 8.01806 -8 4.25
vt 0 1.29444
f 16/27/6 14/24/6 15/26/6

v -3.73436 -8 4.25
vt 0 13.0469
f 14/24/6 16/27/6 17/28/6

vt 4.73317e-30 1.29444
vn -0 0 1
v -3.73436 -7 4.25
vt 1 13.0469
vn -0.0654031 -1.13456e-17 0.997859
f 16/29/7 18/30/8 17/28/8

v 8.01806 -7 4.25
vt 1 1.29444
f 18/30/8 16/29/7 19/31/7

vt -4.73317e-30 0
vn 1 1.73472e-16 -0
v 8.01806 -7 4
vt -1 0.25
vt -1 0
f 16/32/9 20/33/9 19/34/9

vt -4.73317e-30 0.25
f 20/33/9 16/32/9 15/35/9

vt -3.15544e-30 13.0305
vt -1 1.29444
vn 0 0 -1
vt -4.73317e-30 1.29444
f 3/36/2 20/37/10 15/38/10

vt -1 13.0305
f 20/37/10 3/36/2 2/39/2

v -4.81852 -7 4.10727
vt 0.142732 14.131
vn -1.73472e-16 1 -0
vt 0.25 1.29444
vt 0.25 13.0305
f 21/40/11 20/41/11 2/42/11

f 18/28/11 20/41/11 21/40/11

f 20/41/11 18/28/11 19/27/11

vt 1 14.0288
vn -0.258819 -4.48979e-17 0.965926
vt 0 12.9352
vt 1 12.9352
f 21/43/12 17/44/8 18/45/8

vt 0 14.0288
f 17/44/8 21/43/12 14/46/12

v -5.84406 -7 3.68248
vt 1 14.22
vn -0.5 -8.67362e-17 0.866025
vt 0 13.11
vt 1 13.11
f 22/47/13 14/48/12 21/49/12

vt 0 14.22
f 14/48/12 22/47/13 13/50/13

v -6.72471 -7 3.00673
vt 1 13.48
vn -0.707107 -1.22663e-16 0.707107
vt 0 12.37
vt 1 12.37
f 23/51/14 13/52/13 22/53/13

vt 1.57772e-30 13.48
f 13/52/13 23/51/14 12/54/14

v -7.40045 -7 2.12608
vt 1 11.8592
vn -0.866025 -1.50231e-16 0.5
vt 1.67841e-30 10.7492
vt 1 10.7492
f 24/55/15 12/56/14 23/57/14

vt -2.98343e-30 11.8592
f 12/56/14 24/55/15 11/58/15

vt 1 8.35802
v -7.82525 -8 1.10054
vt 0 9.46805
vn -0.965926 -1.67561e-16 0.258819
vt -3.15544e-30 8.35802
f 24/59/15 25/60/16 11/61/15

v -7.82525 -7 1.10054
vt 1 9.46805
f 25/60/16 24/59/15 26/62/16

vt 2.12392 16.713
vt 2.25 16.4946
vt 3.14946 17.1377
f 24/63/11 9/64/11 26/65/11

vt 1.42157 15.8589
f 24/63/11 8/66/11 9/64/11

vt 1.24327 16.0372
f 23/67/11 8/66/11 24/63/11

vt 0.785898 15.0305
f 23/67/11 6/68/11 8/66/11

vt 0.567524 15.1566
f 22/69/11 6/68/11 23/67/11

vt 0.386297 14.0658
f 22/69/11 4/70/11 6/68/11

f 21/40/11 4/70/11 22/69/11

f 21/40/11 2/42/11 4/70/11

v -7.58168 -7 1.03528
vt 3.21472 16.8942
f 26/65/11 9/64/11 27/71/11

vt -1 8.39093
v -7.58168 -8 1.03528
vt -3.15544e-30 9.43514
vn 0.965926 1.67561e-16 -0.258819
vt -1 9.43514
f 9/72/5 28/73/17 27/74/17

vt 0 8.39093
f 28/73/17 9/72/5 10/75/5

vt -3.14946 17.1377
vt -3.21472 16.8942
f 10/19/6 25/76/6 28/77/6

f 10/19/6 11/18/6 25/76/6

v -7.97013 -8 -0
vt -4.25 17.2826
f 28/77/6 25/76/6 29/78/6

vt 1 5.35944
vt 3.15544e-30 6.46948
vn -1 -1.73472e-16 1.58172e-15
vt 0 5.35944
f 26/79/16 29/80/18 25/81/16

v -7.97013 -7 -0
vt 1 6.46948
f 29/80/18 26/79/16 30/82/18

vt 4.25 17.2826
f 26/65/11 27/71/11 30/83/11

v -7.71798 -7 -0
vt 4.25 17.0305
f 30/83/11 27/71/11 31/84/11

vt -3.15544e-30 5.39235
vt -1 6.43656
vn 1 1.73472e-16 -1.6937e-15
vt -1 5.39235
f 28/85/17 31/86/19 27/87/17

v -7.71798 -8 -0
vt -3.15544e-30 6.43656
f 31/86/19 28/85/17 32/88/19

vt -4.25 17.0305
f 28/77/6 29/78/6 32/89/6

v -7.82525 -8 -1.10054
vt -5.35054 17.1377
f 32/89/6 29/78/6 33/90/6

vt -3.15544e-30 -1.9578
v -7.82525 -7 -1.10054
vt -1 -3.06784
vn -0.965926 -1.67561e-16 -0.258819
vt 0 -3.06784
f 29/91/18 34/92/20 33/93/20

vt -1 -1.9578
f 34/92/20 29/91/18 30/94/18

v -7.58168 -7 -1.03528
vt 5.28528 16.8942
vt 5.35054 17.1377
f 30/83/11 35/95/11 34/96/11

f 30/83/11 31/84/11 35/95/11

vt 3.15544e-30 -1.99072
vt 1 -3.03493
vn 0.965926 1.67561e-16 0.258819
vt 1 -1.99072
f 32/97/19 35/98/21 31/99/19

v -7.58168 -8 -1.03528
vt 3.15544e-30 -3.03493
f 35/98/21 32/97/19 36/100/21

vt -5.28528 16.8942
f 32/89/6 33/90/6 36/101/6

v -7.18208 -8 -2
vt -6.25 16.4946
f 36/101/6 33/90/6 37/102/6

v -7.40045 -8 -2.12608
vt -6.37608 16.713
f 37/102/6 33/90/6 38/103/6

vt 0 1.61508
v -7.40045 -7 -2.12608
vt -1 0.505042
vn -0.866025 -1.50231e-16 -0.5
vt 1.57772e-30 0.505042
f 33/104/20 39/105/22 38/106/22

vt -1 1.61508
f 39/105/22 33/104/20 34/107/20

v -7.18208 -7 -2
vt 6.25 16.4946
vt 6.37608 16.713
f 34/96/11 40/108/11 39/109/11

f 34/96/11 35/95/11 40/108/11

vt 3.15544e-30 1.58216
vt 1 0.537955
vn 0.866025 1.50231e-16 0.5
vt 1 1.58216
f 36/110/21 40/111/23 35/112/21

vt 0 0.537955
f 40/111/23 36/110/21 37/113/23

v -6.5464 -8 -2.82843
vt 3.15544e-30 4.0386
vn 0.707107 1.22663e-16 0.707107
vt 1 5.0828
vt 0 5.0828
f 41/114/24 40/115/23 37/116/23

v -6.5464 -7 -2.82843
vt 1 4.0386
f 40/115/23 41/114/24 42/117/24

v -5.71798 -8 -3.4641
vt 3.15544e-30 7.22843
vn 0.5 8.67362e-17 0.866025
vt 1 8.27264
vt 3.15544e-30 8.27264
f 43/118/25 42/119/24 41/120/24

v -5.71798 -7 -3.4641
vt 1 7.22843
f 42/119/24 43/118/25 44/121/25

v -4.75325 -8 -3.8637
vt 1.57772e-30 9.89008
vn 0.258819 4.48979e-17 0.965926
vt 1 10.9343
vt 3.15544e-30 10.9343
f 45/122/26 44/123/25 43/124/25

v -4.75325 -7 -3.8637
vt 1 9.89008
f 44/123/25 45/122/26 46/125/26

v -3.71798 -8 -4
vt 3.15544e-30 11.8422
vn 0.0654031 1.13456e-17 0.997859
vt 1 12.8864
vt 1.57772e-30 12.8864
f 47/126/27 46/127/26 45/128/26

v -3.71798 -7 -4
vt 1 11.8422
f 46/127/26 47/126/27 48/129/27

v 8 -8 -4
vt 0 1.3125
vn 1.36323e-16 2.36483e-32 1
vt 1 13.0305
vt 3.15544e-30 13.0305
f 49/130/28 48/131/27 47/132/27

v 8 -7 -4
vt 1 1.3125
f 48/131/27 49/130/28 50/133/28

vt 0 8.25
v 8 -7 -4.25
vt -1 8.5
vt -1 8.25
f 49/134/9 51/135/9 50/136/9

v 8 -8 -4.25
vt 0 8.5
f 51/135/9 49/134/9 52/137/9

vt -8.25 1.3125
v -4.81852 -8 -4.10727
vt -8.35727 14.131
vt -8.5 1.3125
f 49/138/6 53/139/6 52/140/6

vt -8.25 13.0305
f 47/141/6 53/139/6 49/138/6

vt -8.1137 14.0658
f 45/142/6 53/139/6 47/141/6

v -5.84406 -8 -3.68248
vt -7.93248 15.1566
f 45/142/6 54/143/6 53/139/6

vt -7.7141 15.0305
f 43/144/6 54/143/6 45/142/6

v -6.72471 -8 -3.00673
vt -7.25673 16.0372
f 43/144/6 55/145/6 54/143/6

vt -7.07843 15.8589
f 41/146/6 55/145/6 43/144/6

f 41/146/6 38/103/6 55/145/6

f 37/102/6 38/103/6 41/146/6

vt -1 5.11572
vt -1.57772e-30 4.00568
vn -0.707107 -1.22663e-16 -0.707107
vt 1.57772e-30 5.11572
f 39/147/22 55/148/29 38/149/22

v -6.72471 -7 -3.00673
vt -1 4.00568
f 55/148/29 39/147/22 56/150/29

vt 7.07843 15.8589
vt 7.25673 16.0372
f 39/109/11 42/151/11 56/152/11

f 39/109/11 40/108/11 42/151/11

vt 7.7141 15.0305
f 56/152/11 42/151/11 44/153/11

v -5.84406 -7 -3.68248
vt 7.93248 15.1566
f 56/152/11 44/153/11 57/154/11

vt 8.1137 14.0658
f 57/154/11 44/153/11 46/155/11

v -4.81852 -7 -4.10727
vt 8.35727 14.131
f 57/154/11 46/155/11 58/156/11

vt 8.25 13.0305
f 58/156/11 46/155/11 48/157/11

vt 8.5 1.3125
f 48/157/11 51/158/11 58/156/11

vt 8.25 1.3125
f 51/158/11 48/157/11 50/159/11

v -3.73436 -7 -4.25
vt 8.5 13.0469
f 58/156/11 51/158/11 59/160/11

vt -1 1.3125
vn -1.36152e-16 -2.36186e-32 -1
v -3.73436 -8 -4.25
vn -0.0654031 -1.13456e-17 -0.997859
vt -1 13.0469
f 51/161/30 60/28/31 59/162/31

f 60/28/31 51/161/30 52/130/30

vt -8.5 13.0469
f 52/140/6 53/139/6 60/163/6

vt -3.15544e-30 12.9193
vn -0.258819 -4.48979e-17 -0.965926
vt -1 11.8258
vt 0 11.8258
f 53/164/32 59/165/31 60/166/31

vt -1 12.9193
f 59/165/31 53/164/32 58/167/32

vt 0 10.9672
vn -0.5 -8.67362e-17 -0.866025
vt -1 9.85717
vt -3.15544e-30 9.85717
f 54/168/33 58/169/32 53/170/32

vt -1 10.9672
f 58/169/32 54/168/33 57/171/33

vt -1.57772e-30 8.30555
vt -1 7.19552
vt 0 7.19552
f 55/172/29 57/173/33 54/174/33

vt -1 8.30555
f 57/173/33 55/172/29 56/175/29

g Mesh2 Group2 Model

v 7.01806 5.77131 3.8637
vt 0 13.9958
vn 0 -0.258819 -0.965926
v 8.01806 4.73604 4
vn 0 -0.0654031 -0.997859
v 7.01806 4.73604 4
vt 0 12.9516
f 61/176/34 62/2/35 63/177/35

v 8.01806 5.77131 3.8637
f 62/2/35 61/176/34 64/4/34

v 7.01806 6.73604 3.4641
vt 0 14.1871
vn 0 -0.5 -0.866025
vt 0 13.1429
f 65/178/36 64/6/34 61/179/34

v 8.01806 6.73604 3.4641
f 64/6/34 65/178/36 66/8/36

v 7.01806 7.56446 2.82843
vt 1.57772e-30 13.4471
vn 0 -0.707107 -0.707107
vt 0 12.4029
f 67/180/37 66/10/36 65/181/36

v 8.01806 7.56446 2.82843
f 66/10/36 67/180/37 68/12/37

v 7.01806 8.20014 2
vn 0 -0.866025 -0.5
vt 1.57772e-30 10.7821
f 69/16/38 68/15/37 67/182/37

v 8.01806 8.20014 2
f 68/15/37 69/16/38 70/14/38

v 8.01806 8.59974 1.03528
vn 0 -0.965926 -0.258819
f 69/75/38 71/74/39 70/72/38

v 7.01806 8.59974 1.03528
vt 0 9.43514
f 71/74/39 69/75/38 72/183/39

vn -1 0 -0
v 7.01806 8.84331 1.10054
f 69/19/40 73/76/40 72/77/40

v 7.01806 8.41851 2.12608
f 69/19/40 74/18/40 73/76/40

f 67/17/40 74/18/40 69/19/40

v 7.01806 7.74277 3.00673
f 67/17/40 75/20/40 74/18/40

f 65/21/40 75/20/40 67/17/40

v 7.01806 6.86212 3.68248
f 65/21/40 76/22/40 75/20/40

f 61/23/40 76/22/40 65/21/40

v 7.01806 5.83658 4.10727
f 61/23/40 77/24/40 76/22/40

f 77/24/40 61/23/40 63/25/40

v 7.01806 -7 4
f 78/26/40 77/24/40 63/25/40

v 7.01806 -7 4.25
f 79/27/40 77/24/40 78/26/40

v 7.01806 4.75242 4.25
f 77/24/40 79/27/40 80/28/40

vt 1.57772e-30 1.29444
vn 0 0 1
v 8.01806 4.75242 4.25
vn 0 0.0654031 0.997859
vt -1.57772e-30 13.0469
f 79/184/41 81/30/42 80/185/42

f 81/30/42 79/184/41 19/31/41

vt -1.57772e-30 0
vn 0 -1 -0
f 79/186/43 20/33/43 19/34/43

vt -1.57772e-30 0.25
f 20/33/43 79/186/43 78/187/43

vt 0 13.0305
vt -1.57772e-30 1.29444
f 63/188/35 20/37/10 78/189/10

f 20/37/10 63/188/35 62/39/35

v 8.01806 5.83658 4.10727
vn 1 0 -0
f 82/40/44 20/41/44 62/42/44

f 81/28/44 20/41/44 82/40/44

f 20/41/44 81/28/44 19/27/44

vn 0 0.258819 0.965926
vt -1.57772e-30 12.9352
f 82/43/45 80/190/42 81/45/42

vt -1.57772e-30 14.0288
f 80/190/42 82/43/45 77/191/45

v 8.01806 6.86212 3.68248
vn 0 0.5 0.866025
vt -1.57772e-30 13.11
f 83/47/46 77/192/45 82/49/45

vt -1.57772e-30 14.22
f 77/192/45 83/47/46 76/193/46

v 8.01806 7.74277 3.00673
vn 1.24323e-32 0.707107 0.707107
vt -1.57772e-30 12.37
f 84/51/47 76/194/46 83/53/46

vt -1.57772e-30 13.48
f 76/194/46 84/51/47 75/195/47

vt -1.49171e-30 11.8592
vn 1.24323e-32 0.866025 0.5
vt -1.52738e-30 10.7492
f 84/57/47 74/196/48 75/197/47

v 8.01806 8.41851 2.12608
f 74/196/48 84/57/47 85/55/48

f 84/67/44 68/66/44 85/63/44

f 84/67/44 66/68/44 68/66/44

f 83/69/44 66/68/44 84/67/44

f 83/69/44 64/70/44 66/68/44

f 82/40/44 64/70/44 83/69/44

f 82/40/44 62/42/44 64/70/44

f 85/63/44 68/66/44 70/64/44

v 8.01806 8.84331 1.10054
f 85/63/44 70/64/44 86/65/44

f 86/65/44 70/64/44 71/71/44

v 8.01806 8.98819 1.77636e-15
f 86/65/44 71/71/44 87/83/44

v 8.01806 8.73604 1.77636e-15
f 87/83/44 71/71/44 88/84/44

vt 0 5.39235
vn 0 -1 -1.6937e-15
f 72/198/39 88/86/49 71/87/39

v 7.01806 8.73604 1.77636e-15
vt 0 6.43656
f 88/86/49 72/198/39 89/199/49

v 7.01806 8.98819 1.77636e-15
f 72/77/40 90/78/40 89/89/40

f 72/77/40 73/76/40 90/78/40

vn 0 0.965926 0.258819
vn 0 1 1.58172e-15
vt -1.57772e-30 6.46948
f 73/81/50 87/82/51 90/200/51

f 87/82/51 73/81/50 86/79/50

f 73/60/50 85/59/48 86/62/50

vt -1.57772e-30 8.35802
f 85/59/48 73/60/50 74/201/48

v 7.01806 8.84331 -1.10054
vn 0 0.965926 -0.258819
vt 1.57772e-30 -1.9578
f 87/94/51 91/93/52 90/202/51

v 8.01806 8.84331 -1.10054
f 91/93/52 87/94/51 92/92/52

v 8.01806 8.59974 -1.03528
f 87/83/44 93/95/44 92/96/44

f 87/83/44 88/84/44 93/95/44

v 7.01806 8.59974 -1.03528
vt 1.57772e-30 -3.03493
vn 0 -0.965926 0.258819
f 88/99/49 94/203/53 93/98/53

vt 0 -1.99072
f 94/203/53 88/99/49 89/204/49

f 89/89/40 91/90/40 94/101/40

f 89/89/40 90/78/40 91/90/40

v 7.01806 8.20014 -2
f 94/101/40 91/90/40 95/102/40

v 7.01806 8.41851 -2.12608
f 95/102/40 91/90/40 96/103/40

vt 0 0.505042
vn 0 0.866025 -0.5
f 92/107/52 96/205/54 91/104/52

v 8.01806 8.41851 -2.12608
f 96/205/54 92/107/52 97/105/54

v 8.01806 8.20014 -2
f 92/96/44 98/108/44 97/109/44

f 92/96/44 93/95/44 98/108/44

vt 1.57772e-30 1.58216
vn 0 -0.866025 0.5
f 94/206/53 98/111/55 93/112/53

f 98/111/55 94/206/53 95/113/55

v 8.01806 7.56446 -2.82843
vn 0 -0.707107 0.707107
f 95/116/55 99/117/56 98/115/55

v 7.01806 7.56446 -2.82843
vt -1.57772e-30 4.0386
f 99/117/56 95/116/55 100/207/56

f 95/102/40 96/103/40 100/146/40

v 7.01806 7.74277 -3.00673
f 100/146/40 96/103/40 101/145/40

vt 0 5.11572
v 8.01806 7.74277 -3.00673
vn 0 0.707107 -0.707107
vt 1.57772e-30 4.00568
f 96/208/54 102/150/57 101/209/57

f 102/150/57 96/208/54 97/147/54

f 97/109/44 99/151/44 102/152/44

f 97/109/44 98/108/44 99/151/44

v 8.01806 6.73604 -3.4641
f 102/152/44 99/151/44 103/153/44

v 7.01806 6.73604 -3.4641
vt 0 7.22843
vn 0 -0.5 0.866025
f 99/119/56 104/210/58 103/121/58

vt -1.57772e-30 8.27264
f 104/210/58 99/119/56 100/211/56

f 100/146/40 101/145/40 104/144/40

v 7.01806 6.86212 -3.68248
f 104/144/40 101/145/40 105/143/40

vt 1.57772e-30 8.30555
v 8.01806 6.86212 -3.68248
vn 0 0.5 -0.866025
f 101/212/57 106/173/59 105/174/59

f 106/173/59 101/212/57 102/175/57

f 102/152/44 103/153/44 106/154/44

v 8.01806 5.77131 -3.8637
f 106/154/44 103/153/44 107/155/44

v 7.01806 5.77131 -3.8637
vt 0 9.89008
vn 0 -0.258819 0.965926
f 103/123/58 108/213/60 107/125/60

vt 0 10.9343
f 108/213/60 103/123/58 104/214/58

f 104/144/40 105/143/40 108/142/40

v 7.01806 5.83658 -4.10727
f 108/142/40 105/143/40 109/139/40

v 8.01806 5.83658 -4.10727
vn 0 0.258819 -0.965926
vt 0 9.85717
f 105/168/59 110/169/61 109/215/61

f 110/169/61 105/168/59 106/171/59

f 106/154/44 107/155/44 110/156/44

v 8.01806 4.73604 -4
f 110/156/44 107/155/44 111/157/44

v 7.01806 4.73604 -4
vt 0 11.8422
vn 0 -0.0654031 0.997859
f 107/127/60 112/216/62 111/129/62

vt 0 12.8864
f 112/216/62 107/127/60 108/217/60

f 108/142/40 109/139/40 112/141/40

v 7.01806 -6.98194 -4
f 112/141/40 109/139/40 113/138/40

v 7.01806 -6.98194 -4.25
f 113/138/40 109/139/40 114/140/40

v 7.01806 4.75242 -4.25
f 114/140/40 109/139/40 115/163/40

vt 0 12.9193
v 8.01806 4.75242 -4.25
vn 0 0.0654031 -0.997859
vt 1.57772e-30 11.8258
f 109/218/61 116/165/63 115/219/63

f 116/165/63 109/218/61 110/167/61

v 8.01806 -6.98194 -4.25
f 110/156/44 117/158/44 116/160/44

v 8.01806 -6.98194 -4
f 110/156/44 118/159/44 117/158/44

f 110/156/44 111/157/44 118/159/44

vn 0 -1.36323e-16 1
f 111/131/62 113/130/64 118/133/64

f 113/130/64 111/131/62 112/188/62

f 113/134/43 117/135/43 118/136/43

f 117/135/43 113/134/43 114/137/43

vt 1.57772e-30 13.0469
vn 0 1.36152e-16 -1
f 115/220/63 117/161/65 114/130/65

f 117/161/65 115/220/63 116/162/63

