# Alias OBJ Model File
# Exported from SketchUp, (c) 2000-2012 Trimble Navigation Limited
# File units = inches

mtllib table4.mtl

g Mesh1 Group2 Group1 Model

usemtl Wood__Floor
v 5.91393 -0.0170957 -4.25
vt -8.5 2.04199
vn 0.00344113 -0.999994 7.07895e-15
v 7.3703 -0.0120841 -4
vt -8.25 0.585615
v 5.91393 -0.0170957 -4
vt -8.25 2.04199
f 1/1/1 2/2/1 3/3/1

v 7.3703 -0.0120841 -4.25
vt -8.5 0.585615
f 2/2/1 1/1/1 4/4/1

vt 1.03509e-13 2.80879
vn 4.84414e-15 5.23066e-15 -1
v 0.295171 6.62431 -4.25
vt -1 11.4505
vt -1 1.75
f 1/5/2 5/6/2 4/7/2

v -0.377009 5.88374 -4.25
vt -2.43885e-14 11.4341
f 5/6/2 1/5/2 6/8/2

vt -8.5 2.80879
vn -0.684131 -0.729359 -5.96585e-14
v -0.377009 5.88374 -4
vt -8.25 11.4341
vt -8.5 11.4341
f 1/9/3 7/10/3 6/11/3

vt -8.25 2.80879
f 7/10/3 1/9/3 3/12/3

vt -4.60735e-14 2.80879
vn 2.84042e-16 -8.27906e-16 1
v 0.307122 6.6131 -4
vt 1 11.4341
vt 4.6297e-14 11.4341
f 3/13/4 8/14/4 7/15/4

vt 1 1.75
f 8/14/4 3/13/4 2/16/4

vt 8.5 1.75
vn 0.684131 0.729359 -8.92246e-14
vt 8.25 11.4341
vt 8.25 1.75
f 4/17/5 8/18/5 2/19/5

vt 8.5 11.4505
f 8/18/5 4/17/5 5/20/5

g Mesh2 Group3 Group1 Model

v 5.64775 13.7727 3.8637
vt 0 13.9958
vn -0.177174 -0.188671 -0.965926
v 5.66802 12.3334 4
vt -1 12.9516
vn -0.0447715 -0.0476768 -0.997859
v 4.93905 13.018 4
vt 0 12.9516
f 9/21/6 10/22/7 11/23/7

v 6.37671 13.0881 3.8637
vt -1 13.9958
f 10/22/7 9/21/6 12/24/6

v 6.30815 14.4759 3.4641
vt 0 14.1871
vn -0.342274 -0.364484 -0.866025
vt -1 13.1429
vt 0 13.1429
f 13/25/8 12/26/6 9/27/6

v 7.03711 13.7914 3.4641
vt -1 14.1871
f 12/26/6 13/25/8 14/28/8

v 6.87524 15.0798 2.82843
vt -1.41114e-14 13.4471
vn -0.484048 -0.515459 -0.707107
vt -1 12.4029
vt 5.49895e-17 12.4029
f 15/29/9 14/30/8 13/31/8

v 7.60421 14.3953 2.82843
vt -1 13.4471
f 14/30/8 15/29/9 16/32/9

vt -1.43405e-14 10.7821
v 8.03936 14.8586 2
vt -1 11.8263
vn -0.592835 -0.631305 -0.5
vt -1 10.7821
f 15/33/9 17/34/10 16/35/9

v 7.31039 15.5432 2
vt 2.82165e-14 11.8263
f 17/34/10 15/33/9 18/36/10

vt -1.42157 15.8589
vn -0.728969 0.684547 -0
v 7.45988 15.7024 2.12608
vt -2.12392 16.713
vt -2.25 16.4946
f 15/37/11 19/38/11 18/39/11

v 6.9973 15.2098 3.00673
vt -1.24327 16.0372
f 15/37/11 20/40/11 19/38/11

vt -0.785898 15.0305
f 13/41/11 20/40/11 15/37/11

v 6.39445 14.5678 3.68248
vt -0.567524 15.1566
f 13/41/11 21/42/11 20/40/11

vt -0.386297 14.0658
f 9/43/11 21/42/11 13/41/11

v 5.69242 13.8202 4.10727
vt -0.142732 14.131
f 9/43/11 22/44/11 21/42/11

vt -0.25 13.0305
f 22/44/11 9/43/11 11/45/11

v -7.2758 0.0104769 4
vt -0.25 -4.81322
f 23/46/11 22/44/11 11/45/11

v -7.2758 0.0104769 4.25
vt 0 -4.81322
f 24/47/11 22/44/11 23/46/11

v 4.95027 13.0299 4.25
vt 0 13.0469
f 22/44/11 24/47/11 25/48/11

v -5.91187 0.00209216 4.25
vt 1 -3.88566
vn 0 0 1
vt -1.42109e-14 13.0469
vn 0.0447715 0.0476768 0.997859
f 26/49/12 25/50/13 24/47/12

v 5.67924 12.3454 4.25
vt 1 13.0469
f 25/50/13 26/49/12 27/51/13

v -5.91187 0.00209216 4
vt 0.25 -3.88566
vn 0.728969 -0.684547 9.37693e-16
vt 9.37693e-16 13.0469
vt 9.37693e-16 -3.88566
f 28/52/14 27/53/14 26/54/14

v 6.42139 13.1357 4.10727
vt 0.142732 14.131
f 27/53/14 28/52/14 29/55/14

vt 0.25 13.0305
f 29/55/14 28/52/14 10/56/14

vt -1 -3.88566
vn 0 0 -1
vt 0 13.0305
vt -1 13.0305
f 28/57/15 11/58/7 10/59/7

f 11/58/7 28/57/15 23/47/15

vt 0.25 -1.90929
vn -0.00614735 -0.999981 -2.3315e-14
vt 0 -3.27324
vt 0.25 -3.27324
f 28/60/16 24/61/16 23/62/16

vt -3.42841e-14 -1.90929
f 24/61/16 28/60/16 26/63/16

vt 0.386297 14.0658
f 29/55/14 10/56/14 12/64/14

v 7.12342 13.8833 3.68248
vt 0.567524 15.1566
f 29/55/14 12/64/14 30/65/14

vt 0.785898 15.0305
f 30/65/14 12/64/14 14/66/14

v 7.72627 14.5252 3.00673
vt 1.24327 16.0372
f 30/65/14 14/66/14 31/67/14

vt 1.42157 15.8589
f 31/67/14 14/66/14 16/68/14

v 8.18885 15.0178 2.12608
vt 2.12392 16.713
f 31/67/14 16/68/14 32/69/14

vt 2.25 16.4946
f 32/69/14 16/68/14 17/70/14

v 8.47964 15.3275 1.10054
vt 3.14946 17.1377
f 32/69/14 17/70/14 33/71/14

v 8.31291 15.1499 1.03528
vt 3.21472 16.8942
f 33/71/14 17/70/14 34/72/14

vt -1 8.39093
v 7.58394 15.8345 1.03528
vt -1.42109e-14 9.43514
vn -0.661222 -0.70413 -0.258819
vt -1 9.43514
f 17/73/10 35/74/17 34/75/17

vt 2.84217e-14 8.39093
f 35/74/17 17/73/10 18/76/10

v 7.75067 16.012 1.10054
vt -3.14946 17.1377
vt -3.21472 16.8942
f 18/39/11 36/77/11 35/78/11

f 18/39/11 19/38/11 36/77/11

vt 1 8.35802
vn 0.592835 0.631305 0.5
vt -1.46677e-14 9.46805
vn 0.661222 0.70413 0.258819
vt -1.45189e-14 8.35802
f 32/79/18 36/80/19 19/81/18

vt 1 9.46805
f 36/80/19 32/79/18 33/82/19

v 8.57882 15.4331 -0
vt 1 6.46948
vn 0.684547 0.728969 1.55373e-15
vt -1.28714e-14 5.35944
vt 1 5.35944
f 37/83/20 36/84/19 33/85/19

v 7.84985 16.1177 -0
vt -2.66142e-14 6.46948
f 36/84/19 37/83/20 38/86/20

vt -1 -1.9578
v 7.75067 16.012 -1.10054
vt -1.64864e-14 -3.06784
vn 0.661222 0.70413 -0.258819
vt 2.66142e-14 -1.9578
f 37/87/20 39/88/21 38/89/20

v 8.47964 15.3275 -1.10054
vt -1 -3.06784
f 39/88/21 37/87/20 40/90/21

vt 4.25 17.2826
v 8.31291 15.1499 -1.03528
vt 5.28528 16.8942
vt 5.35054 17.1377
f 37/91/14 41/92/14 40/93/14

v 8.40621 15.2493 -0
vt 4.25 17.0305
f 37/91/14 42/94/14 41/92/14

f 37/91/14 34/72/14 42/94/14

f 33/71/14 34/72/14 37/91/14

vt -1.28437e-14 5.39235
vt -1 6.43656
vn -0.684547 -0.728969 -1.6797e-15
vt -1 5.39235
f 35/95/17 42/96/22 34/97/17

v 7.67724 15.9338 -0
vt 1.80747e-15 6.43656
f 42/96/22 35/95/17 43/98/22

vt -4.25 17.2826
vt -4.25 17.0305
f 35/78/11 38/99/11 43/100/11

f 35/78/11 36/77/11 38/99/11

vt -5.35054 17.1377
f 43/100/11 38/99/11 39/101/11

v 7.58394 15.8345 -1.03528
vt -5.28528 16.8942
f 43/100/11 39/101/11 44/102/11

v 7.31039 15.5432 -2
vt -6.25 16.4946
f 44/102/11 39/101/11 45/103/11

v 7.45988 15.7024 -2.12608
vt -6.37608 16.713
f 45/103/11 39/101/11 46/104/11

vt -1.42109e-14 1.61508
v 8.18885 15.0178 -2.12608
vt -1 0.505042
vn 0.592835 0.631305 -0.5
vt 1.42109e-14 0.505042
f 39/105/21 47/106/23 46/107/23

vt -1 1.61508
f 47/106/23 39/105/21 40/108/21

v 8.03936 14.8586 -2
vt 6.25 16.4946
vt 6.37608 16.713
f 40/93/14 48/109/14 47/110/14

f 40/93/14 41/92/14 48/109/14

vt 0 1.58216
vn -0.661222 -0.70413 0.258819
vt 1 0.537955
vn -0.592835 -0.631305 0.5
vt 1 1.58216
f 44/111/24 48/112/25 41/113/24

vt -2.84217e-14 0.537955
f 48/112/25 44/111/24 45/114/25

v 6.87524 15.0798 -2.82843
vt 1.42109e-14 4.0386
vn -0.484048 -0.515459 0.707107
vt 1 5.0828
vt -2.84217e-14 5.0828
f 49/115/26 48/116/25 45/117/25

v 7.60421 14.3953 -2.82843
vt 1 4.0386
f 48/116/25 49/115/26 50/118/26

v 6.30815 14.4759 -3.4641
vt -1.07952e-15 7.22843
vn -0.342274 -0.364484 0.866025
vt 1 8.27264
vt 1.32203e-14 8.27264
f 51/119/27 50/120/26 49/121/26

v 7.03711 13.7914 -3.4641
vt 1 7.22843
f 50/120/26 51/119/27 52/122/27

v 5.64775 13.7727 -3.8637
vt 0 9.89008
vn -0.177174 -0.188671 0.965926
vt 1 10.9343
vt 0 10.9343
f 53/123/28 52/124/27 51/125/27

v 6.37671 13.0881 -3.8637
vt 1 9.89008
f 52/124/27 53/123/28 54/126/28

v 4.93905 13.018 -4
vt 1.1548e-16 11.8422
vn -0.0447715 -0.0476768 0.997859
vt 1 12.8864
vt 1.13572e-16 12.8864
f 55/127/29 54/128/28 53/129/28

v 5.66802 12.3334 -4
vt 1 11.8422
f 54/128/28 55/127/29 56/130/29

v -5.91187 0.00209216 -4
vt 1 13.0305
f 55/58/29 57/49/12 56/131/29

v -7.2758 0.0104769 -4
f 57/49/12 55/58/29 58/47/12

vt -8.25 13.0305
v 5.69242 13.8202 -4.10727
vt -8.35727 14.131
vt -8.25 -4.81322
f 55/132/11 59/133/11 58/134/11

vt -8.1137 14.0658
f 53/135/11 59/133/11 55/132/11

v 6.39445 14.5678 -3.68248
vt -7.93248 15.1566
f 53/135/11 60/136/11 59/133/11

vt -7.7141 15.0305
f 51/137/11 60/136/11 53/135/11

v 6.9973 15.2098 -3.00673
vt -7.25673 16.0372
f 51/137/11 61/138/11 60/136/11

vt -7.07843 15.8589
f 49/139/11 61/138/11 51/137/11

f 49/139/11 46/104/11 61/138/11

f 45/103/11 46/104/11 49/139/11

vt -1 5.11572
vt 0 4.00568
vn 0.484048 0.515459 -0.707107
vt 1.42109e-14 5.11572
f 47/140/23 61/141/30 46/142/23

v 7.72627 14.5252 -3.00673
vt -1 4.00568
f 61/141/30 47/140/23 62/143/30

vt 7.07843 15.8589
vt 7.25673 16.0372
f 47/110/14 50/144/14 62/145/14

f 47/110/14 48/109/14 50/144/14

vt 7.7141 15.0305
f 62/145/14 50/144/14 52/146/14

v 7.12342 13.8833 -3.68248
vt 7.93248 15.1566
f 62/145/14 52/146/14 63/147/14

vt 8.1137 14.0658
f 63/147/14 52/146/14 54/148/14

v 6.42139 13.1357 -4.10727
vt 8.35727 14.131
f 63/147/14 54/148/14 64/149/14

vt 8.25 13.0305
f 64/149/14 54/148/14 56/150/14

v -5.91187 0.00209216 -4.25
vt 8.5 -3.88566
f 56/150/14 65/151/14 64/149/14

vt 8.25 -3.88566
f 65/151/14 56/150/14 57/152/14

vt 8.25 -3.27324
vn -0.00614735 -0.999981 1.8302e-14
vt 8.5 -1.90929
vt 8.25 -1.90929
f 58/153/31 65/154/31 57/155/31

v -7.2758 0.0104769 -4.25
vt 8.5 -3.27324
f 65/154/31 58/153/31 66/156/31

vt -8.5 -4.81322
f 58/134/11 59/133/11 66/157/11

v 4.95027 13.0299 -4.25
vt -8.5 13.0469
f 66/157/11 59/133/11 67/158/11

vt 2.83047e-14 12.9193
vn 0.177174 0.188671 -0.965926
v 5.67924 12.3454 -4.25
vt -1 11.8258
vn 0.0447715 0.0476768 -0.997859
vt 1.40919e-14 11.8258
f 59/159/32 68/160/33 67/161/33

vt -1 12.9193
f 68/160/33 59/159/32 64/162/32

vt -1.42109e-14 10.9672
vn 0.342274 0.364484 -0.866025
vt -1 9.85717
vt 2.84217e-14 9.85717
f 60/163/34 64/164/32 59/165/32

vt -1 10.9672
f 64/164/32 60/163/34 63/166/34

vt 1.01551e-15 8.30555
vt -1 7.19552
vt -1.31008e-14 7.19552
f 61/167/30 63/168/34 60/169/34

vt -1 8.30555
f 63/168/34 61/167/30 62/170/30

vt 8.5 13.0469
f 64/149/14 65/151/14 68/171/14

vt 1.42109e-14 13.0469
vt -1 13.0469
f 65/57/15 67/172/33 68/173/33

f 67/172/33 65/57/15 66/47/15

vt 1 -3.03493
vt -1.80747e-15 -1.99072
vt -2.24776e-15 -3.03493
f 41/174/24 43/175/22 44/176/24

vt 1 -1.99072
f 43/175/22 41/174/24 42/177/22

vt 1.1337e-16 10.7492
vn 0.484048 0.515459 0.707107
vt 1 11.8592
vt -1.40172e-14 11.8592
f 20/178/35 32/179/18 19/180/18

vt 1 10.7492
f 32/179/18 20/178/35 31/181/35

vt 1.42506e-14 12.37
vn 0.342274 0.364484 0.866025
vt 1 13.48
vt 8.6992e-17 13.48
f 21/182/36 31/183/35 20/184/35

vt 1 12.37
f 31/183/35 21/182/36 30/185/36

vt 1.41938e-14 14.22
vt 1 13.11
vn 0.177174 0.188671 0.965926
vt 1 14.22
f 21/186/36 29/187/37 30/188/36

vt -2.8426e-14 13.11
f 29/187/37 21/186/36 22/189/37

vt -1.42109e-14 12.9352
vt 1 14.0288
vt -2.84197e-14 14.0288
f 25/190/13 29/191/37 22/192/37

vt 1 12.9352
f 29/191/37 25/190/13 27/193/13

g Mesh3 Group4 Group1 Model

v 5.91393 -0.0170957 4
v 7.3703 -0.0120841 4.25
v 5.91393 -0.0170957 4.25
f 69/1/1 70/2/1 71/3/1

v 7.3703 -0.0120841 4
f 70/2/1 69/1/1 72/4/1

v 0.295171 6.62431 4
f 69/5/2 73/6/2 72/7/2

v -0.377009 5.88374 4
f 73/6/2 69/5/2 74/8/2

v -0.377009 5.88374 4.25
f 69/9/3 75/10/3 74/11/3

f 75/10/3 69/9/3 71/12/3

v 0.307122 6.6131 4.25
f 71/13/4 76/14/4 75/15/4

f 76/14/4 71/13/4 70/16/4

f 72/17/5 76/18/5 70/19/5

f 76/18/5 72/17/5 73/20/5

