# Alias OBJ Model File
# Exported from SketchUp, (c) 2000-2012 Trimble Navigation Limited
# File units = inches

mtllib table6.mtl

g Mesh1 Group2 Group1 Model

usemtl Wood__Floor
v 5.55813 14.0658 3.85205
vt -1 13.9958
vn 0 -0.258819 -0.965926
v 6.55813 13.0305 3.98835
vt -2 12.9516
vn 0 -0.0654031 -0.997859
v 5.55813 13.0305 3.98835
vt -1 12.9516
f 1/1/1 2/2/2 3/3/2

v 6.55813 14.0658 3.85205
vt -2 13.9958
f 2/2/2 1/1/1 4/4/1

v 5.55813 15.0305 3.45245
vt -1 14.1871
vn 0 -0.5 -0.866025
vt -2 13.1429
vt -1 13.1429
f 5/5/3 4/6/1 1/7/1

v 6.55813 15.0305 3.45245
vt -2 14.1871
f 4/6/1 5/5/3 6/8/3

v 5.55813 15.8589 2.81677
vt -1 13.4471
vn 0 -0.707107 -0.707107
vt -2 12.4029
vt -1 12.4029
f 7/9/4 6/10/3 5/11/3

v 6.55813 15.8589 2.81677
vt -2 13.4471
f 6/10/3 7/9/4 8/12/4

vt -1 10.7821
v 6.55813 16.4946 1.98835
vt -2 11.8263
vn 0 -0.866025 -0.5
vt -2 10.7821
f 7/13/4 9/14/5 8/15/4

v 5.55813 16.4946 1.98835
vt -1 11.8263
f 9/14/5 7/13/4 10/16/5

vt -1.42157 15.8589
vn -1 0 -0
v 5.55813 16.713 2.11443
vt -2.12392 16.713
vt -2.25 16.4946
f 7/17/6 11/18/6 10/19/6

v 5.55813 16.0372 2.99508
vt -1.24327 16.0372
f 7/17/6 12/20/6 11/18/6

vt -0.785898 15.0305
f 5/21/6 12/20/6 7/17/6

v 5.55813 15.1566 3.67082
vt -0.567524 15.1566
f 5/21/6 13/22/6 12/20/6

vt -0.386297 14.0658
f 1/23/6 13/22/6 5/21/6

v 5.55813 14.131 4.09562
vt -0.142732 14.131
f 1/23/6 14/24/6 13/22/6

vt -0.25 13.0305
f 14/24/6 1/23/6 3/25/6

v 5.55813 5.68434e-14 3.98835
vt -0.25 0
f 15/26/6 14/24/6 3/25/6

v 5.55813 5.68434e-14 4.23835
vt 0 0
f 16/27/6 14/24/6 15/26/6

v 5.55813 13.0469 4.23835
vt 0 13.0469
f 14/24/6 16/27/6 17/28/6

vt 1 0
vn 0 0 1
v 6.55813 13.0469 4.23835
vt 2 13.0469
vn 0 0.0654031 0.997859
vt 1 13.0469
f 16/29/7 18/30/8 17/31/8

v 6.55813 5.68434e-14 4.23835
vt 2 0
f 18/30/8 16/29/7 19/32/7

vt -1 0
vn 0 -1 -0
v 6.55813 5.68434e-14 3.98835
vt -2 0.25
vt -2 0
f 16/33/9 20/34/9 19/35/9

vt -1 0.25
f 20/34/9 16/33/9 15/36/9

vt -1 13.0305
vn 0 0 -1
f 3/37/2 20/35/10 15/33/10

vt -2 13.0305
f 20/35/10 3/37/2 2/38/2

v 6.55813 14.131 4.09562
vt 0.142732 14.131
vn 1 0 -0
vt 0.25 0
vt 0.25 13.0305
f 21/39/11 20/40/11 2/41/11

f 18/28/11 20/40/11 21/39/11

f 20/40/11 18/28/11 19/27/11

vt 2 14.0288
vn 0 0.258819 0.965926
vt 1 12.9352
vt 2 12.9352
f 21/42/12 17/43/8 18/44/8

vt 1 14.0288
f 17/43/8 21/42/12 14/45/12

v 6.55813 15.1566 3.67082
vt 2 14.22
vn 0 0.5 0.866025
vt 1 13.11
vt 2 13.11
f 22/46/13 14/47/12 21/48/12

vt 1 14.22
f 14/47/12 22/46/13 13/49/13

v 6.55813 16.0372 2.99508
vt 2 13.48
vn 0 0.707107 0.707107
vt 1 12.37
vt 2 12.37
f 23/50/14 13/51/13 22/52/13

vt 1 13.48
f 13/51/13 23/50/14 12/53/14

vt 2 10.7492
vt 1 11.8592
vn 0 0.866025 0.5
vt 1 10.7492
f 23/54/14 11/55/15 12/56/14

v 6.55813 16.713 2.11443
vt 2 11.8592
f 11/55/15 23/54/14 24/57/15

vt 1.24327 16.0372
vt 1.42157 15.8589
vt 2.12392 16.713
f 23/58/11 8/59/11 24/60/11

vt 0.785898 15.0305
f 23/58/11 6/61/11 8/59/11

vt 0.567524 15.1566
f 22/62/11 6/61/11 23/58/11

vt 0.386297 14.0658
f 22/62/11 4/63/11 6/61/11

f 21/39/11 4/63/11 22/62/11

f 21/39/11 2/41/11 4/63/11

vt 2.25 16.4946
f 24/60/11 8/59/11 9/64/11

v 6.55813 17.1377 1.08889
vt 3.14946 17.1377
f 24/60/11 9/64/11 25/65/11

v 6.55813 16.8942 1.02362
vt 3.21472 16.8942
f 25/65/11 9/64/11 26/66/11

vt -1 8.39093
vt -2 9.43514
vn 0 -0.965926 -0.258819
vt -2 8.39093
f 10/67/5 26/68/16 9/69/5

v 5.55813 16.8942 1.02362
vt -1 9.43514
f 26/68/16 10/67/5 27/70/16

v 5.55813 17.1377 1.08889
vt -3.14946 17.1377
vt -3.21472 16.8942
f 10/19/6 28/71/6 27/72/6

f 10/19/6 11/18/6 28/71/6

vt 2 8.35802
vt 1 9.46805
vn 0 0.965926 0.258819
vt 1 8.35802
f 24/73/15 28/74/17 11/75/15

vt 2 9.46805
f 28/74/17 24/73/15 25/76/17

vt 2 5.35944
v 5.55813 17.2826 -0.0116522
vt 1 6.46948
vn 0 1 1.58172e-15
vt 1 5.35944
f 25/77/17 29/78/18 28/79/17

v 6.55813 17.2826 -0.0116522
vt 2 6.46948
f 29/78/18 25/77/17 30/80/18

vt 4.25 17.2826
f 25/65/11 26/66/11 30/81/11

v 6.55813 17.0305 -0.0116522
vt 4.25 17.0305
f 30/81/11 26/66/11 31/82/11

vt -1 5.39235
vt -2 6.43656
vn 0 -1 -1.6937e-15
vt -2 5.39235
f 27/83/16 31/84/19 26/85/16

v 5.55813 17.0305 -0.0116522
vt -1 6.43656
f 31/84/19 27/83/16 32/86/19

vt -4.25 17.2826
vt -4.25 17.0305
f 27/72/6 29/87/6 32/88/6

f 27/72/6 28/71/6 29/87/6

v 5.55813 17.1377 -1.11219
vt -5.35054 17.1377
f 32/88/6 29/87/6 33/89/6

vt -2 -1.9578
vt -1 -3.06784
vn 0 0.965926 -0.258819
vt -1 -1.9578
f 30/90/18 33/91/20 29/92/18

v 6.55813 17.1377 -1.11219
vt -2 -3.06784
f 33/91/20 30/90/18 34/93/20

v 6.55813 16.8942 -1.04693
vt 5.28528 16.8942
vt 5.35054 17.1377
f 30/81/11 35/94/11 34/95/11

f 30/81/11 31/82/11 35/94/11

vt 1 -1.99072
vt 2 -3.03493
vn 0 -0.965926 0.258819
vt 2 -1.99072
f 32/96/19 35/97/21 31/98/19

v 5.55813 16.8942 -1.04693
vt 1 -3.03493
f 35/97/21 32/96/19 36/99/21

vt -5.28528 16.8942
f 32/88/6 33/89/6 36/100/6

v 5.55813 16.4946 -2.01165
vt -6.25 16.4946
f 36/100/6 33/89/6 37/101/6

v 5.55813 16.713 -2.13773
vt -6.37608 16.713
f 37/101/6 33/89/6 38/102/6

vt -2 1.61508
vt -1 0.505042
vn 0 0.866025 -0.5
vt -1 1.61508
f 34/103/20 38/104/22 33/105/20

v 6.55813 16.713 -2.13773
vt -2 0.505042
f 38/104/22 34/103/20 39/106/22

v 6.55813 16.4946 -2.01165
vt 6.25 16.4946
vt 6.37608 16.713
f 34/95/11 40/107/11 39/108/11

f 34/95/11 35/94/11 40/107/11

vt 1 1.58216
vt 2 0.537955
vn 0 -0.866025 0.5
vt 2 1.58216
f 36/109/21 40/110/23 35/111/21

vt 1 0.537955
f 40/110/23 36/109/21 37/112/23

vt 1 5.0828
v 6.55813 15.8589 -2.84008
vt 2 4.0386
vn 0 -0.707107 0.707107
vt 2 5.0828
f 37/113/23 41/114/24 40/115/23

v 5.55813 15.8589 -2.84008
vt 1 4.0386
f 41/114/24 37/113/23 42/116/24

vt -7.07843 15.8589
f 37/101/6 38/102/6 42/117/6

v 5.55813 16.0372 -3.01838
vt -7.25673 16.0372
f 42/117/6 38/102/6 43/118/6

vt -2 5.11572
vt -1 4.00568
vn 0 0.707107 -0.707107
vt -1 5.11572
f 39/119/22 43/120/25 38/121/22

v 6.55813 16.0372 -3.01838
vt -2 4.00568
f 43/120/25 39/119/22 44/122/25

vt 7.07843 15.8589
vt 7.25673 16.0372
f 39/108/11 41/123/11 44/124/11

f 39/108/11 40/107/11 41/123/11

v 6.55813 15.0305 -3.47575
vt 7.7141 15.0305
f 44/124/11 41/123/11 45/125/11

vt 2 8.27264
v 5.55813 15.0305 -3.47575
vt 1 7.22843
vn 0 -0.5 0.866025
vt 2 7.22843
f 41/126/24 46/127/26 45/128/26

vt 1 8.27264
f 46/127/26 41/126/24 42/129/24

vt -7.7141 15.0305
f 42/117/6 43/118/6 46/130/6

v 5.55813 15.1566 -3.69413
vt -7.93248 15.1566
f 46/130/6 43/118/6 47/131/6

vt -1 8.30555
v 6.55813 15.1566 -3.69413
vt -2 7.19552
vn 0 0.5 -0.866025
vt -1 7.19552
f 43/132/25 48/133/27 47/134/27

vt -2 8.30555
f 48/133/27 43/132/25 44/135/25

vt 7.93248 15.1566
f 44/124/11 45/125/11 48/136/11

v 6.55813 14.0658 -3.87536
vt 8.1137 14.0658
f 48/136/11 45/125/11 49/137/11

vt 2 10.9343
v 5.55813 14.0658 -3.87536
vt 1 9.89008
vn 0 -0.258819 0.965926
vt 2 9.89008
f 45/138/26 50/139/28 49/140/28

vt 1 10.9343
f 50/139/28 45/138/26 46/141/26

vt -8.1137 14.0658
f 46/130/6 47/131/6 50/142/6

v 5.55813 14.131 -4.11892
vt -8.35727 14.131
f 50/142/6 47/131/6 51/143/6

vt -1 10.9672
v 6.55813 14.131 -4.11892
vt -2 9.85717
vn 0 0.258819 -0.965926
vt -1 9.85717
f 47/144/27 52/145/29 51/146/29

vt -2 10.9672
f 52/145/29 47/144/27 48/147/27

vt 8.35727 14.131
f 48/136/11 49/137/11 52/148/11

v 6.55813 13.0305 -4.01165
vt 8.25 13.0305
f 52/148/11 49/137/11 53/149/11

vt 2 12.8864
v 5.55813 13.0305 -4.01165
vt 1 11.8422
vn 0 -0.0654031 0.997859
vt 2 11.8422
f 49/150/28 54/151/30 53/152/30

vt 1 12.8864
f 54/151/30 49/150/28 50/153/28

vt -8.25 13.0305
f 50/142/6 51/143/6 54/154/6

v 5.55813 5.68434e-14 -4.01165
vt -8.25 0
f 54/154/6 51/143/6 55/155/6

v 5.55813 5.68434e-14 -4.26165
vt -8.5 0
f 55/155/6 51/143/6 56/156/6

v 5.55813 13.0469 -4.26165
vt -8.5 13.0469
f 56/156/6 51/143/6 57/157/6

vt -1 12.9193
v 6.55813 13.0469 -4.26165
vt -2 11.8258
vn 0 0.0654031 -0.997859
vt -1 11.8258
f 51/158/29 58/159/31 57/160/31

vt -2 12.9193
f 58/159/31 51/158/29 52/161/29

v 6.55813 5.68434e-14 -4.26165
vt 8.5 0
vt 8.5 13.0469
f 52/148/11 59/162/11 58/163/11

v 6.55813 5.68434e-14 -4.01165
vt 8.25 0
f 52/148/11 60/164/11 59/162/11

f 52/148/11 53/149/11 60/164/11

vt 2 13.0305
vt 1 -1.12467e-15
vn 0 -1.36323e-16 1
vt 2 -1.12467e-15
f 53/165/30 55/166/32 60/167/32

vt 1 13.0305
f 55/166/32 53/165/30 54/168/30

vt -1 8.25
vt -2 8.5
vt -2 8.25
f 55/169/9 59/170/9 60/171/9

vt -1 8.5
f 59/170/9 55/169/9 56/172/9

vt -1 13.0469
vt -2 -1.15729e-15
vn 0 1.36152e-16 -1
vt -1 -1.15729e-15
f 57/173/31 59/174/33 56/175/33

vt -2 13.0469
f 59/174/33 57/173/31 58/176/31

g Mesh2 Group3 Group1 Model

v -6.44187 14.0658 3.85205
vt -2.70001e-18 13.9958
vn -3.11683e-17 -0.258819 -0.965926
v -5.44187 13.0305 3.98835
vn -3.47227e-18 -0.0654031 -0.997859
v -6.44187 13.0305 3.98835
vt -1.42126e-14 12.9516
f 61/177/34 62/3/35 63/178/35

v -5.44187 14.0658 3.85205
f 62/3/35 61/177/34 64/1/34

v -6.44187 15.0305 3.45245
vt -1.42575e-14 14.1871
vn -4.99413e-19 -0.5 -0.866025
vt -2.2944e-17 13.1429
f 65/179/36 64/7/34 61/180/34

v -5.44187 15.0305 3.45245
f 64/7/34 65/179/36 66/5/36

v -6.44187 15.8589 2.81677
vt 9.65512e-17 13.4471
vn 2.71742e-17 -0.707107 -0.707107
vt -1.41575e-14 12.4029
f 67/181/37 66/11/36 65/182/36

v -5.44187 15.8589 2.81677
f 66/11/36 67/181/37 68/9/37

v -6.44187 16.4946 1.98835
vt -1.42109e-14 11.8263
vn 2.60656e-17 -0.866025 -0.5
vt 0 10.7821
f 69/183/38 68/13/37 67/184/37

v -5.44187 16.4946 1.98835
f 68/13/37 69/183/38 70/16/38

v -6.44187 16.8942 1.02362
vt -2.79875e-14 9.43514
vn 1.29107e-16 -0.965926 -0.258819
vt -1.3907e-14 8.39093
f 71/185/39 70/67/38 69/186/38

v -5.44187 16.8942 1.02362
f 70/67/38 71/185/39 72/70/39

vt -2.33895e-14 5.39235
v -5.44187 17.0305 -0.0116522
vn 1.54563e-16 -1 -1.6937e-15
f 71/187/39 73/86/40 72/83/39

v -6.44187 17.0305 -0.0116522
vt -2.17689e-14 6.43656
f 73/86/40 71/187/39 74/188/40

vn -1 -1.08099e-16 -0
v -6.44187 17.2826 -0.0116522
f 71/72/41 75/87/41 74/88/41

v -6.44187 17.1377 1.08889
f 71/72/41 76/71/41 75/87/41

f 69/19/41 76/71/41 71/72/41

v -6.44187 16.713 2.11443
f 69/19/41 77/18/41 76/71/41

f 67/17/41 77/18/41 69/19/41

v -6.44187 16.0372 2.99508
f 67/17/41 78/20/41 77/18/41

f 65/21/41 78/20/41 67/17/41

v -6.44187 15.1566 3.67082
f 65/21/41 79/22/41 78/20/41

f 61/23/41 79/22/41 65/21/41

v -6.44187 14.131 4.09562
f 61/23/41 80/24/41 79/22/41

f 80/24/41 61/23/41 63/25/41

v -6.44187 5.68434e-14 3.98835
f 81/26/41 80/24/41 63/25/41

v -6.44187 5.68434e-14 4.23835
f 82/27/41 80/24/41 81/26/41

v -6.44187 13.0469 4.23835
f 80/24/41 82/27/41 83/28/41

v -5.44187 8.52651e-14 4.23835
vt 1 2.84217e-14
vt 1.42109e-14 13.0469
vn 3.47227e-18 0.0654031 0.997859
f 84/189/7 83/190/42 82/27/7

v -5.44187 13.0469 4.23835
f 83/190/42 84/189/7 85/31/42

v -5.44187 8.52651e-14 3.98835
vt 0.25 2.83136e-14
vn 1 1.08099e-16 -0
vt 0 2.83136e-14
f 86/191/43 85/28/43 84/192/43

v -5.44187 14.131 4.09562
f 85/28/43 86/191/43 87/39/43

f 87/39/43 86/191/43 62/41/43

vt -1 2.84217e-14
vt -1.42109e-14 13.0305
f 86/193/10 63/194/35 62/37/35

f 63/194/35 86/193/10 81/27/10

vt 0 0.25
f 86/36/9 82/27/9 81/195/9

f 82/27/9 86/36/9 84/33/9

f 87/39/43 62/41/43 64/63/43

v -5.44187 15.1566 3.67082
f 87/39/43 64/63/43 88/62/43

f 88/62/43 64/63/43 66/61/43

v -5.44187 16.0372 2.99508
f 88/62/43 66/61/43 89/58/43

f 89/58/43 66/61/43 68/59/43

v -5.44187 16.713 2.11443
f 89/58/43 68/59/43 90/60/43

f 90/60/43 68/59/43 70/64/43

v -5.44187 17.1377 1.08889
f 90/60/43 70/64/43 91/65/43

f 91/65/43 70/64/43 72/66/43

v -5.44187 17.2826 -0.0116522
f 91/65/43 72/66/43 92/81/43

f 92/81/43 72/66/43 73/82/43

v -5.44187 16.8942 -1.04693
f 92/81/43 73/82/43 93/94/43

vt 3.17481e-14 -1.99072
vn 2.54553e-17 -0.965926 0.258819
f 74/196/40 93/99/44 73/96/40

v -6.44187 16.8942 -1.04693
vt 3.25584e-14 -3.03493
f 93/99/44 74/196/40 94/197/44

v -6.44187 17.1377 -1.11219
f 74/88/41 95/89/41 94/100/41

f 74/88/41 75/87/41 95/89/41

vn -1.03042e-16 1 1.56772e-15
vt -2.84217e-14 -3.06784
vn -2.60656e-17 0.965926 -0.258819
vt 0 -1.9578
f 92/92/45 95/198/46 75/199/45

v -5.44187 17.1377 -1.11219
f 95/198/46 92/92/45 96/91/46

f 92/81/43 93/94/43 96/95/43

v -5.44187 16.4946 -2.01165
f 96/95/43 93/94/43 97/107/43

vt 2.77079e-14 1.58216
vn -5.26514e-17 -0.866025 0.5
f 94/200/44 97/112/47 93/109/44

v -6.44187 16.4946 -2.01165
vt 1.33667e-14 0.537955
f 97/112/47 94/200/44 98/201/47

f 94/100/41 95/89/41 98/101/41

v -6.44187 16.713 -2.13773
f 98/101/41 95/89/41 99/102/41

vt -2.92829e-14 0.505042
vn -2.60656e-17 0.866025 -0.5
vt -2.91444e-14 1.61508
f 96/105/46 99/202/48 95/203/46

v -5.44187 16.713 -2.13773
f 99/202/48 96/105/46 100/104/48

f 96/95/43 97/107/43 100/108/43

v -5.44187 15.8589 -2.84008
f 100/108/43 97/107/43 101/123/43

vt 1.36696e-14 5.0828
vn -2.65858e-17 -0.707107 0.707107
f 98/204/47 101/116/49 97/113/47

v -6.44187 15.8589 -2.84008
vt -6.12969e-16 4.0386
f 101/116/49 98/204/47 102/205/49

f 98/101/41 99/102/41 102/117/41

v -6.44187 16.0372 -3.01838
f 102/117/41 99/102/41 103/118/41

vt -2.84217e-14 5.11572
v -5.44187 16.0372 -3.01838
vt 0 4.00568
f 99/206/48 104/120/25 103/207/25

f 104/120/25 99/206/48 100/121/48

f 100/108/43 101/123/43 104/124/43

v -5.44187 15.0305 -3.47575
f 104/124/43 101/123/43 105/125/43

vt 0 8.27264
vn -2.76736e-17 -0.5 0.866025
f 102/208/49 105/127/50 101/129/49

v -6.44187 15.0305 -3.47575
vt 1.42109e-14 7.22843
f 105/127/50 102/208/49 106/209/50

f 102/117/41 103/118/41 106/130/41

v -6.44187 15.1566 -3.69413
f 106/130/41 103/118/41 107/131/41

vt 0 8.30555
v -5.44187 15.1566 -3.69413
vn -1.38368e-17 0.5 -0.866025
vt -1.42109e-14 7.19552
f 103/210/25 108/134/51 107/211/51

f 108/134/51 103/210/25 104/132/25

f 104/124/43 105/125/43 108/136/43

v -5.44187 14.0658 -3.87536
f 108/136/43 105/125/43 109/137/43

vt 1.37527e-14 10.9343
vn -3.11683e-17 -0.258819 0.965926
f 106/212/50 109/139/52 105/141/50

v -6.44187 14.0658 -3.87536
vt -4.81912e-16 9.89008
f 109/139/52 106/212/50 110/213/52

f 106/130/41 107/131/41 110/142/41

v -6.44187 14.131 -4.11892
f 110/142/41 107/131/41 111/143/41

vt -1.44464e-14 10.9672
v -5.44187 14.131 -4.11892
vn -1.73315e-17 0.258819 -0.965926
vt -1.4459e-14 9.85717
f 107/214/51 112/146/53 111/215/53

f 112/146/53 107/214/51 108/144/51

f 108/136/43 109/137/43 112/148/43

v -5.44187 13.0305 -4.01165
f 112/148/43 109/137/43 113/149/43

v -6.44187 13.0305 -4.01165
vt 1.41532e-14 11.8422
vn -3.47227e-18 -0.0654031 0.997859
f 109/153/52 114/216/54 113/151/54

vt -5.67105e-17 12.8864
f 114/216/54 109/153/52 110/217/52

f 110/142/41 111/143/41 114/154/41

v -6.44187 5.68434e-14 -4.01165
f 114/154/41 111/143/41 115/155/41

v -6.44187 5.68434e-14 -4.26165
f 115/155/41 111/143/41 116/156/41

v -6.44187 13.0469 -4.26165
f 116/156/41 111/143/41 117/157/41

vt -1.42693e-14 12.9193
v -5.44187 13.0469 -4.26165
vn -3.47227e-18 0.0654031 -0.997859
vt -1.42703e-14 11.8258
f 111/218/53 118/160/55 117/219/55

f 118/160/55 111/218/53 112/158/53

v -5.44187 8.52651e-14 -4.26165
vt 8.5 2.83136e-14
f 112/148/43 119/220/43 118/163/43

f 113/149/43 119/220/43 112/148/43

v -5.44187 8.52651e-14 -4.01165
vt 8.25 2.83136e-14
f 119/220/43 113/149/43 120/221/43

vt 1.42109e-14 13.0305
vt 1 2.7297e-14
f 114/222/54 120/223/32 113/168/54

vt 0 -1.12467e-15
f 120/223/32 114/222/54 115/224/32

vt 0 8.25
f 115/225/9 119/172/9 120/169/9

vt 0 8.5
f 119/172/9 115/225/9 116/226/9

vt -1.42109e-14 13.0469
vt -1 2.72644e-14
vn 1.2326e-32 1.36152e-16 -1
vt 1.04771e-31 -1.15729e-15
f 117/227/55 119/228/56 116/229/56

f 119/228/56 117/227/55 118/173/55

vt 2.34917e-14 5.35944
vn -1.03042e-16 0.965926 0.258819
vt -6.65278e-15 6.46948
f 76/230/57 92/78/45 75/231/45

f 92/78/45 76/230/57 91/79/57

vt 2.84217e-14 9.46805
f 76/232/57 90/75/15 91/74/57

vt 2.84217e-14 8.35802
f 90/75/15 76/232/57 77/233/15

vt 2.84217e-14 11.8592
vn -5.43484e-17 0.707107 0.707107
f 77/234/15 89/56/58 90/55/15

vt 0 10.7492
f 89/56/58 77/234/15 78/235/58

vt 1.41338e-14 12.37
vn -6.81852e-17 0.5 0.866025
vt -1.68882e-16 13.48
f 79/236/59 89/53/58 78/237/58

f 89/53/58 79/236/59 88/51/59

vt 1.4194e-14 14.22
vn -1.03421e-17 0.258819 0.965926
f 79/238/59 87/47/60 88/49/59

vt 1.42066e-14 13.11
f 87/47/60 79/238/59 80/239/60

vt 1.42119e-14 14.0288
f 80/240/60 85/43/42 87/45/60

vt 1.42109e-14 12.9352
f 85/43/42 80/240/60 83/241/42

