# Alias OBJ Model File
# Exported from SketchUp, (c) 2000-2012 Trimble Navigation Limited
# File units = inches

mtllib desk2.mtl

g Mesh1 Group1 Model

usemtl Wood__Floor
v 6.48355 4.38183 4
vt 0.0165511 -0.00726864
vn -0.357439 -0.357439 -0.86283
v 5.78802 5.10052 4.25
vt 0.0196301 0.00963501
vn -0.274745 -0.274745 0.921428
v 5.77644 5.08894 4
vt 0.0154634 0.00936249
f 1/1/1 2/2/2 3/3/1

v 6.49513 4.39342 4.25
vt 0.0207178 -0.00699613
f 2/2/2 1/1/1 4/4/2

v 7.2156 5.11388 3.8637
vt 0.00643828 0.326096
vn 0.707107 -0.707107 3.71702e-16
vt 1.17996e-16 0.309114
vt 0.00416667 0.308841
f 5/5/3 4/6/3 1/7/3

v 7.26174 5.16003 4.10727
vt 0.00237886 0.327184
f 4/6/3 5/5/3 6/8/3

v 7.89776 5.79605 3.4641
vt 0.0130983 0.342175
f 6/8/3 5/5/3 7/9/3

v 6.50849 5.82099 3.8637
vt -0.217443 0.212236
vn -0.183013 -0.183013 -0.965926
vt -0.241536 0.211805
vn -0.353553 -0.353553 -0.866025
vt -0.228753 0.199995
f 8/10/4 7/11/5 5/12/4

v 7.19065 6.50315 3.4641
vt -0.230226 0.224046
f 7/11/5 8/10/4 9/13/5

vt -0.00643828 0.326096
vn -0.707107 0.707107 2.47333e-16
v 6.55464 5.86714 4.10727
vt -0.00237886 0.327184
vt -0.0130983 0.342175
f 8/14/6 10/15/6 9/16/6

vt 7.43931e-17 0.309114
f 8/14/6 2/17/6 10/15/6

vt -0.00416667 0.308841
f 2/17/6 8/14/6 3/18/6

vt -0.236056 0.222302
vt -0.211963 0.221884
vt -0.224321 0.234137
f 5/19/4 3/20/1 8/21/4

vt -0.223697 0.210048
f 3/20/1 5/19/4 1/22/1

v -4.8962 -6.99791 4
vt -0.0346139 0.0228288
vn -2.13792e-16 -7.822e-18 -1
vt -0.212491 0.224276
vt -0.224276 0.212491
f 11/23/7 3/24/1 1/25/1

v -6.41074 -7.09824 4
vt -0.00937161 0.0211567
f 11/23/7 12/26/7 3/24/1

v 6.2159 -6.99791 4
vt -0.219816 0.0228288
f 13/27/7 12/26/7 11/23/7

v -7.20657 -7.97135 4
vt 0.00389228 0.00660476
f 13/27/7 14/28/7 12/26/7

v 6.2159 -7.99791 4
vt -0.219816 0.00616215
f 14/28/7 13/27/7 15/29/7

v 6.23228 -6.99791 4.25
vt -0.0143945 0.0228288
vn 0.997859 -4.25414e-14 -0.0654031
vt -0.0102189 0.00616215
vt -0.0102189 0.0228288
f 16/30/8 15/31/8 13/32/8

v 6.23228 -7.99791 4.25
vt -0.0143945 0.00616215
f 15/31/8 16/30/8 17/33/8

vt 0.220089 0.0228288
vn 2.13488e-16 7.89074e-18 1
v -7.20657 -7.97135 4.25
vt -0.00389228 0.00660476
vt 0.220089 0.00616215
f 16/34/9 18/35/9 17/36/9

v -6.41074 -7.09824 4.25
vt 0.00937161 0.0211567
f 18/35/9 16/34/9 19/37/9

v -4.8962 -6.99791 4.25
vt 0.0346139 0.0228288
f 19/37/9 16/34/9 20/38/9

vt 0.220089 7.39456e-16
vn 8.29056e-16 1 3.23913e-14
vt 0.0346139 0.00416667
vt 0.0346139 7.39456e-16
f 16/39/10 11/40/10 20/41/10

vt 0.219816 0.00416667
f 11/40/10 16/39/10 13/42/10

vn 0.707107 -0.707107 2.54838e-15
vt 1.24747e-16 0.0406181
vt 0.00416667 0.0406181
f 1/7/11 20/43/11 11/44/11

vt 8.08977e-16 0.309114
f 20/43/11 1/7/11 4/45/11

vt 0.212684 0.224469
vt 0.224469 0.212684
f 2/46/2 20/38/9 4/47/2

f 19/37/9 20/38/9 2/46/2

vt 1.05665e-14 0.309114
vn -0.707107 0.707107 3.51302e-14
vt -0.00416667 0.0215868
vt 4.65597e-16 0.0215868
f 2/48/12 12/49/12 19/50/12

f 12/49/12 2/48/12 3/18/12

vt -0.00416667 0.00225931
vn -0.739059 0.673641 7.11884e-17
vt 9.02703e-19 0.0219492
vt -0.00416667 0.0219492
f 14/51/13 19/52/13 12/53/13

vt 1.18049e-16 0.00225931
f 19/52/13 14/51/13 18/54/13

vt 0.00303544 -0.219821
vn -0.00197733 -0.999998 6.48007e-05
vt -0.000127488 0.00390325
vt -0.00429192 0.00376678
f 15/55/14 18/56/14 14/57/14

vt 0.00720882 -0.219958
f 18/56/14 15/55/14 17/58/14

vt 0.236445 0.222688
vn 0.183013 0.183013 0.965926
vt 0.211769 0.221692
vt 0.223503 0.209856
f 6/59/15 2/60/2 4/61/2

vt 0.224711 0.234523
f 2/60/2 6/59/15 10/62/15

v 7.98691 5.8852 3.68248
vt 0.241939 0.212177
vn 0.353553 0.353553 0.866025
vt 0.21704 0.211864
vt 0.22835 0.199622
f 21/63/16 10/64/15 6/65/15

v 7.2798 6.5923 3.68248
vt 0.230629 0.224419
f 10/64/15 21/63/16 22/66/16

v 8.60962 6.50791 3.00673
vt 0.238156 0.178305
vn 0.5 0.5 0.707107
vt 0.213304 0.179863
vt 0.223663 0.166806
f 23/67/17 22/68/16 21/69/16

v 7.90252 7.21502 3.00673
vt 0.227798 0.191361
f 22/68/16 23/67/17 24/70/17

v 9.08745 6.98574 2.12608
vt 0.220829 0.124676
vn 0.612372 0.612372 0.5
vt 0.19636 0.129293
vt 0.205027 0.115056
f 25/71/18 24/72/17 23/73/17

v 8.38034 7.69284 2.12608
vt 0.212163 0.138913
f 24/72/17 25/71/18 26/74/18

v 9.38782 7.28611 1.10054
vt 0.183119 0.0611538
vn 0.683013 0.683013 0.258819
vt 0.159883 0.0701074
vt 0.16584 0.0545415
f 27/75/19 26/76/18 25/77/18

v 8.68072 7.99322 1.10054
vt 0.177162 0.0767196
f 26/76/18 27/75/19 28/78/19

v 9.49027 7.38856 -0
vt 0.119861 0.00724091
vn 0.707107 0.707107 1.58172e-15
vt 0.0993584 0.0213729
vt 0.101516 0.00484641
f 29/79/20 28/80/19 27/81/19

v 8.78317 8.09567 -0
vt 0.117703 0.0237674
f 28/80/19 29/79/20 30/82/20

v 9.38782 7.28611 -1.10054
vt 0.0377578 -0.0133324
vn 0.683013 0.683013 -0.258819
vt 0.0215699 0.00558858
vt 0.0194128 -0.0109379
f 31/83/21 30/84/20 29/85/20

v 8.68072 7.99322 -1.10054
vt 0.0399149 0.00319408
f 30/84/20 31/83/21 32/86/21

v 9.08745 6.98574 -2.12608
vt -0.0436021 0.0077631
vn 0.612372 0.612372 -0.5
vt -0.0549239 0.0299411
vt -0.0608807 0.0143753
f 33/87/22 32/88/21 31/89/21

v 8.38034 7.69284 -2.12608
vt -0.0376453 0.0233289
f 32/88/21 33/87/22 34/90/22

vt -0.124827 0.066234
v 7.90252 7.21502 -3.00673
vt -0.100358 0.0708502
vn 0.5 0.5 -0.707107
vt -0.116161 0.0804703
f 33/91/22 35/92/23 34/93/22

v 8.60962 6.50791 -3.00673
vt -0.109025 0.0566139
f 35/92/23 33/91/22 36/94/23

v 8.93303 6.83132 -2
vt 0.104167 0.366576
vt 0.120945 0.358953
vt 0.106268 0.370216
f 37/95/3 36/96/3 33/97/3

v 8.48355 6.38183 -2.82843
vt 0.117974 0.355982
f 38/98/3 36/96/3 37/95/3

v 7.98691 5.8852 -3.68248
vt 0.132208 0.344276
f 38/98/3 39/99/3 36/96/3

v 7.89776 5.79605 -3.4641
vt 0.128568 0.342175
f 40/100/3 39/99/3 38/98/3

v 7.26174 5.16003 -4.10727
vt 0.139288 0.327184
f 40/100/3 41/101/3 39/99/3

v 7.2156 5.11388 -3.8637
vt 0.135228 0.326096
f 42/102/3 41/101/3 40/100/3

v 6.49513 4.39342 -4.25
vt 0.141667 0.309114
f 42/102/3 43/103/3 41/101/3

v 6.48355 4.38183 -4
vt 0.1375 0.308841
f 44/104/3 43/103/3 42/102/3

v -4.8962 -6.99791 -4
vt 0.1375 0.0406181
f 45/105/3 43/103/3 44/104/3

v -4.8962 -6.99791 -4.25
vt 0.141667 0.0406181
f 43/103/3 45/105/3 46/106/3

v -6.31041 -6.99791 -4.25
vt 0.0110437 0.141667
vn 4.07596e-15 1 -3.84877e-15
vt 0.0346139 0.1375
vt 0.0346139 0.141667
f 47/107/24 45/108/24 46/109/24

v -6.31041 -6.99791 -4
vt 0.0110437 0.1375
f 47/107/24 48/110/24 45/108/24

v -6.34803 -6.99791 -4.25
vt 0.0104167 0.141667
f 49/111/24 48/110/24 47/107/24

v -6.34803 -6.99791 -4
vt 0.0104167 0.1375
f 48/110/24 49/111/24 50/112/24

vt -0.141667 0.0248796
vn -0.847998 0.529999 -1.88293e-15
v -6.41074 -7.09824 -4
vt -0.1375 0.0229078
vt -0.1375 0.0248796
f 49/113/25 51/114/25 50/115/25

v -6.84327 -7.79029 -4
vt -0.1375 0.00930603
f 51/114/25 49/113/25 52/116/25

v -6.97303 -7.99791 -4
vt -0.1375 0.00522549
f 52/116/25 49/113/25 53/117/25

v -6.97303 -7.99791 -4.25
vt -0.141667 0.00522549
f 53/117/25 49/113/25 54/118/25

v -6.41074 -7.09824 -4.25
vt -0.141667 0.0229078
f 54/118/25 49/113/25 55/119/25

vt -0.0104167 0.0228288
vn 0 0 -1
vt -0.0110437 0.0228288
f 49/120/26 47/121/26 55/26/26

vt -0.141667 0.0215868
vt -0.1375 0.0239515
vt -0.141667 0.0239515
f 55/122/6 48/123/6 47/124/6

vt -0.1375 0.0215868
f 48/123/6 55/122/6 51/125/6

v -7.20657 -7.97135 -4.25
vt -0.141667 0.00225931
vn -0.739059 0.673641 -4.71532e-15
vt -0.1375 0.0219492
vt -0.141667 0.0219492
f 56/126/27 51/127/27 55/128/27

v -7.20657 -7.97135 -4
vt -0.1375 0.00225931
f 51/127/27 56/126/27 57/129/27

vn 2.84064e-14 -1.7754e-14 1
vt 0.00216268 0.00962243
f 51/37/28 57/35/28 52/130/28

vn 0 0 1
f 52/130/29 45/38/29 51/37/29

v -6.63566 -7.99791 -4
vt 0.00562297 0.00616215
f 58/131/29 45/38/29 52/130/29

v -5.8962 -7.99791 -4
vt 0.0179473 0.00616215
f 45/38/29 58/131/29 59/132/29

vt -0.00562297 0.1375
vn -5.06603e-15 -1 -7.85457e-15
v -5.8962 -7.99791 -4.25
vt -0.0179473 0.141667
vt -0.0179473 0.1375
f 58/133/30 60/134/30 59/135/30

v -6.63566 -7.99791 -4.25
vt -0.00562297 0.141667
f 58/133/30 61/136/30 60/134/30

vt 3.12176e-17 0.1375
f 53/137/30 61/136/30 58/133/30

vt 3.12176e-17 0.141667
f 61/136/30 53/137/30 54/138/30

v -6.84327 -7.79029 -4.25
vt -0.00216268 0.00962243
vt -0.00562297 0.00616215
vt 0 0.00616215
f 62/139/26 61/140/26 54/141/26

f 46/23/26 61/140/26 62/139/26

vt -0.0179473 0.00616215
f 61/140/26 46/23/26 60/142/26

v 6.23228 -6.99791 -4.25
vt -0.220089 0.0228288
f 63/143/26 60/142/26 46/23/26

v 6.23228 -7.99791 -4.25
vt -0.220089 0.00616215
f 60/142/26 63/143/26 64/144/26

v 6.2159 -6.99791 -4
vt 0.151582 0.0228288
vn 0.997859 -4.25405e-14 0.0654031
vt 0.155758 0.00616215
vt 0.155758 0.0228288
f 65/145/31 64/146/31 63/147/31

v 6.2159 -7.99791 -4
vt 0.151582 0.00616215
f 64/146/31 65/145/31 66/148/31

vt 0.219816 0.0228288
vt 0.219816 0.00616215
f 65/149/29 59/132/29 66/150/29

f 59/132/29 65/149/29 45/38/29

vt 0.219816 0.1375
vn 4.23352e-15 1 -3.18357e-14
f 65/151/32 46/109/32 45/108/32

vt 0.220089 0.141667
f 46/109/32 65/151/32 63/152/32

vt -0.220089 0.141667
vt -0.219816 0.1375
f 59/135/30 64/153/30 66/154/30

f 59/135/30 60/134/30 64/153/30

f 46/23/26 62/139/26 55/26/26

vt -0.141667 0.00930603
f 54/118/25 55/119/25 62/155/25

vn -2.84064e-14 1.7754e-14 -1
f 55/26/33 62/139/33 56/28/33

f 46/23/26 55/26/26 47/121/26

vt -0.224469 0.212684
vn 0.046247 0.046247 -0.997859
f 47/121/26 43/156/34 46/23/26

v 5.78802 5.10052 -4.25
vt -0.212684 0.224469
f 43/156/34 47/121/26 67/157/34

v 5.77644 5.08894 -4
vt -0.1375 0.308841
vt -0.141667 0.309114
f 47/124/6 68/158/6 67/159/6

f 47/124/6 48/123/6 68/158/6

vt 0.0110437 0.0228288
vt 0.224276 0.212491
vn -0.046247 -0.046247 0.997859
vt 0.212491 0.224276
f 48/160/29 44/161/35 68/162/35

f 44/161/35 48/160/29 45/38/29

f 51/37/29 45/38/29 48/160/29

vt 0.0104167 0.0228288
f 50/163/29 51/37/29 48/160/29

vt 0.222925 0.209283
vn -0.183013 -0.183013 0.965926
vt 0.198831 0.208865
vt 0.210566 0.197029
f 42/164/36 68/165/35 44/166/35

v 6.50849 5.82099 -3.8637
vt 0.21119 0.221118
f 68/165/35 42/164/36 69/167/36

vt 0.201716 0.175015
vn -0.353553 -0.353553 0.866025
vt 0.177623 0.175447
vt 0.188932 0.163205
f 40/168/37 69/169/36 42/170/36

v 7.19065 6.50315 -3.4641
vt 0.190406 0.187257
f 69/169/36 40/168/37 70/171/37

vt 0.170165 0.124364
vn -0.5 -0.5 0.707107
vt 0.146172 0.126604
vt 0.156531 0.113547
f 38/172/38 70/173/37 40/174/37

v 7.77644 7.08894 -2.82843
vt 0.159806 0.13742
f 70/173/37 38/172/38 71/175/38

vt 0.124359 0.0659488
vn -0.612372 -0.612372 0.5
vt 0.100827 0.0711354
vt 0.109493 0.0568992
f 37/176/39 71/177/38 38/178/38

v 8.22593 7.53843 -2
vt 0.115692 0.080185
f 71/177/38 37/176/39 72/179/39

v 9.2156 7.11388 -1.03528
vt 0.0603683 0.0141793
vn -0.683013 -0.683013 0.258819
vt 0.0381576 0.023525
vt 0.0441144 0.00795915
f 73/180/40 72/181/39 37/182/39

v 8.50849 7.82099 -1.03528
vt 0.0544116 0.0297451
f 72/181/39 73/180/40 74/183/40

v 9.31197 7.21026 -0
vt -0.0199567 -0.0110089
vn -0.707107 -0.707107 -1.6797e-15
vt -0.039371 0.00326508
vt -0.0372138 -0.0132614
f 75/184/41 74/185/40 73/186/40

v 8.60487 7.91737 -0
vt -0.0221139 0.00551758
f 74/185/40 75/184/41 76/187/41

v 9.2156 7.11388 1.03528
vt -0.102059 0.00491741
vn -0.683013 -0.683013 -0.258819
vt -0.117159 0.0236964
vt -0.119317 0.00716992
f 77/188/42 76/189/41 75/190/41

v 8.50849 7.82099 1.03528
vt -0.0999023 0.0214439
f 76/189/41 77/188/42 78/191/42

v 8.93303 6.83132 2
vt -0.166352 0.0547376
vn -0.612372 -0.612372 -0.5
vt -0.17665 0.0765235
vt -0.182606 0.0609577
f 79/192/43 78/193/42 77/194/42

v 8.22593 7.53843 2
vt -0.160396 0.0703034
f 78/193/42 79/192/43 80/195/43

vt -0.220361 0.124391
v 7.77644 7.08894 2.82843
vt -0.196829 0.129578
vn -0.5 -0.5 -0.707107
vt -0.211694 0.138627
f 79/196/43 81/197/44 80/198/43

v 8.48355 6.38183 2.82843
vt -0.205495 0.115342
f 81/197/44 79/196/43 82/199/44

vt 0.0207212 0.358953
vt 0.0236929 0.355982
vt 0.0375 0.366576
f 23/200/3 82/201/3 79/202/3

vt 0.00945873 0.344276
f 21/203/3 82/201/3 23/200/3

f 21/203/3 7/9/3 82/201/3

f 6/8/3 7/9/3 21/203/3

vt -0.213734 0.180204
vt -0.237726 0.177964
vt -0.224093 0.167147
f 9/204/5 82/205/44 7/206/5

vt -0.227368 0.19102
f 82/205/44 9/204/5 81/207/44

vt -0.00945873 0.344276
vt -0.0236929 0.355982
f 9/16/6 22/208/6 81/209/6

f 9/16/6 10/15/6 22/208/6

vt -0.0207212 0.358953
f 81/209/6 22/208/6 24/210/6

vt -0.0375 0.366576
f 81/209/6 24/210/6 80/211/6

vt -0.0353987 0.370216
f 80/211/6 24/210/6 26/212/6

vt -0.0535787 0.373236
f 80/211/6 26/212/6 78/213/6

vt -0.052491 0.377296
f 78/213/6 26/212/6 28/214/6

vt -0.0708333 0.375508
f 78/213/6 28/214/6 76/215/6

vt -0.0891757 0.377296
f 32/216/6 76/215/6 28/214/6

vt -0.0880879 0.373236
f 32/216/6 74/217/6 76/215/6

vt -0.106268 0.370216
f 34/218/6 74/217/6 32/216/6

vt -0.104167 0.366576
f 34/218/6 72/219/6 74/217/6

vt -0.120945 0.358953
f 35/220/6 72/219/6 34/218/6

vt -0.117974 0.355982
f 35/220/6 71/221/6 72/219/6

v 7.2798 6.5923 -3.68248
vt -0.132208 0.344276
f 83/222/6 71/221/6 35/220/6

vt -0.128568 0.342175
f 83/222/6 70/223/6 71/221/6

v 6.55464 5.86714 -4.10727
vt -0.139288 0.327184
f 84/224/6 70/223/6 83/222/6

vt -0.135228 0.326096
f 84/224/6 69/225/6 70/223/6

f 67/159/6 69/225/6 84/224/6

f 67/159/6 68/158/6 69/225/6

vt -0.223314 0.209669
vn 0.183013 0.183013 -0.965926
vt -0.198637 0.208673
vt -0.21158 0.221504
f 41/226/45 67/227/34 84/228/45

vt -0.210372 0.196837
f 67/227/34 41/226/45 43/229/34

vt -0.17722 0.175075
vt -0.202118 0.175388
vn 0.353553 0.353553 -0.866025
vt -0.18853 0.162833
f 84/230/45 39/231/46 41/232/45

vt -0.190808 0.187629
f 39/231/46 84/230/45 83/233/46

vt -0.145743 0.126263
vt -0.170595 0.124704
vt -0.156101 0.113206
f 83/234/46 36/235/23 39/236/46

vt -0.160236 0.137761
f 36/235/23 83/234/46 35/237/23

vt -0.0708333 0.379711
f 32/216/6 28/214/6 30/238/6

vt 0.0353987 0.370216
f 23/200/3 79/202/3 25/239/3

vt 0.0535787 0.373236
f 25/239/3 79/202/3 77/240/3

vt 0.052491 0.377296
f 25/239/3 77/240/3 27/241/3

vt 0.0708333 0.375508
f 27/241/3 77/240/3 75/242/3

vt 0.0891757 0.377296
f 27/241/3 75/242/3 31/243/3

vt 0.0880879 0.373236
f 73/244/3 31/243/3 75/242/3

f 73/244/3 33/97/3 31/243/3

f 37/95/3 33/97/3 73/244/3

vt 0.0708333 0.379711
f 27/241/3 31/243/3 29/245/3

f 52/130/29 53/141/29 58/131/29

